M48
; DRILL file {KiCad 9.0.3} date 2025-07-27T13:01:34+0200
; FORMAT={-:-/ absolute / metric / decimal}
; #@! TF.CreationDate,2025-07-27T13:01:34+02:00
; #@! TF.GenerationSoftware,Kicad,Pcbnew,9.0.3
; #@! TF.FileFunction,Plated,1,2,PTH
FMAT,2
METRIC
; #@! TA.AperFunction,Plated,PTH,ComponentDrill
T1C0.400
; #@! TA.AperFunction,Plated,PTH,ComponentDrill
T2C0.750
; #@! TA.AperFunction,Plated,PTH,ComponentDrill
T3C0.991
; #@! TA.AperFunction,Plated,PTH,ComponentDrill
T4C1.092
; #@! TA.AperFunction,Plated,PTH,ComponentDrill
T5C2.200
%
G90
G05
T1
X87.917Y-101.8
X88.233Y-100.578
X88.558Y-102.888
X89.321Y-99.937
X89.78Y-103.205
X90.544Y-100.253
X90.868Y-102.564
X91.184Y-101.341
X95.014Y-152.304
X95.331Y-151.081
X95.655Y-153.392
X96.419Y-150.44
X96.878Y-153.708
X97.641Y-150.757
X97.966Y-153.067
X98.282Y-151.845
X147.808Y-108.978
X148.292Y-107.811
X148.292Y-110.145
X149.458Y-107.328
X149.458Y-110.628
X150.625Y-107.811
X150.625Y-110.145
X151.108Y-108.978
X183.808Y-96.128
X184.292Y-94.961
X184.292Y-97.295
X185.005Y-153.129
X185.17Y-151.877
X185.458Y-94.478
X185.458Y-97.778
X185.774Y-154.131
X186.172Y-151.108
X186.625Y-94.961
X186.625Y-97.295
X187.026Y-154.295
X187.108Y-96.128
X187.424Y-151.273
X188.028Y-153.527
X188.193Y-152.275
T2
X199.458Y-86.028
X199.458Y-88.028
T3
X76.851Y-103.255
X79.217Y-120.089
X81.583Y-136.924
X83.949Y-153.758
X84.397Y-102.194
X86.763Y-119.029
X89.129Y-135.863
X91.495Y-152.698
X97.841Y-100.149
X99.027Y-117.108
X100.213Y-134.066
X105.443Y-99.618
X106.629Y-116.576
X107.815Y-133.535
X118.648Y-93.528
X118.648Y-110.528
X118.648Y-127.528
X126.268Y-93.528
X126.268Y-110.528
X126.268Y-127.528
X136.648Y-125.028
X136.648Y-91.028
X136.648Y-108.028
X144.268Y-125.028
X144.268Y-91.028
X144.268Y-108.028
X154.648Y-127.528
X154.648Y-144.528
X154.648Y-93.528
X154.648Y-110.528
X162.268Y-127.528
X162.268Y-144.528
X162.268Y-93.528
X162.268Y-110.528
X172.648Y-96.028
X172.648Y-130.028
X172.648Y-113.028
X173.355Y-148.355
X180.268Y-96.028
X180.268Y-130.028
X180.268Y-113.028
X180.715Y-150.327
X191.144Y-155.21
X197.743Y-159.02
T4
X191.838Y-94.598
X191.838Y-117.458
X191.838Y-92.058
X191.838Y-97.138
X191.838Y-99.678
X191.838Y-102.218
X191.838Y-104.758
X191.838Y-107.298
X191.838Y-109.838
X191.838Y-112.378
X191.838Y-114.918
X191.838Y-119.998
X194.378Y-114.918
X196.918Y-114.918
X199.458Y-114.918
X207.078Y-92.058
X207.078Y-97.138
X207.078Y-99.678
X207.078Y-102.218
X207.078Y-104.758
X207.078Y-107.298
X207.078Y-109.838
X207.078Y-112.378
X207.078Y-114.918
X207.078Y-119.998
X207.078Y-94.598
X207.078Y-117.458
T5
X89.551Y-101.571
X96.648Y-152.074
X149.458Y-108.978
X185.458Y-96.128
X186.599Y-152.702
M30
