%TF.GenerationSoftware,KiCad,Pcbnew,9.0.3*%
%TF.CreationDate,2025-07-25T16:03:50+02:00*%
%TF.ProjectId,left_pcb,6c656674-5f70-4636-922e-6b696361645f,v1.0.0*%
%TF.SameCoordinates,Original*%
%TF.FileFunction,Paste,Top*%
%TF.FilePolarity,Positive*%
%FSLAX46Y46*%
G04 Gerber Fmt 4.6, Leading zero omitted, Abs format (unit mm)*
G04 Created by KiCad (PCBNEW 9.0.3) date 2025-07-25 16:03:50*
%MOMM*%
%LPD*%
G01*
G04 APERTURE LIST*
G04 Aperture macros list*
%AMRotRect*
0 Rectangle, with rotation*
0 The origin of the aperture is its center*
0 $1 length*
0 $2 width*
0 $3 Rotation angle, in degrees counterclockwise*
0 Add horizontal line*
21,1,$1,$2,0,0,$3*%
G04 Aperture macros list end*
%ADD10R,0.900000X0.900000*%
%ADD11R,0.900000X1.250000*%
%ADD12RotRect,0.900000X1.200000X8.000000*%
%ADD13R,0.900000X1.200000*%
%ADD14RotRect,0.900000X1.200000X4.000000*%
%ADD15RotRect,0.900000X1.200000X330.000000*%
%ADD16RotRect,0.900000X1.200000X345.000000*%
G04 APERTURE END LIST*
D10*
%TO.C,T1*%
X203158336Y-126128054D03*
X203158336Y-123928051D03*
X195758336Y-126128057D03*
X195758336Y-123928054D03*
D11*
X197208336Y-122953054D03*
X200208334Y-122953055D03*
X201708336Y-122953054D03*
%TD*%
D12*
%TO.C,D3*%
X81356179Y-119788464D03*
X84624063Y-119329198D03*
%TD*%
D13*
%TO.C,D8*%
X120808337Y-127528055D03*
X124108337Y-127528055D03*
%TD*%
%TO.C,D14*%
X156808336Y-144528055D03*
X160108336Y-144528055D03*
%TD*%
%TO.C,D12*%
X138808335Y-108028054D03*
X142108335Y-108028054D03*
%TD*%
D12*
%TO.C,D2*%
X83722122Y-136623023D03*
X86990006Y-136163757D03*
%TD*%
D13*
%TO.C,D9*%
X120808337Y-110528054D03*
X124108337Y-110528054D03*
%TD*%
%TO.C,D18*%
X174808334Y-130028053D03*
X178108334Y-130028053D03*
%TD*%
D12*
%TO.C,D1*%
X86088064Y-153457583D03*
X89355948Y-152998317D03*
%TD*%
D13*
%TO.C,D19*%
X174808336Y-113028055D03*
X178108336Y-113028055D03*
%TD*%
%TO.C,D11*%
X138808333Y-125028055D03*
X142108333Y-125028055D03*
%TD*%
D14*
%TO.C,D6*%
X101182048Y-116957230D03*
X104474010Y-116727038D03*
%TD*%
D15*
%TO.C,D22*%
X193014134Y-156290005D03*
X195872018Y-157940005D03*
%TD*%
D13*
%TO.C,D17*%
X156808337Y-93528052D03*
X160108337Y-93528052D03*
%TD*%
%TO.C,D20*%
X174808334Y-96028060D03*
X178108334Y-96028060D03*
%TD*%
%TO.C,D10*%
X120808335Y-93528051D03*
X124108335Y-93528051D03*
%TD*%
D16*
%TO.C,D21*%
X175441050Y-148913596D03*
X178628606Y-149767696D03*
%TD*%
D13*
%TO.C,D15*%
X156808334Y-127528057D03*
X160108334Y-127528057D03*
%TD*%
D14*
%TO.C,D5*%
X102367907Y-133915816D03*
X105659869Y-133685624D03*
%TD*%
D12*
%TO.C,D4*%
X78990237Y-102953909D03*
X82258121Y-102494643D03*
%TD*%
D14*
%TO.C,D7*%
X99996187Y-99998643D03*
X103288149Y-99768451D03*
%TD*%
D13*
%TO.C,D13*%
X138808335Y-91028054D03*
X142108335Y-91028054D03*
%TD*%
%TO.C,D16*%
X156808337Y-110528052D03*
X160108337Y-110528052D03*
%TD*%
M02*
