M48
; DRILL file {KiCad 9.0.3} date 2025-07-27T13:01:34+0200
; FORMAT={-:-/ absolute / metric / decimal}
; #@! TF.CreationDate,2025-07-27T13:01:34+02:00
; #@! TF.GenerationSoftware,Kicad,Pcbnew,9.0.3
; #@! TF.FileFunction,NonPlated,1,2,NPTH
FMAT,2
METRIC
; #@! TA.AperFunction,NonPlated,NPTH,ComponentDrill
T1C0.900
; #@! TA.AperFunction,NonPlated,NPTH,ComponentDrill
T2C1.702
; #@! TA.AperFunction,NonPlated,NPTH,ComponentDrill
T3C3.000
; #@! TA.AperFunction,NonPlated,NPTH,ComponentDrill
T4C3.429
%
G90
G05
T1
X197.958Y-125.028
X200.958Y-125.028
T2
X74.482Y-98.538
X76.848Y-115.373
X79.214Y-132.208
X81.58Y-149.042
X85.375Y-97.007
X87.741Y-113.842
X90.107Y-130.677
X92.473Y-147.511
X95.807Y-95.279
X96.993Y-112.238
X98.179Y-129.197
X106.78Y-94.512
X107.966Y-111.471
X109.152Y-128.429
X116.958Y-105.528
X116.958Y-122.528
X116.958Y-88.528
X127.958Y-105.528
X127.958Y-122.528
X127.958Y-88.528
X134.958Y-120.028
X134.958Y-103.028
X134.958Y-86.028
X145.958Y-120.028
X145.958Y-103.028
X145.958Y-86.028
X152.958Y-105.528
X152.958Y-139.528
X152.958Y-122.528
X152.958Y-88.528
X163.958Y-105.528
X163.958Y-139.528
X163.958Y-122.528
X163.958Y-88.528
X170.958Y-125.028
X170.958Y-91.028
X170.958Y-108.028
X173.016Y-143.088
X181.958Y-125.028
X181.958Y-91.028
X181.958Y-108.028
X183.642Y-145.935
X192.18Y-150.035
X201.706Y-155.535
T3
X79.1Y-91.881
X81.466Y-108.715
X83.832Y-125.55
X84.358Y-93.364
X86.198Y-142.385
X86.724Y-110.198
X89.09Y-127.033
X91.456Y-143.867
X100.878Y-88.96
X102.064Y-105.919
X103.25Y-122.877
X106.02Y-90.806
X107.205Y-107.765
X108.391Y-124.723
X122.458Y-99.578
X122.458Y-116.578
X122.458Y-82.578
X127.458Y-101.778
X127.458Y-118.778
X127.458Y-84.778
X140.458Y-114.078
X140.458Y-97.078
X140.458Y-80.078
X145.458Y-116.278
X145.458Y-99.278
X145.458Y-82.278
X158.458Y-99.578
X158.458Y-133.578
X158.458Y-116.578
X158.458Y-82.578
X163.458Y-101.778
X163.458Y-135.778
X163.458Y-118.778
X163.458Y-84.778
X176.458Y-119.078
X176.458Y-85.078
X176.458Y-102.078
X179.869Y-138.764
X181.458Y-121.278
X181.458Y-87.278
X181.458Y-104.278
X184.129Y-142.183
X199.918Y-147.632
X203.148Y-152.037
T4
X79.928Y-97.773
X82.294Y-114.607
X84.66Y-131.442
X87.026Y-148.277
X101.293Y-94.896
X102.479Y-111.854
X103.665Y-128.813
X122.458Y-105.528
X122.458Y-122.528
X122.458Y-88.528
X140.458Y-120.028
X140.458Y-103.028
X140.458Y-86.028
X158.458Y-105.528
X158.458Y-139.528
X158.458Y-122.528
X158.458Y-88.528
X176.458Y-125.028
X176.458Y-91.028
X176.458Y-108.028
X178.329Y-144.511
X196.943Y-152.785
M30
