0
SECTION
2
HEADER
9
$INSUNITS
70
4
0
ENDSEC
0
SECTION
2
TABLES
0
TABLE
2
LTYPE
0
LTYPE
72
65
70
64
2
CONTINUOUS
3
______
73
0
40
0
0
ENDTAB
0
TABLE
2
LAYER
0
ENDTAB
0
ENDSEC
0
SECTION
2
ENTITIES
0
LINE
8
0
10
296.3747465
20
-149.869439
11
244.6192301
21
-166.5367302
0
LINE
8
0
10
241.1015468
20
-165.1811527
11
231.7149116
21
-148.9230236
0
LINE
8
0
10
231.3129878
20
-147.4230236
11
231.3129878
21
-84.8568112
0
LINE
8
0
10
233.9203001
20
-81.8826228
11
291.5615258
21
-74.2721432
0
LINE
8
0
10
291.9542135
20
-74.2463316
11
314.5496829
21
-74.2463316
0
LINE
8
0
10
314.9623881
20
-74.2748548
11
332.6433152
21
-76.7305391
0
LINE
8
0
10
332.8691876
20
-76.7707673
11
391.8112579
21
-89.6114009
0
LINE
8
0
10
394.1434845
20
-92.9601688
11
387.0837888
21
-143.192514
0
LINE
8
0
10
384.2491225
20
-145.7719043
11
297.1582157
21
-149.728107
0
ARC
8
0
10
243.699623
20
-163.6811527
40
3
50
210.0000001
51
287.8505785
0
ARC
8
0
10
234.3129878
20
-147.4230236
40
3
50
180
51
210.0000001
0
ARC
8
0
10
234.3129878
20
-84.8568112
40
3
50
97.5213661
51
180
0
ARC
8
0
10
291.9542135
20
-77.2463316
40
3
50
90
51
97.5213661
0
ARC
8
0
10
314.5496829
20
-77.2463316
40
3
50
82.0928359
51
90
0
ARC
8
0
10
332.23061
20
-79.7020159
40
3
50
77.7100387
51
82.0928359
0
ARC
8
0
10
391.1726803
20
-92.5426495
40
3
50
352.0000003
51
77.7100387
0
ARC
8
0
10
384.1129846
20
-142.7749948
40
3
50
272.6009356
51
352.0000003
0
ARC
8
0
10
297.2943536
20
-152.7250165
40
3
50
92.6009356
51
107.8505785
0
LINE
8
0
10
367.066961
20
-140.1173897
11
384.3966522
21
-142.552919
0
LINE
8
0
10
384.3966522
20
-142.552919
11
386.6930084
21
-126.2134959
0
LINE
8
0
10
386.6930084
20
-126.2134959
11
369.3633172
21
-123.7779666
0
LINE
8
0
10
369.3633172
20
-123.7779666
11
367.066961
21
-140.1173897
0
LINE
8
0
10
369.4329037
20
-123.2828325
11
386.7625949
21
-125.7183618
0
LINE
8
0
10
386.7625949
20
-125.7183618
11
389.0589511
21
-109.3789387
0
LINE
8
0
10
389.0589511
20
-109.3789387
11
371.7292599
21
-106.9434094
0
LINE
8
0
10
371.7292599
20
-106.9434094
11
369.4329037
21
-123.2828325
0
LINE
8
0
10
371.7988464
20
-106.4482753
11
389.1285376
21
-108.8838046
0
LINE
8
0
10
389.1285376
20
-108.8838046
11
391.4248938
21
-92.5443815
0
LINE
8
0
10
391.4248938
20
-92.5443815
11
374.0952026
21
-90.1088522
0
LINE
8
0
10
374.0952026
20
-90.1088522
11
371.7988464
21
-106.4482753
0
LINE
8
0
10
349.2421358
20
-137.6122739
11
366.571827
21
-140.0478032
0
LINE
8
0
10
366.571827
20
-140.0478032
11
368.8681832
21
-123.7083801
0
LINE
8
0
10
368.8681832
20
-123.7083801
11
351.538492
21
-121.2728508
0
LINE
8
0
10
351.538492
20
-121.2728508
11
349.2421358
21
-137.6122739
0
LINE
8
0
10
351.6080785
20
-120.7777167
11
368.9377697
21
-123.213246
0
LINE
8
0
10
368.9377697
20
-123.213246
11
371.2341259
21
-106.8738229
0
LINE
8
0
10
371.2341259
20
-106.8738229
11
353.9044347
21
-104.4382936
0
LINE
8
0
10
353.9044347
20
-104.4382936
11
351.6080785
21
-120.7777167
0
LINE
8
0
10
353.9740212
20
-103.9431595
11
371.3037124
21
-106.3786888
0
LINE
8
0
10
371.3037124
20
-106.3786888
11
373.6000686
21
-90.0392657
0
LINE
8
0
10
373.6000686
20
-90.0392657
11
356.2703774
21
-87.6037364
0
LINE
8
0
10
356.2703774
20
-87.6037364
11
353.9740212
21
-103.9431595
0
LINE
8
0
10
330.7460753
20
-135.6507138
11
348.2034461
21
-136.8714521
0
LINE
8
0
10
348.2034461
20
-136.8714521
11
349.3544279
21
-120.4116452
0
LINE
8
0
10
349.3544279
20
-120.4116452
11
331.8970571
21
-119.1909069
0
LINE
8
0
10
331.8970571
20
-119.1909069
11
330.7460753
21
-135.6507138
0
LINE
8
0
10
331.9319354
20
-118.6921249
11
349.3893062
21
-119.9128632
0
LINE
8
0
10
349.3893062
20
-119.9128632
11
350.540288
21
-103.4530563
0
LINE
8
0
10
350.540288
20
-103.4530563
11
333.0829172
21
-102.232318
0
LINE
8
0
10
333.0829172
20
-102.232318
11
331.9319354
21
-118.6921249
0
LINE
8
0
10
333.1177955
20
-101.733536
11
350.5751663
21
-102.9542743
0
LINE
8
0
10
350.5751663
20
-102.9542743
11
351.7261481
21
-86.4944674
0
LINE
8
0
10
351.7261481
20
-86.4944674
11
334.2687773
21
-85.2737291
0
LINE
8
0
10
334.2687773
20
-85.2737291
11
333.1177955
21
-101.733536
0
LINE
8
0
10
312.507021
20
-129.9963316
11
330.007021
21
-129.9963316
0
LINE
8
0
10
330.007021
20
-129.9963316
11
330.007021
21
-113.4963316
0
LINE
8
0
10
330.007021
20
-113.4963316
11
312.507021
21
-113.4963316
0
LINE
8
0
10
312.507021
20
-113.4963316
11
312.507021
21
-129.9963316
0
LINE
8
0
10
312.507021
20
-112.9963316
11
330.007021
21
-112.9963316
0
LINE
8
0
10
330.007021
20
-112.9963316
11
330.007021
21
-96.4963316
0
LINE
8
0
10
330.007021
20
-96.4963316
11
312.507021
21
-96.4963316
0
LINE
8
0
10
312.507021
20
-96.4963316
11
312.507021
21
-112.9963316
0
LINE
8
0
10
312.507021
20
-95.9963316
11
330.007021
21
-95.9963316
0
LINE
8
0
10
330.007021
20
-95.9963316
11
330.007021
21
-79.4963316
0
LINE
8
0
10
330.007021
20
-79.4963316
11
312.507021
21
-79.4963316
0
LINE
8
0
10
312.507021
20
-79.4963316
11
312.507021
21
-95.9963316
0
LINE
8
0
10
294.507021
20
-127.4963316
11
312.007021
21
-127.4963316
0
LINE
8
0
10
312.007021
20
-127.4963316
11
312.007021
21
-110.9963316
0
LINE
8
0
10
312.007021
20
-110.9963316
11
294.507021
21
-110.9963316
0
LINE
8
0
10
294.507021
20
-110.9963316
11
294.507021
21
-127.4963316
0
LINE
8
0
10
294.507021
20
-110.4963316
11
312.007021
21
-110.4963316
0
LINE
8
0
10
312.007021
20
-110.4963316
11
312.007021
21
-93.9963316
0
LINE
8
0
10
312.007021
20
-93.9963316
11
294.507021
21
-93.9963316
0
LINE
8
0
10
294.507021
20
-93.9963316
11
294.507021
21
-110.4963316
0
LINE
8
0
10
294.507021
20
-93.4963316
11
312.007021
21
-93.4963316
0
LINE
8
0
10
312.007021
20
-93.4963316
11
312.007021
21
-76.9963316
0
LINE
8
0
10
312.007021
20
-76.9963316
11
294.507021
21
-76.9963316
0
LINE
8
0
10
294.507021
20
-76.9963316
11
294.507021
21
-93.4963316
0
LINE
8
0
10
276.507021
20
-146.9963317
11
294.007021
21
-146.9963317
0
LINE
8
0
10
294.007021
20
-146.9963317
11
294.007021
21
-130.4963317
0
LINE
8
0
10
294.007021
20
-130.4963317
11
276.507021
21
-130.4963317
0
LINE
8
0
10
276.507021
20
-130.4963317
11
276.507021
21
-146.9963317
0
LINE
8
0
10
276.507021
20
-129.9963317
11
294.007021
21
-129.9963317
0
LINE
8
0
10
294.007021
20
-129.9963317
11
294.007021
21
-113.4963317
0
LINE
8
0
10
294.007021
20
-113.4963317
11
276.507021
21
-113.4963317
0
LINE
8
0
10
276.507021
20
-113.4963317
11
276.507021
21
-129.9963317
0
LINE
8
0
10
276.507021
20
-112.9963317
11
294.007021
21
-112.9963317
0
LINE
8
0
10
294.007021
20
-112.9963317
11
294.007021
21
-96.4963317
0
LINE
8
0
10
294.007021
20
-96.4963317
11
276.507021
21
-96.4963317
0
LINE
8
0
10
276.507021
20
-96.4963317
11
276.507021
21
-112.9963317
0
LINE
8
0
10
276.507021
20
-95.9963317
11
294.007021
21
-95.9963317
0
LINE
8
0
10
294.007021
20
-95.9963317
11
294.007021
21
-79.4963317
0
LINE
8
0
10
294.007021
20
-79.4963317
11
276.507021
21
-79.4963317
0
LINE
8
0
10
276.507021
20
-79.4963317
11
276.507021
21
-95.9963317
0
LINE
8
0
10
258.507021
20
-132.4963316
11
276.007021
21
-132.4963316
0
LINE
8
0
10
276.007021
20
-132.4963316
11
276.007021
21
-115.9963316
0
LINE
8
0
10
276.007021
20
-115.9963316
11
258.507021
21
-115.9963316
0
LINE
8
0
10
258.507021
20
-115.9963316
11
258.507021
21
-132.4963316
0
LINE
8
0
10
258.507021
20
-115.4963316
11
276.007021
21
-115.4963316
0
LINE
8
0
10
276.007021
20
-115.4963316
11
276.007021
21
-98.9963316
0
LINE
8
0
10
276.007021
20
-98.9963316
11
258.507021
21
-98.9963316
0
LINE
8
0
10
258.507021
20
-98.9963316
11
258.507021
21
-115.4963316
0
LINE
8
0
10
258.507021
20
-98.4963316
11
276.007021
21
-98.4963316
0
LINE
8
0
10
276.007021
20
-98.4963316
11
276.007021
21
-81.9963316
0
LINE
8
0
10
276.007021
20
-81.9963316
11
258.507021
21
-81.9963316
0
LINE
8
0
10
258.507021
20
-81.9963316
11
258.507021
21
-98.4963316
0
LINE
8
0
10
259.0698366
20
-153.9628492
11
275.9735386
21
-149.4335159
0
LINE
8
0
10
275.9735386
20
-149.4335159
11
271.7030244
21
-133.4957398
0
LINE
8
0
10
271.7030244
20
-133.4957398
11
254.7993224
21
-138.0250731
0
LINE
8
0
10
254.7993224
20
-138.0250731
11
259.0698366
21
-153.9628492
0
LINE
8
0
10
243.3195576
20
-163.5228602
11
258.4750022
21
-154.7728602
0
LINE
8
0
10
258.4750022
20
-154.7728602
11
250.2250022
21
-140.483441
0
LINE
8
0
10
250.2250022
20
-140.483441
11
235.0695576
21
-149.233441
0
LINE
8
0
10
235.0695576
20
-149.233441
11
243.3195576
21
-163.5228602
0
ENDSEC
0
EOF