0
SECTION
2
HEADER
9
$INSUNITS
70
4
0
ENDSEC
0
SECTION
2
TABLES
0
TABLE
2
LTYPE
0
LTYPE
72
65
70
64
2
CONTINUOUS
3
______
73
0
40
0
0
ENDTAB
0
TABLE
2
LAYER
0
ENDTAB
0
ENDSEC
0
SECTION
2
ENTITIES
0
LINE
8
0
10
80.0953839
20
-157.1647207
11
97.9202092
21
-154.6596049
0
LINE
8
0
10
88.4564384
20
-87.3213761
11
97.9202092
21
-154.6596049
0
LINE
8
0
10
70.6316131
20
-89.8264919
11
80.0953839
21
-157.1647207
0
LINE
8
0
10
88.4564384
20
-87.3213761
11
70.6316131
21
-89.8264919
0
LINE
8
0
10
96.078644
20
-137.1382822
11
114.0347969
21
-135.8826657
0
LINE
8
0
10
110.4772166
20
-85.006899
11
114.0347969
21
-135.8826657
0
LINE
8
0
10
92.5210637
20
-86.2625155
11
96.078644
21
-137.1382822
0
LINE
8
0
10
110.4772166
20
-85.006899
11
92.5210637
21
-86.2625155
0
LINE
8
0
10
114.257021
20
-130.2463316
11
132.257021
21
-130.2463316
0
LINE
8
0
10
132.257021
20
-130.2463316
11
132.257021
21
-127.7463316
0
LINE
8
0
10
114.257021
20
-130.2463316
11
114.257021
21
-79.2463316
0
LINE
8
0
10
132.257021
20
-79.2463316
11
114.257021
21
-79.2463316
0
LINE
8
0
10
132.257021
20
-127.7463316
11
150.257021
21
-127.7463316
0
LINE
8
0
10
150.257021
20
-79.2463317
11
150.257021
21
-76.7463316
0
LINE
8
0
10
150.257021
20
-76.7463316
11
132.257021
21
-76.7463316
0
LINE
8
0
10
132.257021
20
-76.7463316
11
132.257021
21
-79.2463316
0
LINE
8
0
10
150.257021
20
-147.2463317
11
168.257021
21
-147.2463317
0
LINE
8
0
10
168.257021
20
-147.2463317
11
168.257021
21
-132.7463316
0
LINE
8
0
10
150.257021
20
-147.2463317
11
150.257021
21
-127.7463316
0
LINE
8
0
10
168.257021
20
-81.7463316
11
168.257021
21
-79.2463317
0
LINE
8
0
10
168.257021
20
-79.2463317
11
150.257021
21
-79.2463317
0
LINE
8
0
10
168.257021
20
-132.7463316
11
186.257021
21
-132.7463316
0
LINE
8
0
10
186.257021
20
-132.7463316
11
186.257021
21
-81.7463316
0
LINE
8
0
10
186.257021
20
-81.7463316
11
168.257021
21
-81.7463316
0
LINE
8
0
10
168.2343172
20
-149.6102926
11
185.6209821
21
-154.2690354
0
LINE
8
0
10
185.6209821
20
-154.2690354
11
190.0209058
21
-137.8482964
0
LINE
8
0
10
190.0209058
20
-137.8482964
11
172.6342409
21
-133.1895536
0
LINE
8
0
10
172.6342409
20
-133.1895536
11
168.2343172
21
-149.6102926
0
LINE
8
0
10
185.6975335
20
-154.8643665
11
201.2859907
21
-163.8643665
0
LINE
8
0
10
201.2859907
20
-163.8643665
11
209.7859907
21
-149.1419347
0
LINE
8
0
10
209.7859907
20
-149.1419347
11
194.1975335
21
-140.1419347
0
LINE
8
0
10
194.1975335
20
-140.1419347
11
185.6975335
21
-154.8643665
0
LINE
8
0
10
348.9597755
20
-137.8250477
11
384.609426
21
-142.8352793
0
LINE
8
0
10
384.609426
20
-142.8352793
11
391.7072541
21
-92.3316077
0
LINE
8
0
10
356.0576036
20
-87.3213761
11
391.7072541
21
-92.3316077
0
LINE
8
0
10
348.9597755
20
-137.8250477
11
356.0576036
21
-87.3213761
0
LINE
8
0
10
330.4792451
20
-135.8826657
11
348.435398
21
-137.1382822
0
LINE
8
0
10
348.435398
20
-137.1382822
11
351.9929783
21
-86.2625155
0
LINE
8
0
10
330.4792451
20
-135.8826657
11
334.0368254
21
-85.006899
0
LINE
8
0
10
351.9929783
20
-86.2625155
11
334.0368254
21
-85.006899
0
LINE
8
0
10
312.257021
20
-130.2463316
11
330.257021
21
-130.2463316
0
LINE
8
0
10
330.257021
20
-130.2463316
11
330.257021
21
-79.2463316
0
LINE
8
0
10
312.257021
20
-127.7463316
11
312.257021
21
-130.2463316
0
LINE
8
0
10
330.257021
20
-79.2463316
11
312.257021
21
-79.2463316
0
LINE
8
0
10
294.257021
20
-127.7463316
11
312.257021
21
-127.7463316
0
LINE
8
0
10
312.257021
20
-79.2463316
11
312.257021
21
-76.7463316
0
LINE
8
0
10
312.257021
20
-76.7463316
11
294.257021
21
-76.7463316
0
LINE
8
0
10
294.257021
20
-76.7463316
11
294.257021
21
-79.2463317
0
LINE
8
0
10
276.257021
20
-147.2463317
11
294.257021
21
-147.2463317
0
LINE
8
0
10
294.257021
20
-147.2463317
11
294.257021
21
-127.7463316
0
LINE
8
0
10
276.257021
20
-132.7463316
11
276.257021
21
-147.2463317
0
LINE
8
0
10
294.257021
20
-79.2463317
11
276.257021
21
-79.2463317
0
LINE
8
0
10
276.257021
20
-79.2463317
11
276.257021
21
-81.7463316
0
LINE
8
0
10
258.257021
20
-132.7463316
11
276.257021
21
-132.7463316
0
LINE
8
0
10
258.257021
20
-132.7463316
11
258.257021
21
-81.7463316
0
LINE
8
0
10
276.257021
20
-81.7463316
11
258.257021
21
-81.7463316
0
LINE
8
0
10
258.8930599
20
-154.2690354
11
276.2797248
21
-149.6102926
0
LINE
8
0
10
276.2797248
20
-149.6102926
11
271.8798011
21
-133.1895536
0
LINE
8
0
10
271.8798011
20
-133.1895536
11
254.4931362
21
-137.8482964
0
LINE
8
0
10
254.4931362
20
-137.8482964
11
258.8930599
21
-154.2690354
0
LINE
8
0
10
243.2280513
20
-163.8643665
11
258.8165085
21
-154.8643665
0
LINE
8
0
10
258.8165085
20
-154.8643665
11
250.3165085
21
-140.1419347
0
LINE
8
0
10
250.3165085
20
-140.1419347
11
234.7280513
21
-149.1419347
0
LINE
8
0
10
234.7280513
20
-149.1419347
11
243.2280513
21
-163.8643665
0
ENDSEC
0
EOF