%TF.GenerationSoftware,KiCad,Pcbnew,9.0.3*%
%TF.CreationDate,2025-07-25T16:12:42+02:00*%
%TF.ProjectId,right_pcb,72696768-745f-4706-9362-2e6b69636164,v1.0.0*%
%TF.SameCoordinates,Original*%
%TF.FileFunction,Paste,Top*%
%TF.FilePolarity,Positive*%
%FSLAX46Y46*%
G04 Gerber Fmt 4.6, Leading zero omitted, Abs format (unit mm)*
G04 Created by KiCad (PCBNEW 9.0.3) date 2025-07-25 16:12:42*
%MOMM*%
%LPD*%
G01*
G04 APERTURE LIST*
G04 Aperture macros list*
%AMRotRect*
0 Rectangle, with rotation*
0 The origin of the aperture is its center*
0 $1 length*
0 $2 width*
0 $3 Rotation angle, in degrees counterclockwise*
0 Add horizontal line*
21,1,$1,$2,0,0,$3*%
G04 Aperture macros list end*
%ADD10R,0.900000X0.900000*%
%ADD11R,0.900000X1.250000*%
%ADD12RotRect,0.900000X1.200000X352.000000*%
%ADD13R,0.900000X1.200000*%
%ADD14RotRect,0.900000X1.200000X356.000000*%
%ADD15RotRect,0.900000X1.200000X30.000000*%
%ADD16RotRect,0.900000X1.200000X15.000000*%
G04 APERTURE END LIST*
D10*
%TO.C,T1*%
X251043768Y-125629028D03*
X251043768Y-123429022D03*
X243643768Y-125629028D03*
X243643768Y-123429022D03*
D11*
X245093768Y-122454025D03*
X248093768Y-122454025D03*
X249593766Y-122454024D03*
%TD*%
D12*
%TO.C,D6*%
X364543981Y-101995628D03*
X367811865Y-102454892D03*
%TD*%
D13*
%TO.C,D14*%
X304693767Y-107529032D03*
X307993767Y-107529032D03*
%TD*%
%TO.C,D21*%
X268693768Y-112529031D03*
X271993768Y-112529031D03*
%TD*%
%TO.C,D22*%
X268693762Y-95529030D03*
X271993762Y-95529030D03*
%TD*%
%TO.C,D11*%
X322693767Y-110029035D03*
X325993767Y-110029035D03*
%TD*%
%TO.C,D20*%
X268693768Y-129529040D03*
X271993768Y-129529040D03*
%TD*%
D14*
%TO.C,D7*%
X341142240Y-133186610D03*
X344434202Y-133416800D03*
%TD*%
D13*
%TO.C,D19*%
X286693770Y-93029037D03*
X289993770Y-93029037D03*
%TD*%
D14*
%TO.C,D8*%
X342328093Y-116228021D03*
X345620055Y-116458211D03*
%TD*%
D12*
%TO.C,D1*%
X377636918Y-138169862D03*
X380904802Y-138629126D03*
%TD*%
D13*
%TO.C,D13*%
X304693773Y-124529030D03*
X307993773Y-124529030D03*
%TD*%
D12*
%TO.C,D3*%
X382368808Y-104500737D03*
X385636692Y-104960001D03*
%TD*%
D15*
%TO.C,D24*%
X250930082Y-157440973D03*
X253787966Y-155790973D03*
%TD*%
D13*
%TO.C,D18*%
X286693774Y-110029033D03*
X289993774Y-110029033D03*
%TD*%
D12*
%TO.C,D5*%
X362178048Y-118830176D03*
X365445932Y-119289440D03*
%TD*%
D13*
%TO.C,D15*%
X304693768Y-90529035D03*
X307993768Y-90529035D03*
%TD*%
D14*
%TO.C,D9*%
X343513958Y-99269431D03*
X346805920Y-99499621D03*
%TD*%
D13*
%TO.C,D17*%
X286693766Y-127029034D03*
X289993766Y-127029034D03*
%TD*%
D12*
%TO.C,D2*%
X380002859Y-121335301D03*
X383270743Y-121794565D03*
%TD*%
%TO.C,D4*%
X359812102Y-135664739D03*
X363079986Y-136124003D03*
%TD*%
D13*
%TO.C,D12*%
X322693765Y-93029039D03*
X325993765Y-93029039D03*
%TD*%
%TO.C,D10*%
X322693772Y-127029044D03*
X325993772Y-127029044D03*
%TD*%
D16*
%TO.C,D23*%
X268173491Y-149268670D03*
X271361047Y-148414570D03*
%TD*%
D13*
%TO.C,D16*%
X286693763Y-144029030D03*
X289993763Y-144029030D03*
%TD*%
M02*
