M48
; DRILL file {KiCad 9.0.3} date 2025-07-27T13:02:22+0200
; FORMAT={-:-/ absolute / metric / decimal}
; #@! TF.CreationDate,2025-07-27T13:02:22+02:00
; #@! TF.GenerationSoftware,Kicad,Pcbnew,9.0.3
; #@! TF.FileFunction,Plated,1,2,PTH
FMAT,2
METRIC
; #@! TA.AperFunction,Plated,PTH,ComponentDrill
T1C0.400
; #@! TA.AperFunction,Plated,PTH,ComponentDrill
T2C0.750
; #@! TA.AperFunction,Plated,PTH,ComponentDrill
T3C0.991
; #@! TA.AperFunction,Plated,PTH,ComponentDrill
T4C1.092
; #@! TA.AperFunction,Plated,PTH,ComponentDrill
T5C2.200
%
G90
G05
T1
X258.609Y-151.776
X258.774Y-153.028
X259.378Y-150.774
X259.694Y-95.629
X259.776Y-153.796
X260.177Y-94.462
X260.177Y-96.796
X260.63Y-150.609
X261.028Y-153.632
X261.344Y-93.979
X261.344Y-97.279
X261.632Y-151.378
X261.797Y-152.63
X262.51Y-94.462
X262.51Y-96.796
X262.994Y-95.629
X295.694Y-108.479
X296.177Y-107.312
X296.177Y-109.646
X297.344Y-106.829
X297.344Y-110.129
X298.51Y-107.312
X298.51Y-109.646
X298.994Y-108.479
X368.711Y-137.016
X369.027Y-138.239
X369.352Y-135.928
X370.115Y-138.88
X370.574Y-135.612
X371.338Y-138.564
X371.662Y-136.253
X371.978Y-137.476
X373.442Y-103.347
X373.759Y-104.57
X374.083Y-102.259
X374.847Y-105.211
X375.306Y-101.943
X376.069Y-104.895
X376.394Y-102.584
X376.71Y-103.806
T2
X247.344Y-87.529
X247.344Y-85.529
T3
X249.059Y-158.521
X255.659Y-154.711
X266.087Y-149.828
X266.534Y-95.529
X266.534Y-112.529
X266.534Y-129.529
X273.447Y-147.856
X274.154Y-95.529
X274.154Y-112.529
X274.154Y-129.529
X284.534Y-144.029
X284.534Y-127.029
X284.534Y-93.029
X284.534Y-110.029
X292.154Y-144.029
X292.154Y-127.029
X292.154Y-93.029
X292.154Y-110.029
X302.534Y-107.529
X302.534Y-90.529
X302.534Y-124.529
X310.154Y-107.529
X310.154Y-90.529
X310.154Y-124.529
X320.534Y-93.029
X320.534Y-110.029
X320.534Y-127.029
X328.154Y-93.029
X328.154Y-110.029
X328.154Y-127.029
X338.988Y-133.036
X340.173Y-116.077
X341.359Y-99.119
X346.589Y-133.567
X347.775Y-116.609
X348.961Y-99.65
X357.673Y-135.364
X360.039Y-118.53
X362.405Y-101.695
X365.219Y-136.425
X367.585Y-119.59
X369.951Y-102.756
X375.498Y-137.869
X377.864Y-121.035
X380.23Y-104.2
X383.044Y-138.93
X385.41Y-122.095
X387.776Y-105.261
T4
X239.724Y-116.959
X239.724Y-94.099
X239.724Y-91.559
X239.724Y-96.639
X239.724Y-99.179
X239.724Y-101.719
X239.724Y-104.259
X239.724Y-106.799
X239.724Y-109.339
X239.724Y-111.879
X239.724Y-114.419
X239.724Y-119.499
X242.264Y-114.419
X244.804Y-114.419
X247.344Y-114.419
X254.964Y-91.559
X254.964Y-96.639
X254.964Y-99.179
X254.964Y-101.719
X254.964Y-104.259
X254.964Y-106.799
X254.964Y-109.339
X254.964Y-111.879
X254.964Y-114.419
X254.964Y-119.499
X254.964Y-116.959
X254.964Y-94.099
T5
X260.203Y-152.203
X261.344Y-95.629
X297.344Y-108.479
X370.345Y-137.246
X375.076Y-103.577
M30
