M48
; DRILL file {KiCad 9.0.3} date 2025-07-27T13:02:22+0200
; FORMAT={-:-/ absolute / metric / decimal}
; #@! TF.CreationDate,2025-07-27T13:02:22+02:00
; #@! TF.GenerationSoftware,Kicad,Pcbnew,9.0.3
; #@! TF.FileFunction,NonPlated,1,2,NPTH
FMAT,2
METRIC
; #@! TA.AperFunction,NonPlated,NPTH,ComponentDrill
T1C0.900
; #@! TA.AperFunction,NonPlated,NPTH,ComponentDrill
T2C1.702
; #@! TA.AperFunction,NonPlated,NPTH,ComponentDrill
T3C3.000
; #@! TA.AperFunction,NonPlated,NPTH,ComponentDrill
T4C3.429
%
G90
G05
T1
X245.844Y-124.529
X248.844Y-124.529
T2
X245.096Y-155.036
X254.622Y-149.536
X263.161Y-145.436
X264.844Y-124.529
X264.844Y-107.529
X264.844Y-90.529
X273.786Y-142.588
X275.844Y-124.529
X275.844Y-107.529
X275.844Y-90.529
X282.844Y-88.029
X282.844Y-139.029
X282.844Y-105.029
X282.844Y-122.029
X293.844Y-88.029
X293.844Y-139.029
X293.844Y-105.029
X293.844Y-122.029
X300.844Y-102.529
X300.844Y-119.529
X300.844Y-85.529
X311.844Y-102.529
X311.844Y-119.529
X311.844Y-85.529
X318.844Y-122.029
X318.844Y-88.029
X318.844Y-105.029
X329.844Y-122.029
X329.844Y-88.029
X329.844Y-105.029
X337.65Y-127.93
X338.836Y-110.972
X340.022Y-94.013
X348.624Y-128.698
X349.809Y-111.739
X350.995Y-94.78
X356.695Y-130.178
X359.061Y-113.343
X361.427Y-96.508
X367.588Y-131.708
X369.954Y-114.874
X372.32Y-98.039
X374.52Y-132.683
X376.886Y-115.848
X379.252Y-99.014
X385.413Y-134.214
X387.779Y-117.379
X390.145Y-100.544
T3
X246.884Y-147.133
X252.314Y-146.538
X266.933Y-138.265
X270.344Y-118.579
X270.344Y-101.579
X270.344Y-84.579
X272.332Y-139.096
X275.344Y-120.779
X275.344Y-103.779
X275.344Y-86.779
X288.344Y-82.079
X288.344Y-133.079
X288.344Y-99.079
X288.344Y-116.079
X293.344Y-84.279
X293.344Y-135.279
X293.344Y-101.279
X293.344Y-118.279
X306.344Y-96.579
X306.344Y-113.579
X306.344Y-79.579
X311.344Y-98.779
X311.344Y-115.779
X311.344Y-81.779
X324.344Y-116.079
X324.344Y-82.079
X324.344Y-99.079
X329.344Y-118.279
X329.344Y-84.279
X329.344Y-101.279
X343.552Y-122.378
X344.738Y-105.42
X345.924Y-88.461
X348.386Y-124.922
X349.572Y-107.963
X350.758Y-91.005
X362.97Y-125.051
X365.336Y-108.216
X367.615Y-127.925
X367.702Y-91.382
X369.981Y-111.091
X372.347Y-94.256
X380.795Y-127.556
X383.161Y-110.721
X385.44Y-130.431
X385.527Y-93.887
X387.806Y-113.596
X390.172Y-96.761
T4
X249.859Y-152.286
X268.473Y-144.012
X270.344Y-124.529
X270.344Y-107.529
X270.344Y-90.529
X288.344Y-88.029
X288.344Y-139.029
X288.344Y-105.029
X288.344Y-122.029
X306.344Y-102.529
X306.344Y-119.529
X306.344Y-85.529
X324.344Y-122.029
X324.344Y-88.029
X324.344Y-105.029
X343.137Y-128.314
X344.323Y-111.355
X345.509Y-94.397
X362.142Y-130.943
X364.508Y-114.108
X366.874Y-97.274
X379.967Y-133.448
X382.333Y-116.614
X384.699Y-99.779
M30
