%TF.GenerationSoftware,KiCad,Pcbnew,9.0.3*%
%TF.CreationDate,2025-07-25T16:03:50+02:00*%
%TF.ProjectId,left_pcb,6c656674-5f70-4636-922e-6b696361645f,v1.0.0*%
%TF.SameCoordinates,Original*%
%TF.FileFunction,Soldermask,Top*%
%TF.FilePolarity,Negative*%
%FSLAX46Y46*%
G04 Gerber Fmt 4.6, Leading zero omitted, Abs format (unit mm)*
G04 Created by KiCad (PCBNEW 9.0.3) date 2025-07-25 16:03:50*
%MOMM*%
%LPD*%
G01*
G04 APERTURE LIST*
G04 Aperture macros list*
%AMRoundRect*
0 Rectangle with rounded corners*
0 $1 Rounding radius*
0 $2 $3 $4 $5 $6 $7 $8 $9 X,Y pos of 4 corners*
0 Add a 4 corners polygon primitive as box body*
4,1,4,$2,$3,$4,$5,$6,$7,$8,$9,$2,$3,0*
0 Add four circle primitives for the rounded corners*
1,1,$1+$1,$2,$3*
1,1,$1+$1,$4,$5*
1,1,$1+$1,$6,$7*
1,1,$1+$1,$8,$9*
0 Add four rect primitives between the rounded corners*
20,1,$1+$1,$2,$3,$4,$5,0*
20,1,$1+$1,$4,$5,$6,$7,0*
20,1,$1+$1,$6,$7,$8,$9,0*
20,1,$1+$1,$8,$9,$2,$3,0*%
G04 Aperture macros list end*
%ADD10RoundRect,0.050000X0.450000X0.450000X-0.450000X0.450000X-0.450000X-0.450000X0.450000X-0.450000X0*%
%ADD11C,1.100000*%
%ADD12RoundRect,0.050000X0.450000X0.625000X-0.450000X0.625000X-0.450000X-0.625000X0.450000X-0.625000X0*%
%ADD13RoundRect,0.050000X-0.756623X-1.004073X1.004073X-0.756623X0.756623X1.004073X-1.004073X0.756623X0*%
%ADD14RoundRect,0.050000X-0.362117X-0.656789X0.529124X-0.531533X0.362117X0.656789X-0.529124X0.531533X0*%
%ADD15C,2.005000*%
%ADD16C,1.801800*%
%ADD17C,3.100000*%
%ADD18C,3.529000*%
%ADD19RoundRect,0.050000X-0.889000X-0.889000X0.889000X-0.889000X0.889000X0.889000X-0.889000X0.889000X0*%
%ADD20RoundRect,0.050000X-0.450000X-0.600000X0.450000X-0.600000X0.450000X0.600000X-0.450000X0.600000X0*%
%ADD21C,0.800000*%
%ADD22C,4.500000*%
%ADD23RoundRect,0.050000X-0.850000X0.600000X-0.850000X-0.600000X0.850000X-0.600000X0.850000X0.600000X0*%
%ADD24O,1.800000X1.300000*%
%ADD25RoundRect,0.050000X-0.824821X-0.948848X0.948848X-0.824821X0.824821X0.948848X-0.948848X0.824821X0*%
%ADD26RoundRect,0.050000X-0.407050X-0.629929X0.490758X-0.567148X0.407050X0.629929X-0.490758X0.567148X0*%
%ADD27RoundRect,0.050000X-1.214397X-0.325397X0.325397X-1.214397X1.214397X0.325397X-0.325397X1.214397X0*%
%ADD28RoundRect,0.050000X-0.689711X-0.294615X0.089711X-0.744615X0.689711X0.294615X-0.089711X0.744615X0*%
%ADD29C,1.852600*%
%ADD30RoundRect,0.050000X-1.088798X-0.628618X0.628618X-1.088798X1.088798X0.628618X-0.628618X1.088798X0*%
%ADD31RoundRect,0.050000X-0.589958X-0.463087X0.279375X-0.696024X0.589958X0.463087X-0.279375X0.696024X0*%
G04 APERTURE END LIST*
D10*
%TO.C,T1*%
X203158336Y-126128054D03*
X203158336Y-123928051D03*
D11*
X200958333Y-125028053D03*
X197958339Y-125028055D03*
D10*
X195758336Y-126128057D03*
X195758336Y-123928054D03*
D12*
X197208336Y-122953054D03*
X200208334Y-122953055D03*
X201708336Y-122953054D03*
%TD*%
D13*
%TO.C,D3*%
X79217200Y-120089082D03*
D14*
X81356179Y-119788464D03*
X84624063Y-119329198D03*
D15*
X86763042Y-119028580D03*
%TD*%
D16*
%TO.C,S9*%
X116958333Y-105528058D03*
D17*
X122458333Y-99578058D03*
D18*
X122458333Y-105528058D03*
D17*
X127458332Y-101778056D03*
D16*
X127958333Y-105528058D03*
%TD*%
D19*
%TO.C,D8*%
X118648337Y-127528055D03*
D20*
X120808337Y-127528055D03*
X124108337Y-127528055D03*
D15*
X126268337Y-127528055D03*
%TD*%
D19*
%TO.C,D14*%
X154648336Y-144528055D03*
D20*
X156808336Y-144528055D03*
X160108336Y-144528055D03*
D15*
X162268336Y-144528055D03*
%TD*%
D19*
%TO.C,D12*%
X136648335Y-108028054D03*
D20*
X138808335Y-108028054D03*
X142108335Y-108028054D03*
D15*
X144268335Y-108028054D03*
%TD*%
D16*
%TO.C,S17*%
X152958339Y-88528055D03*
D17*
X158458339Y-82578055D03*
D18*
X158458339Y-88528055D03*
D17*
X163458338Y-84778053D03*
D16*
X163958339Y-88528055D03*
%TD*%
%TO.C,S22*%
X192179936Y-150034878D03*
D17*
X199918076Y-147632027D03*
D18*
X196943076Y-152784878D03*
D17*
X203148203Y-152037281D03*
D16*
X201706216Y-155534878D03*
%TD*%
D13*
%TO.C,D2*%
X81583143Y-136923641D03*
D14*
X83722122Y-136623023D03*
X86990006Y-136163757D03*
D15*
X89128985Y-135863139D03*
%TD*%
D16*
%TO.C,S13*%
X134958337Y-86028056D03*
D17*
X140458337Y-80078056D03*
D18*
X140458337Y-86028056D03*
D17*
X145458336Y-82278054D03*
D16*
X145958337Y-86028056D03*
%TD*%
D19*
%TO.C,D9*%
X118648337Y-110528054D03*
D20*
X120808337Y-110528054D03*
X124108337Y-110528054D03*
D15*
X126268337Y-110528054D03*
%TD*%
D16*
%TO.C,S20*%
X170958336Y-91028054D03*
D17*
X176458336Y-85078054D03*
D18*
X176458336Y-91028054D03*
D17*
X181458335Y-87278052D03*
D16*
X181958336Y-91028054D03*
%TD*%
D21*
%TO.C,_4*%
X95014391Y-152304046D03*
X95330585Y-151081418D03*
X95655338Y-153392161D03*
X96877966Y-153708355D03*
D22*
X96648333Y-152074413D03*
D21*
X96418700Y-150440471D03*
X97641328Y-150756665D03*
X97966081Y-153067408D03*
X98282275Y-151844780D03*
%TD*%
D19*
%TO.C,D18*%
X172648334Y-130028053D03*
D20*
X174808334Y-130028053D03*
X178108334Y-130028053D03*
D15*
X180268334Y-130028053D03*
%TD*%
D23*
%TO.C,JST1*%
X199458334Y-86028062D03*
D24*
X199458340Y-88028052D03*
%TD*%
D13*
%TO.C,D1*%
X83949085Y-153758201D03*
D14*
X86088064Y-153457583D03*
X89355948Y-152998317D03*
D15*
X91494927Y-152697699D03*
%TD*%
D19*
%TO.C,D19*%
X172648336Y-113028055D03*
D20*
X174808336Y-113028055D03*
X178108336Y-113028055D03*
D15*
X180268336Y-113028055D03*
%TD*%
D16*
%TO.C,S10*%
X116958336Y-88528057D03*
D17*
X122458336Y-82578057D03*
D18*
X122458336Y-88528057D03*
D17*
X127458335Y-84778055D03*
D16*
X127958336Y-88528057D03*
%TD*%
D19*
%TO.C,D11*%
X136648333Y-125028055D03*
D20*
X138808333Y-125028055D03*
X142108333Y-125028055D03*
D15*
X144268333Y-125028055D03*
%TD*%
D25*
%TO.C,D6*%
X99027310Y-117107906D03*
D26*
X101182048Y-116957230D03*
X104474010Y-116727038D03*
D15*
X106628748Y-116576362D03*
%TD*%
D16*
%TO.C,S14*%
X152958332Y-139528053D03*
D17*
X158458332Y-133578053D03*
D18*
X158458332Y-139528053D03*
D17*
X163458331Y-135778051D03*
D16*
X163958332Y-139528053D03*
%TD*%
D27*
%TO.C,D22*%
X191143519Y-155210005D03*
D28*
X193014134Y-156290005D03*
X195872018Y-157940005D03*
D15*
X197742633Y-159020005D03*
%TD*%
D19*
%TO.C,D17*%
X154648337Y-93528052D03*
D20*
X156808337Y-93528052D03*
X160108337Y-93528052D03*
D15*
X162268337Y-93528052D03*
%TD*%
D19*
%TO.C,D20*%
X172648334Y-96028060D03*
D20*
X174808334Y-96028060D03*
X178108334Y-96028060D03*
D15*
X180268334Y-96028060D03*
%TD*%
D16*
%TO.C,S7*%
X95806784Y-95279388D03*
D17*
X100878335Y-88960221D03*
D18*
X101293386Y-94895727D03*
D17*
X106019619Y-90806079D03*
D16*
X106779988Y-94512066D03*
%TD*%
D29*
%TO.C,MCU1*%
X191838332Y-92058056D03*
X191838330Y-94598057D03*
X191838332Y-97138056D03*
X191838332Y-99678056D03*
X191838332Y-102218056D03*
X191838332Y-104758056D03*
X191838332Y-107298056D03*
X191838332Y-109838056D03*
X191838332Y-112378056D03*
X191838332Y-114918056D03*
X191838331Y-117458059D03*
X191838332Y-119998056D03*
X207078332Y-119998056D03*
X207078334Y-117458055D03*
X207078332Y-114918056D03*
X207078332Y-112378056D03*
X207078332Y-109838056D03*
X207078332Y-107298056D03*
X207078332Y-104758056D03*
X207078332Y-102218056D03*
X207078332Y-99678056D03*
X207078332Y-97138056D03*
X207078333Y-94598053D03*
X207078332Y-92058056D03*
X194378332Y-114918056D03*
X196918332Y-114918056D03*
X199458332Y-114918056D03*
%TD*%
D21*
%TO.C,_3*%
X147808335Y-108978058D03*
X148291609Y-107811332D03*
X148291609Y-110144784D03*
X149458335Y-107328058D03*
D22*
X149458335Y-108978058D03*
D21*
X149458335Y-110628058D03*
X150625061Y-107811332D03*
X150625061Y-110144784D03*
X151108335Y-108978058D03*
%TD*%
D16*
%TO.C,S2*%
X79213719Y-132207505D03*
D17*
X83832113Y-125549958D03*
D18*
X84660193Y-131442053D03*
D17*
X89089635Y-127032683D03*
D16*
X90106667Y-130676601D03*
%TD*%
D21*
%TO.C,_2*%
X183808336Y-96128055D03*
X184291610Y-94961329D03*
X184291610Y-97294781D03*
X185458336Y-94478055D03*
D22*
X185458336Y-96128055D03*
D21*
X185458336Y-97778055D03*
X186625062Y-94961329D03*
X186625062Y-97294781D03*
X187108336Y-96128055D03*
%TD*%
%TO.C,_5*%
X185169906Y-151876605D03*
X186171797Y-151107828D03*
X185005071Y-153128656D03*
X187423848Y-151272663D03*
D22*
X186598848Y-152701605D03*
D21*
X185773848Y-154130547D03*
X188192625Y-152274554D03*
X187025899Y-154295382D03*
X188027790Y-153526605D03*
%TD*%
D19*
%TO.C,D10*%
X118648335Y-93528051D03*
D20*
X120808335Y-93528051D03*
X124108335Y-93528051D03*
D15*
X126268335Y-93528051D03*
%TD*%
D30*
%TO.C,D21*%
X173354651Y-148354544D03*
D31*
X175441050Y-148913596D03*
X178628606Y-149767696D03*
D15*
X180715005Y-150326748D03*
%TD*%
D19*
%TO.C,D15*%
X154648334Y-127528057D03*
D20*
X156808334Y-127528057D03*
X160108334Y-127528057D03*
D15*
X162268334Y-127528057D03*
%TD*%
D16*
%TO.C,S12*%
X134958335Y-103028049D03*
D17*
X140458335Y-97078049D03*
D18*
X140458335Y-103028049D03*
D17*
X145458334Y-99278047D03*
D16*
X145958335Y-103028049D03*
%TD*%
%TO.C,S16*%
X152958332Y-105528056D03*
D17*
X158458332Y-99578056D03*
D18*
X158458332Y-105528056D03*
D17*
X163458331Y-101778054D03*
D16*
X163958332Y-105528056D03*
%TD*%
%TO.C,S11*%
X134958334Y-120028055D03*
D17*
X140458334Y-114078055D03*
D18*
X140458334Y-120028055D03*
D17*
X145458333Y-116278053D03*
D16*
X145958334Y-120028055D03*
%TD*%
D25*
%TO.C,D5*%
X100213169Y-134066492D03*
D26*
X102367907Y-133915816D03*
X105659869Y-133685624D03*
D15*
X107814607Y-133534948D03*
%TD*%
D13*
%TO.C,D4*%
X76851258Y-103254527D03*
D14*
X78990237Y-102953909D03*
X82258121Y-102494643D03*
D15*
X84397100Y-102194025D03*
%TD*%
D16*
%TO.C,S4*%
X74481838Y-98538388D03*
D17*
X79100232Y-91880841D03*
D18*
X79928312Y-97772936D03*
D17*
X84357754Y-93363566D03*
D16*
X85374786Y-97007484D03*
%TD*%
%TO.C,S21*%
X173016332Y-143087514D03*
D17*
X179868897Y-138763760D03*
D18*
X178328924Y-144511019D03*
D17*
X184129125Y-142182890D03*
D16*
X183641516Y-145934524D03*
%TD*%
%TO.C,S1*%
X81579665Y-149042057D03*
D17*
X86198059Y-142384510D03*
D18*
X87026139Y-148276605D03*
D17*
X91455581Y-143867235D03*
D16*
X92472613Y-147511153D03*
%TD*%
%TO.C,S3*%
X76847783Y-115372948D03*
D17*
X81466177Y-108715401D03*
D18*
X82294257Y-114607496D03*
D17*
X86723699Y-110198126D03*
D16*
X87740731Y-113842044D03*
%TD*%
%TO.C,S19*%
X170958338Y-108028058D03*
D17*
X176458338Y-102078058D03*
D18*
X176458338Y-108028058D03*
D17*
X181458337Y-104278056D03*
D16*
X181958338Y-108028058D03*
%TD*%
%TO.C,S6*%
X96992643Y-112237978D03*
D17*
X102064194Y-105918811D03*
D18*
X102479245Y-111854317D03*
D17*
X107205478Y-107764669D03*
D16*
X107965847Y-111470656D03*
%TD*%
D25*
%TO.C,D7*%
X97841449Y-100149319D03*
D26*
X99996187Y-99998643D03*
X103288149Y-99768451D03*
D15*
X105442887Y-99617775D03*
%TD*%
D19*
%TO.C,D13*%
X136648335Y-91028054D03*
D20*
X138808335Y-91028054D03*
X142108335Y-91028054D03*
D15*
X144268335Y-91028054D03*
%TD*%
D16*
%TO.C,S5*%
X98178504Y-129196564D03*
D17*
X103250055Y-122877397D03*
D18*
X103665106Y-128812903D03*
D17*
X108391339Y-124723255D03*
D16*
X109151708Y-128429242D03*
%TD*%
%TO.C,S18*%
X170958333Y-125028056D03*
D17*
X176458333Y-119078056D03*
D18*
X176458333Y-125028056D03*
D17*
X181458332Y-121278054D03*
D16*
X181958333Y-125028056D03*
%TD*%
%TO.C,S15*%
X152958333Y-122528053D03*
D17*
X158458333Y-116578053D03*
D18*
X158458333Y-122528053D03*
D17*
X163458332Y-118778051D03*
D16*
X163958333Y-122528053D03*
%TD*%
D19*
%TO.C,D16*%
X154648337Y-110528052D03*
D20*
X156808337Y-110528052D03*
X160108337Y-110528052D03*
D15*
X162268337Y-110528052D03*
%TD*%
D21*
%TO.C,_1*%
X87916566Y-101800375D03*
X88232760Y-100577747D03*
X88557513Y-102888490D03*
X89780141Y-103204684D03*
D22*
X89550508Y-101570742D03*
D21*
X89320875Y-99936800D03*
X90543503Y-100252994D03*
X90868256Y-102563737D03*
X91184450Y-101341109D03*
%TD*%
D16*
%TO.C,S8*%
X116958333Y-122528058D03*
D17*
X122458333Y-116578058D03*
D18*
X122458333Y-122528058D03*
D17*
X127458332Y-118778056D03*
D16*
X127958333Y-122528058D03*
%TD*%
M02*
