%TF.GenerationSoftware,KiCad,Pcbnew,9.0.3*%
%TF.CreationDate,2025-07-25T16:03:50+02:00*%
%TF.ProjectId,left_pcb,6c656674-5f70-4636-922e-6b696361645f,v1.0.0*%
%TF.SameCoordinates,Original*%
%TF.FileFunction,Legend,Top*%
%TF.FilePolarity,Positive*%
%FSLAX46Y46*%
G04 Gerber Fmt 4.6, Leading zero omitted, Abs format (unit mm)*
G04 Created by KiCad (PCBNEW 9.0.3) date 2025-07-25 16:03:50*
%MOMM*%
%LPD*%
G01*
G04 APERTURE LIST*
%ADD10C,1.625000*%
%ADD11C,0.150000*%
%ADD12C,0.300000*%
%ADD13C,0.100000*%
%ADD14C,0.381000*%
%ADD15C,1.752600*%
G04 APERTURE END LIST*
D10*
X109026592Y-144359742D02*
X112719786Y-147480117D01*
X108776263Y-139375103D02*
X108596606Y-141921171D01*
X108596606Y-141921171D02*
X108416949Y-144467239D01*
X108416949Y-144467239D02*
X107627650Y-147120803D01*
X109206249Y-141813674D02*
X113473750Y-141061199D01*
X113473750Y-141061199D02*
X113294093Y-143607267D01*
X113294093Y-143607267D02*
X113114436Y-146153335D01*
X113114436Y-146153335D02*
X112934779Y-148699403D01*
X112934779Y-148699403D02*
X112037982Y-150743325D01*
X112037982Y-150743325D02*
X110531543Y-152894743D01*
X124267665Y-141672330D02*
X125880112Y-150816973D01*
X126563404Y-136867347D02*
X125666608Y-138911269D01*
X125666608Y-138911269D02*
X124267665Y-141672330D01*
X124267665Y-141672330D02*
X122151583Y-143931245D01*
X122151583Y-143931245D02*
X120537647Y-145473020D01*
X133591966Y-137513814D02*
X140298038Y-136331353D01*
X140298038Y-136331353D02*
X140835520Y-139379567D01*
X140835520Y-139379567D02*
X140763360Y-142535278D01*
X140763360Y-142535278D02*
X139866563Y-144579200D01*
X139866563Y-144579200D02*
X138252628Y-146120975D01*
X138252628Y-146120975D02*
X136029049Y-147770247D01*
X141194834Y-134287431D02*
X141804477Y-134179935D01*
X141804477Y-134179935D02*
X142521616Y-134682081D01*
X142521616Y-134682081D02*
X142629113Y-135291724D01*
X142629113Y-135291724D02*
X142126966Y-136008863D01*
X142126966Y-136008863D02*
X141517323Y-136116360D01*
X141517323Y-136116360D02*
X140800184Y-135614214D01*
X140800184Y-135614214D02*
X140692688Y-135004571D01*
X140692688Y-135004571D02*
X141194834Y-134287431D01*
D11*
X193121142Y-94090351D02*
X193197332Y-94090351D01*
X193197332Y-94090351D02*
X193273523Y-94128446D01*
X193273523Y-94128446D02*
X193311618Y-94166541D01*
X193311618Y-94166541D02*
X193349713Y-94242732D01*
X193349713Y-94242732D02*
X193387808Y-94395113D01*
X193387808Y-94395113D02*
X193387808Y-94585589D01*
X193387808Y-94585589D02*
X193349713Y-94737970D01*
X193349713Y-94737970D02*
X193311618Y-94814160D01*
X193311618Y-94814160D02*
X193273523Y-94852256D01*
X193273523Y-94852256D02*
X193197332Y-94890351D01*
X193197332Y-94890351D02*
X193121142Y-94890351D01*
X193121142Y-94890351D02*
X193044951Y-94852256D01*
X193044951Y-94852256D02*
X193006856Y-94814160D01*
X193006856Y-94814160D02*
X192968761Y-94737970D01*
X192968761Y-94737970D02*
X192930665Y-94585589D01*
X192930665Y-94585589D02*
X192930665Y-94395113D01*
X192930665Y-94395113D02*
X192968761Y-94242732D01*
X192968761Y-94242732D02*
X193006856Y-94166541D01*
X193006856Y-94166541D02*
X193044951Y-94128446D01*
X193044951Y-94128446D02*
X193121142Y-94090351D01*
X193883047Y-94090351D02*
X193959237Y-94090351D01*
X193959237Y-94090351D02*
X194035428Y-94128446D01*
X194035428Y-94128446D02*
X194073523Y-94166541D01*
X194073523Y-94166541D02*
X194111618Y-94242732D01*
X194111618Y-94242732D02*
X194149713Y-94395113D01*
X194149713Y-94395113D02*
X194149713Y-94585589D01*
X194149713Y-94585589D02*
X194111618Y-94737970D01*
X194111618Y-94737970D02*
X194073523Y-94814160D01*
X194073523Y-94814160D02*
X194035428Y-94852256D01*
X194035428Y-94852256D02*
X193959237Y-94890351D01*
X193959237Y-94890351D02*
X193883047Y-94890351D01*
X193883047Y-94890351D02*
X193806856Y-94852256D01*
X193806856Y-94852256D02*
X193768761Y-94814160D01*
X193768761Y-94814160D02*
X193730666Y-94737970D01*
X193730666Y-94737970D02*
X193692570Y-94585589D01*
X193692570Y-94585589D02*
X193692570Y-94395113D01*
X193692570Y-94395113D02*
X193730666Y-94242732D01*
X193730666Y-94242732D02*
X193768761Y-94166541D01*
X193768761Y-94166541D02*
X193806856Y-94128446D01*
X193806856Y-94128446D02*
X193883047Y-94090351D01*
X194606856Y-94433208D02*
X194530666Y-94395113D01*
X194530666Y-94395113D02*
X194492571Y-94357017D01*
X194492571Y-94357017D02*
X194454475Y-94280827D01*
X194454475Y-94280827D02*
X194454475Y-94242732D01*
X194454475Y-94242732D02*
X194492571Y-94166541D01*
X194492571Y-94166541D02*
X194530666Y-94128446D01*
X194530666Y-94128446D02*
X194606856Y-94090351D01*
X194606856Y-94090351D02*
X194759237Y-94090351D01*
X194759237Y-94090351D02*
X194835428Y-94128446D01*
X194835428Y-94128446D02*
X194873523Y-94166541D01*
X194873523Y-94166541D02*
X194911618Y-94242732D01*
X194911618Y-94242732D02*
X194911618Y-94280827D01*
X194911618Y-94280827D02*
X194873523Y-94357017D01*
X194873523Y-94357017D02*
X194835428Y-94395113D01*
X194835428Y-94395113D02*
X194759237Y-94433208D01*
X194759237Y-94433208D02*
X194606856Y-94433208D01*
X194606856Y-94433208D02*
X194530666Y-94471303D01*
X194530666Y-94471303D02*
X194492571Y-94509398D01*
X194492571Y-94509398D02*
X194454475Y-94585589D01*
X194454475Y-94585589D02*
X194454475Y-94737970D01*
X194454475Y-94737970D02*
X194492571Y-94814160D01*
X194492571Y-94814160D02*
X194530666Y-94852256D01*
X194530666Y-94852256D02*
X194606856Y-94890351D01*
X194606856Y-94890351D02*
X194759237Y-94890351D01*
X194759237Y-94890351D02*
X194835428Y-94852256D01*
X194835428Y-94852256D02*
X194873523Y-94814160D01*
X194873523Y-94814160D02*
X194911618Y-94737970D01*
X194911618Y-94737970D02*
X194911618Y-94585589D01*
X194911618Y-94585589D02*
X194873523Y-94509398D01*
X194873523Y-94509398D02*
X194835428Y-94471303D01*
X194835428Y-94471303D02*
X194759237Y-94433208D01*
X193121142Y-101790351D02*
X193197332Y-101790351D01*
X193197332Y-101790351D02*
X193273523Y-101828446D01*
X193273523Y-101828446D02*
X193311618Y-101866541D01*
X193311618Y-101866541D02*
X193349713Y-101942732D01*
X193349713Y-101942732D02*
X193387808Y-102095113D01*
X193387808Y-102095113D02*
X193387808Y-102285589D01*
X193387808Y-102285589D02*
X193349713Y-102437970D01*
X193349713Y-102437970D02*
X193311618Y-102514160D01*
X193311618Y-102514160D02*
X193273523Y-102552256D01*
X193273523Y-102552256D02*
X193197332Y-102590351D01*
X193197332Y-102590351D02*
X193121142Y-102590351D01*
X193121142Y-102590351D02*
X193044951Y-102552256D01*
X193044951Y-102552256D02*
X193006856Y-102514160D01*
X193006856Y-102514160D02*
X192968761Y-102437970D01*
X192968761Y-102437970D02*
X192930665Y-102285589D01*
X192930665Y-102285589D02*
X192930665Y-102095113D01*
X192930665Y-102095113D02*
X192968761Y-101942732D01*
X192968761Y-101942732D02*
X193006856Y-101866541D01*
X193006856Y-101866541D02*
X193044951Y-101828446D01*
X193044951Y-101828446D02*
X193121142Y-101790351D01*
X194149713Y-102590351D02*
X193692570Y-102590351D01*
X193921142Y-102590351D02*
X193921142Y-101790351D01*
X193921142Y-101790351D02*
X193844951Y-101904636D01*
X193844951Y-101904636D02*
X193768761Y-101980827D01*
X193768761Y-101980827D02*
X193692570Y-102018922D01*
X194416380Y-101790351D02*
X194949714Y-101790351D01*
X194949714Y-101790351D02*
X194606856Y-102590351D01*
X204608237Y-97500351D02*
X204341570Y-97119398D01*
X204151094Y-97500351D02*
X204151094Y-96700351D01*
X204151094Y-96700351D02*
X204455856Y-96700351D01*
X204455856Y-96700351D02*
X204532046Y-96738446D01*
X204532046Y-96738446D02*
X204570141Y-96776541D01*
X204570141Y-96776541D02*
X204608237Y-96852732D01*
X204608237Y-96852732D02*
X204608237Y-96967017D01*
X204608237Y-96967017D02*
X204570141Y-97043208D01*
X204570141Y-97043208D02*
X204532046Y-97081303D01*
X204532046Y-97081303D02*
X204455856Y-97119398D01*
X204455856Y-97119398D02*
X204151094Y-97119398D01*
X204912998Y-97462256D02*
X205027284Y-97500351D01*
X205027284Y-97500351D02*
X205217760Y-97500351D01*
X205217760Y-97500351D02*
X205293951Y-97462256D01*
X205293951Y-97462256D02*
X205332046Y-97424160D01*
X205332046Y-97424160D02*
X205370141Y-97347970D01*
X205370141Y-97347970D02*
X205370141Y-97271779D01*
X205370141Y-97271779D02*
X205332046Y-97195589D01*
X205332046Y-97195589D02*
X205293951Y-97157494D01*
X205293951Y-97157494D02*
X205217760Y-97119398D01*
X205217760Y-97119398D02*
X205065379Y-97081303D01*
X205065379Y-97081303D02*
X204989189Y-97043208D01*
X204989189Y-97043208D02*
X204951094Y-97005113D01*
X204951094Y-97005113D02*
X204912998Y-96928922D01*
X204912998Y-96928922D02*
X204912998Y-96852732D01*
X204912998Y-96852732D02*
X204951094Y-96776541D01*
X204951094Y-96776541D02*
X204989189Y-96738446D01*
X204989189Y-96738446D02*
X205065379Y-96700351D01*
X205065379Y-96700351D02*
X205255856Y-96700351D01*
X205255856Y-96700351D02*
X205370141Y-96738446D01*
X205598713Y-96700351D02*
X206055856Y-96700351D01*
X205827284Y-97500351D02*
X205827284Y-96700351D01*
X193121142Y-104390351D02*
X193197332Y-104390351D01*
X193197332Y-104390351D02*
X193273523Y-104428446D01*
X193273523Y-104428446D02*
X193311618Y-104466541D01*
X193311618Y-104466541D02*
X193349713Y-104542732D01*
X193349713Y-104542732D02*
X193387808Y-104695113D01*
X193387808Y-104695113D02*
X193387808Y-104885589D01*
X193387808Y-104885589D02*
X193349713Y-105037970D01*
X193349713Y-105037970D02*
X193311618Y-105114160D01*
X193311618Y-105114160D02*
X193273523Y-105152256D01*
X193273523Y-105152256D02*
X193197332Y-105190351D01*
X193197332Y-105190351D02*
X193121142Y-105190351D01*
X193121142Y-105190351D02*
X193044951Y-105152256D01*
X193044951Y-105152256D02*
X193006856Y-105114160D01*
X193006856Y-105114160D02*
X192968761Y-105037970D01*
X192968761Y-105037970D02*
X192930665Y-104885589D01*
X192930665Y-104885589D02*
X192930665Y-104695113D01*
X192930665Y-104695113D02*
X192968761Y-104542732D01*
X192968761Y-104542732D02*
X193006856Y-104466541D01*
X193006856Y-104466541D02*
X193044951Y-104428446D01*
X193044951Y-104428446D02*
X193121142Y-104390351D01*
X193692570Y-104466541D02*
X193730666Y-104428446D01*
X193730666Y-104428446D02*
X193806856Y-104390351D01*
X193806856Y-104390351D02*
X193997332Y-104390351D01*
X193997332Y-104390351D02*
X194073523Y-104428446D01*
X194073523Y-104428446D02*
X194111618Y-104466541D01*
X194111618Y-104466541D02*
X194149713Y-104542732D01*
X194149713Y-104542732D02*
X194149713Y-104618922D01*
X194149713Y-104618922D02*
X194111618Y-104733208D01*
X194111618Y-104733208D02*
X193654475Y-105190351D01*
X193654475Y-105190351D02*
X194149713Y-105190351D01*
X194644952Y-104390351D02*
X194721142Y-104390351D01*
X194721142Y-104390351D02*
X194797333Y-104428446D01*
X194797333Y-104428446D02*
X194835428Y-104466541D01*
X194835428Y-104466541D02*
X194873523Y-104542732D01*
X194873523Y-104542732D02*
X194911618Y-104695113D01*
X194911618Y-104695113D02*
X194911618Y-104885589D01*
X194911618Y-104885589D02*
X194873523Y-105037970D01*
X194873523Y-105037970D02*
X194835428Y-105114160D01*
X194835428Y-105114160D02*
X194797333Y-105152256D01*
X194797333Y-105152256D02*
X194721142Y-105190351D01*
X194721142Y-105190351D02*
X194644952Y-105190351D01*
X194644952Y-105190351D02*
X194568761Y-105152256D01*
X194568761Y-105152256D02*
X194530666Y-105114160D01*
X194530666Y-105114160D02*
X194492571Y-105037970D01*
X194492571Y-105037970D02*
X194454475Y-104885589D01*
X194454475Y-104885589D02*
X194454475Y-104695113D01*
X194454475Y-104695113D02*
X194492571Y-104542732D01*
X194492571Y-104542732D02*
X194530666Y-104466541D01*
X194530666Y-104466541D02*
X194568761Y-104428446D01*
X194568761Y-104428446D02*
X194644952Y-104390351D01*
X193387808Y-112740351D02*
X192930665Y-112740351D01*
X193159237Y-112740351D02*
X193159237Y-111940351D01*
X193159237Y-111940351D02*
X193083046Y-112054636D01*
X193083046Y-112054636D02*
X193006856Y-112130827D01*
X193006856Y-112130827D02*
X192930665Y-112168922D01*
X193883047Y-111940351D02*
X193959237Y-111940351D01*
X193959237Y-111940351D02*
X194035428Y-111978446D01*
X194035428Y-111978446D02*
X194073523Y-112016541D01*
X194073523Y-112016541D02*
X194111618Y-112092732D01*
X194111618Y-112092732D02*
X194149713Y-112245113D01*
X194149713Y-112245113D02*
X194149713Y-112435589D01*
X194149713Y-112435589D02*
X194111618Y-112587970D01*
X194111618Y-112587970D02*
X194073523Y-112664160D01*
X194073523Y-112664160D02*
X194035428Y-112702256D01*
X194035428Y-112702256D02*
X193959237Y-112740351D01*
X193959237Y-112740351D02*
X193883047Y-112740351D01*
X193883047Y-112740351D02*
X193806856Y-112702256D01*
X193806856Y-112702256D02*
X193768761Y-112664160D01*
X193768761Y-112664160D02*
X193730666Y-112587970D01*
X193730666Y-112587970D02*
X193692570Y-112435589D01*
X193692570Y-112435589D02*
X193692570Y-112245113D01*
X193692570Y-112245113D02*
X193730666Y-112092732D01*
X193730666Y-112092732D02*
X193768761Y-112016541D01*
X193768761Y-112016541D02*
X193806856Y-111978446D01*
X193806856Y-111978446D02*
X193883047Y-111940351D01*
X194644952Y-111940351D02*
X194721142Y-111940351D01*
X194721142Y-111940351D02*
X194797333Y-111978446D01*
X194797333Y-111978446D02*
X194835428Y-112016541D01*
X194835428Y-112016541D02*
X194873523Y-112092732D01*
X194873523Y-112092732D02*
X194911618Y-112245113D01*
X194911618Y-112245113D02*
X194911618Y-112435589D01*
X194911618Y-112435589D02*
X194873523Y-112587970D01*
X194873523Y-112587970D02*
X194835428Y-112664160D01*
X194835428Y-112664160D02*
X194797333Y-112702256D01*
X194797333Y-112702256D02*
X194721142Y-112740351D01*
X194721142Y-112740351D02*
X194644952Y-112740351D01*
X194644952Y-112740351D02*
X194568761Y-112702256D01*
X194568761Y-112702256D02*
X194530666Y-112664160D01*
X194530666Y-112664160D02*
X194492571Y-112587970D01*
X194492571Y-112587970D02*
X194454475Y-112435589D01*
X194454475Y-112435589D02*
X194454475Y-112245113D01*
X194454475Y-112245113D02*
X194492571Y-112092732D01*
X194492571Y-112092732D02*
X194530666Y-112016541D01*
X194530666Y-112016541D02*
X194568761Y-111978446D01*
X194568761Y-111978446D02*
X194644952Y-111940351D01*
X204462189Y-115280351D02*
X204005046Y-115280351D01*
X204233618Y-115280351D02*
X204233618Y-114480351D01*
X204233618Y-114480351D02*
X204157427Y-114594636D01*
X204157427Y-114594636D02*
X204081237Y-114670827D01*
X204081237Y-114670827D02*
X204005046Y-114708922D01*
X205224094Y-115280351D02*
X204766951Y-115280351D01*
X204995523Y-115280351D02*
X204995523Y-114480351D01*
X204995523Y-114480351D02*
X204919332Y-114594636D01*
X204919332Y-114594636D02*
X204843142Y-114670827D01*
X204843142Y-114670827D02*
X204766951Y-114708922D01*
X205985999Y-115280351D02*
X205528856Y-115280351D01*
X205757428Y-115280351D02*
X205757428Y-114480351D01*
X205757428Y-114480351D02*
X205681237Y-114594636D01*
X205681237Y-114594636D02*
X205605047Y-114670827D01*
X205605047Y-114670827D02*
X205528856Y-114708922D01*
X193121142Y-91620351D02*
X193197332Y-91620351D01*
X193197332Y-91620351D02*
X193273523Y-91658446D01*
X193273523Y-91658446D02*
X193311618Y-91696541D01*
X193311618Y-91696541D02*
X193349713Y-91772732D01*
X193349713Y-91772732D02*
X193387808Y-91925113D01*
X193387808Y-91925113D02*
X193387808Y-92115589D01*
X193387808Y-92115589D02*
X193349713Y-92267970D01*
X193349713Y-92267970D02*
X193311618Y-92344160D01*
X193311618Y-92344160D02*
X193273523Y-92382256D01*
X193273523Y-92382256D02*
X193197332Y-92420351D01*
X193197332Y-92420351D02*
X193121142Y-92420351D01*
X193121142Y-92420351D02*
X193044951Y-92382256D01*
X193044951Y-92382256D02*
X193006856Y-92344160D01*
X193006856Y-92344160D02*
X192968761Y-92267970D01*
X192968761Y-92267970D02*
X192930665Y-92115589D01*
X192930665Y-92115589D02*
X192930665Y-91925113D01*
X192930665Y-91925113D02*
X192968761Y-91772732D01*
X192968761Y-91772732D02*
X193006856Y-91696541D01*
X193006856Y-91696541D02*
X193044951Y-91658446D01*
X193044951Y-91658446D02*
X193121142Y-91620351D01*
X193883047Y-91620351D02*
X193959237Y-91620351D01*
X193959237Y-91620351D02*
X194035428Y-91658446D01*
X194035428Y-91658446D02*
X194073523Y-91696541D01*
X194073523Y-91696541D02*
X194111618Y-91772732D01*
X194111618Y-91772732D02*
X194149713Y-91925113D01*
X194149713Y-91925113D02*
X194149713Y-92115589D01*
X194149713Y-92115589D02*
X194111618Y-92267970D01*
X194111618Y-92267970D02*
X194073523Y-92344160D01*
X194073523Y-92344160D02*
X194035428Y-92382256D01*
X194035428Y-92382256D02*
X193959237Y-92420351D01*
X193959237Y-92420351D02*
X193883047Y-92420351D01*
X193883047Y-92420351D02*
X193806856Y-92382256D01*
X193806856Y-92382256D02*
X193768761Y-92344160D01*
X193768761Y-92344160D02*
X193730666Y-92267970D01*
X193730666Y-92267970D02*
X193692570Y-92115589D01*
X193692570Y-92115589D02*
X193692570Y-91925113D01*
X193692570Y-91925113D02*
X193730666Y-91772732D01*
X193730666Y-91772732D02*
X193768761Y-91696541D01*
X193768761Y-91696541D02*
X193806856Y-91658446D01*
X193806856Y-91658446D02*
X193883047Y-91620351D01*
X194835428Y-91620351D02*
X194683047Y-91620351D01*
X194683047Y-91620351D02*
X194606856Y-91658446D01*
X194606856Y-91658446D02*
X194568761Y-91696541D01*
X194568761Y-91696541D02*
X194492571Y-91810827D01*
X194492571Y-91810827D02*
X194454475Y-91963208D01*
X194454475Y-91963208D02*
X194454475Y-92267970D01*
X194454475Y-92267970D02*
X194492571Y-92344160D01*
X194492571Y-92344160D02*
X194530666Y-92382256D01*
X194530666Y-92382256D02*
X194606856Y-92420351D01*
X194606856Y-92420351D02*
X194759237Y-92420351D01*
X194759237Y-92420351D02*
X194835428Y-92382256D01*
X194835428Y-92382256D02*
X194873523Y-92344160D01*
X194873523Y-92344160D02*
X194911618Y-92267970D01*
X194911618Y-92267970D02*
X194911618Y-92077494D01*
X194911618Y-92077494D02*
X194873523Y-92001303D01*
X194873523Y-92001303D02*
X194835428Y-91963208D01*
X194835428Y-91963208D02*
X194759237Y-91925113D01*
X194759237Y-91925113D02*
X194606856Y-91925113D01*
X194606856Y-91925113D02*
X194530666Y-91963208D01*
X194530666Y-91963208D02*
X194492571Y-92001303D01*
X194492571Y-92001303D02*
X194454475Y-92077494D01*
X193121143Y-109400349D02*
X193197333Y-109400349D01*
X193197333Y-109400349D02*
X193273524Y-109438444D01*
X193273524Y-109438444D02*
X193311619Y-109476539D01*
X193311619Y-109476539D02*
X193349714Y-109552730D01*
X193349714Y-109552730D02*
X193387809Y-109705111D01*
X193387809Y-109705111D02*
X193387809Y-109895587D01*
X193387809Y-109895587D02*
X193349714Y-110047968D01*
X193349714Y-110047968D02*
X193311619Y-110124158D01*
X193311619Y-110124158D02*
X193273524Y-110162254D01*
X193273524Y-110162254D02*
X193197333Y-110200349D01*
X193197333Y-110200349D02*
X193121143Y-110200349D01*
X193121143Y-110200349D02*
X193044952Y-110162254D01*
X193044952Y-110162254D02*
X193006857Y-110124158D01*
X193006857Y-110124158D02*
X192968762Y-110047968D01*
X192968762Y-110047968D02*
X192930666Y-109895587D01*
X192930666Y-109895587D02*
X192930666Y-109705111D01*
X192930666Y-109705111D02*
X192968762Y-109552730D01*
X192968762Y-109552730D02*
X193006857Y-109476539D01*
X193006857Y-109476539D02*
X193044952Y-109438444D01*
X193044952Y-109438444D02*
X193121143Y-109400349D01*
X193692571Y-109476539D02*
X193730667Y-109438444D01*
X193730667Y-109438444D02*
X193806857Y-109400349D01*
X193806857Y-109400349D02*
X193997333Y-109400349D01*
X193997333Y-109400349D02*
X194073524Y-109438444D01*
X194073524Y-109438444D02*
X194111619Y-109476539D01*
X194111619Y-109476539D02*
X194149714Y-109552730D01*
X194149714Y-109552730D02*
X194149714Y-109628920D01*
X194149714Y-109628920D02*
X194111619Y-109743206D01*
X194111619Y-109743206D02*
X193654476Y-110200349D01*
X193654476Y-110200349D02*
X194149714Y-110200349D01*
X194835429Y-109667015D02*
X194835429Y-110200349D01*
X194644953Y-109362254D02*
X194454476Y-109933682D01*
X194454476Y-109933682D02*
X194949715Y-109933682D01*
X193387808Y-117820351D02*
X192930665Y-117820351D01*
X193159237Y-117820351D02*
X193159237Y-117020351D01*
X193159237Y-117020351D02*
X193083046Y-117134636D01*
X193083046Y-117134636D02*
X193006856Y-117210827D01*
X193006856Y-117210827D02*
X192930665Y-117248922D01*
X193883047Y-117020351D02*
X193959237Y-117020351D01*
X193959237Y-117020351D02*
X194035428Y-117058446D01*
X194035428Y-117058446D02*
X194073523Y-117096541D01*
X194073523Y-117096541D02*
X194111618Y-117172732D01*
X194111618Y-117172732D02*
X194149713Y-117325113D01*
X194149713Y-117325113D02*
X194149713Y-117515589D01*
X194149713Y-117515589D02*
X194111618Y-117667970D01*
X194111618Y-117667970D02*
X194073523Y-117744160D01*
X194073523Y-117744160D02*
X194035428Y-117782256D01*
X194035428Y-117782256D02*
X193959237Y-117820351D01*
X193959237Y-117820351D02*
X193883047Y-117820351D01*
X193883047Y-117820351D02*
X193806856Y-117782256D01*
X193806856Y-117782256D02*
X193768761Y-117744160D01*
X193768761Y-117744160D02*
X193730666Y-117667970D01*
X193730666Y-117667970D02*
X193692570Y-117515589D01*
X193692570Y-117515589D02*
X193692570Y-117325113D01*
X193692570Y-117325113D02*
X193730666Y-117172732D01*
X193730666Y-117172732D02*
X193768761Y-117096541D01*
X193768761Y-117096541D02*
X193806856Y-117058446D01*
X193806856Y-117058446D02*
X193883047Y-117020351D01*
X194835428Y-117287017D02*
X194835428Y-117820351D01*
X194644952Y-116982256D02*
X194454475Y-117553684D01*
X194454475Y-117553684D02*
X194949714Y-117553684D01*
X193387808Y-96738446D02*
X193311618Y-96700351D01*
X193311618Y-96700351D02*
X193197332Y-96700351D01*
X193197332Y-96700351D02*
X193083046Y-96738446D01*
X193083046Y-96738446D02*
X193006856Y-96814636D01*
X193006856Y-96814636D02*
X192968761Y-96890827D01*
X192968761Y-96890827D02*
X192930665Y-97043208D01*
X192930665Y-97043208D02*
X192930665Y-97157494D01*
X192930665Y-97157494D02*
X192968761Y-97309875D01*
X192968761Y-97309875D02*
X193006856Y-97386065D01*
X193006856Y-97386065D02*
X193083046Y-97462256D01*
X193083046Y-97462256D02*
X193197332Y-97500351D01*
X193197332Y-97500351D02*
X193273523Y-97500351D01*
X193273523Y-97500351D02*
X193387808Y-97462256D01*
X193387808Y-97462256D02*
X193425904Y-97424160D01*
X193425904Y-97424160D02*
X193425904Y-97157494D01*
X193425904Y-97157494D02*
X193273523Y-97157494D01*
X193768761Y-97500351D02*
X193768761Y-96700351D01*
X193768761Y-96700351D02*
X194225904Y-97500351D01*
X194225904Y-97500351D02*
X194225904Y-96700351D01*
X194606856Y-97500351D02*
X194606856Y-96700351D01*
X194606856Y-96700351D02*
X194797332Y-96700351D01*
X194797332Y-96700351D02*
X194911618Y-96738446D01*
X194911618Y-96738446D02*
X194987808Y-96814636D01*
X194987808Y-96814636D02*
X195025903Y-96890827D01*
X195025903Y-96890827D02*
X195063999Y-97043208D01*
X195063999Y-97043208D02*
X195063999Y-97157494D01*
X195063999Y-97157494D02*
X195025903Y-97309875D01*
X195025903Y-97309875D02*
X194987808Y-97386065D01*
X194987808Y-97386065D02*
X194911618Y-97462256D01*
X194911618Y-97462256D02*
X194797332Y-97500351D01*
X194797332Y-97500351D02*
X194606856Y-97500351D01*
X204195523Y-106860351D02*
X204271713Y-106860351D01*
X204271713Y-106860351D02*
X204347904Y-106898446D01*
X204347904Y-106898446D02*
X204385999Y-106936541D01*
X204385999Y-106936541D02*
X204424094Y-107012732D01*
X204424094Y-107012732D02*
X204462189Y-107165113D01*
X204462189Y-107165113D02*
X204462189Y-107355589D01*
X204462189Y-107355589D02*
X204424094Y-107507970D01*
X204424094Y-107507970D02*
X204385999Y-107584160D01*
X204385999Y-107584160D02*
X204347904Y-107622256D01*
X204347904Y-107622256D02*
X204271713Y-107660351D01*
X204271713Y-107660351D02*
X204195523Y-107660351D01*
X204195523Y-107660351D02*
X204119332Y-107622256D01*
X204119332Y-107622256D02*
X204081237Y-107584160D01*
X204081237Y-107584160D02*
X204043142Y-107507970D01*
X204043142Y-107507970D02*
X204005046Y-107355589D01*
X204005046Y-107355589D02*
X204005046Y-107165113D01*
X204005046Y-107165113D02*
X204043142Y-107012732D01*
X204043142Y-107012732D02*
X204081237Y-106936541D01*
X204081237Y-106936541D02*
X204119332Y-106898446D01*
X204119332Y-106898446D02*
X204195523Y-106860351D01*
X204957428Y-106860351D02*
X205033618Y-106860351D01*
X205033618Y-106860351D02*
X205109809Y-106898446D01*
X205109809Y-106898446D02*
X205147904Y-106936541D01*
X205147904Y-106936541D02*
X205185999Y-107012732D01*
X205185999Y-107012732D02*
X205224094Y-107165113D01*
X205224094Y-107165113D02*
X205224094Y-107355589D01*
X205224094Y-107355589D02*
X205185999Y-107507970D01*
X205185999Y-107507970D02*
X205147904Y-107584160D01*
X205147904Y-107584160D02*
X205109809Y-107622256D01*
X205109809Y-107622256D02*
X205033618Y-107660351D01*
X205033618Y-107660351D02*
X204957428Y-107660351D01*
X204957428Y-107660351D02*
X204881237Y-107622256D01*
X204881237Y-107622256D02*
X204843142Y-107584160D01*
X204843142Y-107584160D02*
X204805047Y-107507970D01*
X204805047Y-107507970D02*
X204766951Y-107355589D01*
X204766951Y-107355589D02*
X204766951Y-107165113D01*
X204766951Y-107165113D02*
X204805047Y-107012732D01*
X204805047Y-107012732D02*
X204843142Y-106936541D01*
X204843142Y-106936541D02*
X204881237Y-106898446D01*
X204881237Y-106898446D02*
X204957428Y-106860351D01*
X205528856Y-106936541D02*
X205566952Y-106898446D01*
X205566952Y-106898446D02*
X205643142Y-106860351D01*
X205643142Y-106860351D02*
X205833618Y-106860351D01*
X205833618Y-106860351D02*
X205909809Y-106898446D01*
X205909809Y-106898446D02*
X205947904Y-106936541D01*
X205947904Y-106936541D02*
X205985999Y-107012732D01*
X205985999Y-107012732D02*
X205985999Y-107088922D01*
X205985999Y-107088922D02*
X205947904Y-107203208D01*
X205947904Y-107203208D02*
X205490761Y-107660351D01*
X205490761Y-107660351D02*
X205985999Y-107660351D01*
X204195523Y-117020351D02*
X204271713Y-117020351D01*
X204271713Y-117020351D02*
X204347904Y-117058446D01*
X204347904Y-117058446D02*
X204385999Y-117096541D01*
X204385999Y-117096541D02*
X204424094Y-117172732D01*
X204424094Y-117172732D02*
X204462189Y-117325113D01*
X204462189Y-117325113D02*
X204462189Y-117515589D01*
X204462189Y-117515589D02*
X204424094Y-117667970D01*
X204424094Y-117667970D02*
X204385999Y-117744160D01*
X204385999Y-117744160D02*
X204347904Y-117782256D01*
X204347904Y-117782256D02*
X204271713Y-117820351D01*
X204271713Y-117820351D02*
X204195523Y-117820351D01*
X204195523Y-117820351D02*
X204119332Y-117782256D01*
X204119332Y-117782256D02*
X204081237Y-117744160D01*
X204081237Y-117744160D02*
X204043142Y-117667970D01*
X204043142Y-117667970D02*
X204005046Y-117515589D01*
X204005046Y-117515589D02*
X204005046Y-117325113D01*
X204005046Y-117325113D02*
X204043142Y-117172732D01*
X204043142Y-117172732D02*
X204081237Y-117096541D01*
X204081237Y-117096541D02*
X204119332Y-117058446D01*
X204119332Y-117058446D02*
X204195523Y-117020351D01*
X205224094Y-117820351D02*
X204766951Y-117820351D01*
X204995523Y-117820351D02*
X204995523Y-117020351D01*
X204995523Y-117020351D02*
X204919332Y-117134636D01*
X204919332Y-117134636D02*
X204843142Y-117210827D01*
X204843142Y-117210827D02*
X204766951Y-117248922D01*
X205719333Y-117020351D02*
X205795523Y-117020351D01*
X205795523Y-117020351D02*
X205871714Y-117058446D01*
X205871714Y-117058446D02*
X205909809Y-117096541D01*
X205909809Y-117096541D02*
X205947904Y-117172732D01*
X205947904Y-117172732D02*
X205985999Y-117325113D01*
X205985999Y-117325113D02*
X205985999Y-117515589D01*
X205985999Y-117515589D02*
X205947904Y-117667970D01*
X205947904Y-117667970D02*
X205909809Y-117744160D01*
X205909809Y-117744160D02*
X205871714Y-117782256D01*
X205871714Y-117782256D02*
X205795523Y-117820351D01*
X205795523Y-117820351D02*
X205719333Y-117820351D01*
X205719333Y-117820351D02*
X205643142Y-117782256D01*
X205643142Y-117782256D02*
X205605047Y-117744160D01*
X205605047Y-117744160D02*
X205566952Y-117667970D01*
X205566952Y-117667970D02*
X205528856Y-117515589D01*
X205528856Y-117515589D02*
X205528856Y-117325113D01*
X205528856Y-117325113D02*
X205566952Y-117172732D01*
X205566952Y-117172732D02*
X205605047Y-117096541D01*
X205605047Y-117096541D02*
X205643142Y-117058446D01*
X205643142Y-117058446D02*
X205719333Y-117020351D01*
X203928856Y-99240351D02*
X204195523Y-100040351D01*
X204195523Y-100040351D02*
X204462189Y-99240351D01*
X205185999Y-99964160D02*
X205147903Y-100002256D01*
X205147903Y-100002256D02*
X205033618Y-100040351D01*
X205033618Y-100040351D02*
X204957427Y-100040351D01*
X204957427Y-100040351D02*
X204843141Y-100002256D01*
X204843141Y-100002256D02*
X204766951Y-99926065D01*
X204766951Y-99926065D02*
X204728856Y-99849875D01*
X204728856Y-99849875D02*
X204690760Y-99697494D01*
X204690760Y-99697494D02*
X204690760Y-99583208D01*
X204690760Y-99583208D02*
X204728856Y-99430827D01*
X204728856Y-99430827D02*
X204766951Y-99354636D01*
X204766951Y-99354636D02*
X204843141Y-99278446D01*
X204843141Y-99278446D02*
X204957427Y-99240351D01*
X204957427Y-99240351D02*
X205033618Y-99240351D01*
X205033618Y-99240351D02*
X205147903Y-99278446D01*
X205147903Y-99278446D02*
X205185999Y-99316541D01*
X205985999Y-99964160D02*
X205947903Y-100002256D01*
X205947903Y-100002256D02*
X205833618Y-100040351D01*
X205833618Y-100040351D02*
X205757427Y-100040351D01*
X205757427Y-100040351D02*
X205643141Y-100002256D01*
X205643141Y-100002256D02*
X205566951Y-99926065D01*
X205566951Y-99926065D02*
X205528856Y-99849875D01*
X205528856Y-99849875D02*
X205490760Y-99697494D01*
X205490760Y-99697494D02*
X205490760Y-99583208D01*
X205490760Y-99583208D02*
X205528856Y-99430827D01*
X205528856Y-99430827D02*
X205566951Y-99354636D01*
X205566951Y-99354636D02*
X205643141Y-99278446D01*
X205643141Y-99278446D02*
X205757427Y-99240351D01*
X205757427Y-99240351D02*
X205833618Y-99240351D01*
X205833618Y-99240351D02*
X205947903Y-99278446D01*
X205947903Y-99278446D02*
X205985999Y-99316541D01*
X204462189Y-112740351D02*
X204005046Y-112740351D01*
X204233618Y-112740351D02*
X204233618Y-111940351D01*
X204233618Y-111940351D02*
X204157427Y-112054636D01*
X204157427Y-112054636D02*
X204081237Y-112130827D01*
X204081237Y-112130827D02*
X204005046Y-112168922D01*
X205224094Y-112740351D02*
X204766951Y-112740351D01*
X204995523Y-112740351D02*
X204995523Y-111940351D01*
X204995523Y-111940351D02*
X204919332Y-112054636D01*
X204919332Y-112054636D02*
X204843142Y-112130827D01*
X204843142Y-112130827D02*
X204766951Y-112168922D01*
X205490761Y-111940351D02*
X205985999Y-111940351D01*
X205985999Y-111940351D02*
X205719333Y-112245113D01*
X205719333Y-112245113D02*
X205833618Y-112245113D01*
X205833618Y-112245113D02*
X205909809Y-112283208D01*
X205909809Y-112283208D02*
X205947904Y-112321303D01*
X205947904Y-112321303D02*
X205985999Y-112397494D01*
X205985999Y-112397494D02*
X205985999Y-112587970D01*
X205985999Y-112587970D02*
X205947904Y-112664160D01*
X205947904Y-112664160D02*
X205909809Y-112702256D01*
X205909809Y-112702256D02*
X205833618Y-112740351D01*
X205833618Y-112740351D02*
X205605047Y-112740351D01*
X205605047Y-112740351D02*
X205528856Y-112702256D01*
X205528856Y-112702256D02*
X205490761Y-112664160D01*
X193387808Y-99278446D02*
X193311618Y-99240351D01*
X193311618Y-99240351D02*
X193197332Y-99240351D01*
X193197332Y-99240351D02*
X193083046Y-99278446D01*
X193083046Y-99278446D02*
X193006856Y-99354636D01*
X193006856Y-99354636D02*
X192968761Y-99430827D01*
X192968761Y-99430827D02*
X192930665Y-99583208D01*
X192930665Y-99583208D02*
X192930665Y-99697494D01*
X192930665Y-99697494D02*
X192968761Y-99849875D01*
X192968761Y-99849875D02*
X193006856Y-99926065D01*
X193006856Y-99926065D02*
X193083046Y-100002256D01*
X193083046Y-100002256D02*
X193197332Y-100040351D01*
X193197332Y-100040351D02*
X193273523Y-100040351D01*
X193273523Y-100040351D02*
X193387808Y-100002256D01*
X193387808Y-100002256D02*
X193425904Y-99964160D01*
X193425904Y-99964160D02*
X193425904Y-99697494D01*
X193425904Y-99697494D02*
X193273523Y-99697494D01*
X193768761Y-100040351D02*
X193768761Y-99240351D01*
X193768761Y-99240351D02*
X194225904Y-100040351D01*
X194225904Y-100040351D02*
X194225904Y-99240351D01*
X194606856Y-100040351D02*
X194606856Y-99240351D01*
X194606856Y-99240351D02*
X194797332Y-99240351D01*
X194797332Y-99240351D02*
X194911618Y-99278446D01*
X194911618Y-99278446D02*
X194987808Y-99354636D01*
X194987808Y-99354636D02*
X195025903Y-99430827D01*
X195025903Y-99430827D02*
X195063999Y-99583208D01*
X195063999Y-99583208D02*
X195063999Y-99697494D01*
X195063999Y-99697494D02*
X195025903Y-99849875D01*
X195025903Y-99849875D02*
X194987808Y-99926065D01*
X194987808Y-99926065D02*
X194911618Y-100002256D01*
X194911618Y-100002256D02*
X194797332Y-100040351D01*
X194797332Y-100040351D02*
X194606856Y-100040351D01*
X204303475Y-94198446D02*
X204227285Y-94160351D01*
X204227285Y-94160351D02*
X204112999Y-94160351D01*
X204112999Y-94160351D02*
X203998713Y-94198446D01*
X203998713Y-94198446D02*
X203922523Y-94274636D01*
X203922523Y-94274636D02*
X203884428Y-94350827D01*
X203884428Y-94350827D02*
X203846332Y-94503208D01*
X203846332Y-94503208D02*
X203846332Y-94617494D01*
X203846332Y-94617494D02*
X203884428Y-94769875D01*
X203884428Y-94769875D02*
X203922523Y-94846065D01*
X203922523Y-94846065D02*
X203998713Y-94922256D01*
X203998713Y-94922256D02*
X204112999Y-94960351D01*
X204112999Y-94960351D02*
X204189190Y-94960351D01*
X204189190Y-94960351D02*
X204303475Y-94922256D01*
X204303475Y-94922256D02*
X204341571Y-94884160D01*
X204341571Y-94884160D02*
X204341571Y-94617494D01*
X204341571Y-94617494D02*
X204189190Y-94617494D01*
X204684428Y-94960351D02*
X204684428Y-94160351D01*
X204684428Y-94160351D02*
X205141571Y-94960351D01*
X205141571Y-94960351D02*
X205141571Y-94160351D01*
X205522523Y-94960351D02*
X205522523Y-94160351D01*
X205522523Y-94160351D02*
X205712999Y-94160351D01*
X205712999Y-94160351D02*
X205827285Y-94198446D01*
X205827285Y-94198446D02*
X205903475Y-94274636D01*
X205903475Y-94274636D02*
X205941570Y-94350827D01*
X205941570Y-94350827D02*
X205979666Y-94503208D01*
X205979666Y-94503208D02*
X205979666Y-94617494D01*
X205979666Y-94617494D02*
X205941570Y-94769875D01*
X205941570Y-94769875D02*
X205903475Y-94846065D01*
X205903475Y-94846065D02*
X205827285Y-94922256D01*
X205827285Y-94922256D02*
X205712999Y-94960351D01*
X205712999Y-94960351D02*
X205522523Y-94960351D01*
X204195523Y-104320351D02*
X204271713Y-104320351D01*
X204271713Y-104320351D02*
X204347904Y-104358446D01*
X204347904Y-104358446D02*
X204385999Y-104396541D01*
X204385999Y-104396541D02*
X204424094Y-104472732D01*
X204424094Y-104472732D02*
X204462189Y-104625113D01*
X204462189Y-104625113D02*
X204462189Y-104815589D01*
X204462189Y-104815589D02*
X204424094Y-104967970D01*
X204424094Y-104967970D02*
X204385999Y-105044160D01*
X204385999Y-105044160D02*
X204347904Y-105082256D01*
X204347904Y-105082256D02*
X204271713Y-105120351D01*
X204271713Y-105120351D02*
X204195523Y-105120351D01*
X204195523Y-105120351D02*
X204119332Y-105082256D01*
X204119332Y-105082256D02*
X204081237Y-105044160D01*
X204081237Y-105044160D02*
X204043142Y-104967970D01*
X204043142Y-104967970D02*
X204005046Y-104815589D01*
X204005046Y-104815589D02*
X204005046Y-104625113D01*
X204005046Y-104625113D02*
X204043142Y-104472732D01*
X204043142Y-104472732D02*
X204081237Y-104396541D01*
X204081237Y-104396541D02*
X204119332Y-104358446D01*
X204119332Y-104358446D02*
X204195523Y-104320351D01*
X204766951Y-104396541D02*
X204805047Y-104358446D01*
X204805047Y-104358446D02*
X204881237Y-104320351D01*
X204881237Y-104320351D02*
X205071713Y-104320351D01*
X205071713Y-104320351D02*
X205147904Y-104358446D01*
X205147904Y-104358446D02*
X205185999Y-104396541D01*
X205185999Y-104396541D02*
X205224094Y-104472732D01*
X205224094Y-104472732D02*
X205224094Y-104548922D01*
X205224094Y-104548922D02*
X205185999Y-104663208D01*
X205185999Y-104663208D02*
X204728856Y-105120351D01*
X204728856Y-105120351D02*
X205224094Y-105120351D01*
X205605047Y-105120351D02*
X205757428Y-105120351D01*
X205757428Y-105120351D02*
X205833618Y-105082256D01*
X205833618Y-105082256D02*
X205871714Y-105044160D01*
X205871714Y-105044160D02*
X205947904Y-104929875D01*
X205947904Y-104929875D02*
X205985999Y-104777494D01*
X205985999Y-104777494D02*
X205985999Y-104472732D01*
X205985999Y-104472732D02*
X205947904Y-104396541D01*
X205947904Y-104396541D02*
X205909809Y-104358446D01*
X205909809Y-104358446D02*
X205833618Y-104320351D01*
X205833618Y-104320351D02*
X205681237Y-104320351D01*
X205681237Y-104320351D02*
X205605047Y-104358446D01*
X205605047Y-104358446D02*
X205566952Y-104396541D01*
X205566952Y-104396541D02*
X205528856Y-104472732D01*
X205528856Y-104472732D02*
X205528856Y-104663208D01*
X205528856Y-104663208D02*
X205566952Y-104739398D01*
X205566952Y-104739398D02*
X205605047Y-104777494D01*
X205605047Y-104777494D02*
X205681237Y-104815589D01*
X205681237Y-104815589D02*
X205833618Y-104815589D01*
X205833618Y-104815589D02*
X205909809Y-104777494D01*
X205909809Y-104777494D02*
X205947904Y-104739398D01*
X205947904Y-104739398D02*
X205985999Y-104663208D01*
D12*
X194676617Y-119168384D02*
X194676617Y-120168384D01*
X194676617Y-119311241D02*
X194748046Y-119239813D01*
X194748046Y-119239813D02*
X194890903Y-119168384D01*
X194890903Y-119168384D02*
X195105189Y-119168384D01*
X195105189Y-119168384D02*
X195248046Y-119239813D01*
X195248046Y-119239813D02*
X195319475Y-119382670D01*
X195319475Y-119382670D02*
X195319475Y-120168384D01*
X196033760Y-120168384D02*
X196033760Y-119168384D01*
X196033760Y-118668384D02*
X195962332Y-118739813D01*
X195962332Y-118739813D02*
X196033760Y-118811241D01*
X196033760Y-118811241D02*
X196105189Y-118739813D01*
X196105189Y-118739813D02*
X196033760Y-118668384D01*
X196033760Y-118668384D02*
X196033760Y-118811241D01*
X197390904Y-120096956D02*
X197248046Y-120168384D01*
X197248046Y-120168384D02*
X196962332Y-120168384D01*
X196962332Y-120168384D02*
X196819475Y-120096956D01*
X196819475Y-120096956D02*
X196748046Y-120025527D01*
X196748046Y-120025527D02*
X196676618Y-119882670D01*
X196676618Y-119882670D02*
X196676618Y-119454098D01*
X196676618Y-119454098D02*
X196748046Y-119311241D01*
X196748046Y-119311241D02*
X196819475Y-119239813D01*
X196819475Y-119239813D02*
X196962332Y-119168384D01*
X196962332Y-119168384D02*
X197248046Y-119168384D01*
X197248046Y-119168384D02*
X197390904Y-119239813D01*
X198605189Y-120096956D02*
X198462332Y-120168384D01*
X198462332Y-120168384D02*
X198176618Y-120168384D01*
X198176618Y-120168384D02*
X198033760Y-120096956D01*
X198033760Y-120096956D02*
X197962332Y-119954098D01*
X197962332Y-119954098D02*
X197962332Y-119382670D01*
X197962332Y-119382670D02*
X198033760Y-119239813D01*
X198033760Y-119239813D02*
X198176618Y-119168384D01*
X198176618Y-119168384D02*
X198462332Y-119168384D01*
X198462332Y-119168384D02*
X198605189Y-119239813D01*
X198605189Y-119239813D02*
X198676618Y-119382670D01*
X198676618Y-119382670D02*
X198676618Y-119525527D01*
X198676618Y-119525527D02*
X197962332Y-119668384D01*
X199319474Y-120025527D02*
X199390903Y-120096956D01*
X199390903Y-120096956D02*
X199319474Y-120168384D01*
X199319474Y-120168384D02*
X199248046Y-120096956D01*
X199248046Y-120096956D02*
X199319474Y-120025527D01*
X199319474Y-120025527D02*
X199319474Y-120168384D01*
X199319474Y-119596956D02*
X199248046Y-118739813D01*
X199248046Y-118739813D02*
X199319474Y-118668384D01*
X199319474Y-118668384D02*
X199390903Y-118739813D01*
X199390903Y-118739813D02*
X199319474Y-119596956D01*
X199319474Y-119596956D02*
X199319474Y-118668384D01*
X200033760Y-119168384D02*
X200033760Y-120168384D01*
X200033760Y-119311241D02*
X200105189Y-119239813D01*
X200105189Y-119239813D02*
X200248046Y-119168384D01*
X200248046Y-119168384D02*
X200462332Y-119168384D01*
X200462332Y-119168384D02*
X200605189Y-119239813D01*
X200605189Y-119239813D02*
X200676618Y-119382670D01*
X200676618Y-119382670D02*
X200676618Y-120168384D01*
X202033761Y-120168384D02*
X202033761Y-119382670D01*
X202033761Y-119382670D02*
X201962332Y-119239813D01*
X201962332Y-119239813D02*
X201819475Y-119168384D01*
X201819475Y-119168384D02*
X201533761Y-119168384D01*
X201533761Y-119168384D02*
X201390903Y-119239813D01*
X202033761Y-120096956D02*
X201890903Y-120168384D01*
X201890903Y-120168384D02*
X201533761Y-120168384D01*
X201533761Y-120168384D02*
X201390903Y-120096956D01*
X201390903Y-120096956D02*
X201319475Y-119954098D01*
X201319475Y-119954098D02*
X201319475Y-119811241D01*
X201319475Y-119811241D02*
X201390903Y-119668384D01*
X201390903Y-119668384D02*
X201533761Y-119596956D01*
X201533761Y-119596956D02*
X201890903Y-119596956D01*
X201890903Y-119596956D02*
X202033761Y-119525527D01*
X202748046Y-119168384D02*
X202748046Y-120168384D01*
X202748046Y-119311241D02*
X202819475Y-119239813D01*
X202819475Y-119239813D02*
X202962332Y-119168384D01*
X202962332Y-119168384D02*
X203176618Y-119168384D01*
X203176618Y-119168384D02*
X203319475Y-119239813D01*
X203319475Y-119239813D02*
X203390904Y-119382670D01*
X203390904Y-119382670D02*
X203390904Y-120168384D01*
X204319475Y-120168384D02*
X204176618Y-120096956D01*
X204176618Y-120096956D02*
X204105189Y-120025527D01*
X204105189Y-120025527D02*
X204033761Y-119882670D01*
X204033761Y-119882670D02*
X204033761Y-119454098D01*
X204033761Y-119454098D02*
X204105189Y-119311241D01*
X204105189Y-119311241D02*
X204176618Y-119239813D01*
X204176618Y-119239813D02*
X204319475Y-119168384D01*
X204319475Y-119168384D02*
X204533761Y-119168384D01*
X204533761Y-119168384D02*
X204676618Y-119239813D01*
X204676618Y-119239813D02*
X204748047Y-119311241D01*
X204748047Y-119311241D02*
X204819475Y-119454098D01*
X204819475Y-119454098D02*
X204819475Y-119882670D01*
X204819475Y-119882670D02*
X204748047Y-120025527D01*
X204748047Y-120025527D02*
X204676618Y-120096956D01*
X204676618Y-120096956D02*
X204533761Y-120168384D01*
X204533761Y-120168384D02*
X204319475Y-120168384D01*
D11*
X193121142Y-106890353D02*
X193197332Y-106890353D01*
X193197332Y-106890353D02*
X193273523Y-106928448D01*
X193273523Y-106928448D02*
X193311618Y-106966543D01*
X193311618Y-106966543D02*
X193349713Y-107042734D01*
X193349713Y-107042734D02*
X193387808Y-107195115D01*
X193387808Y-107195115D02*
X193387808Y-107385591D01*
X193387808Y-107385591D02*
X193349713Y-107537972D01*
X193349713Y-107537972D02*
X193311618Y-107614162D01*
X193311618Y-107614162D02*
X193273523Y-107652258D01*
X193273523Y-107652258D02*
X193197332Y-107690353D01*
X193197332Y-107690353D02*
X193121142Y-107690353D01*
X193121142Y-107690353D02*
X193044951Y-107652258D01*
X193044951Y-107652258D02*
X193006856Y-107614162D01*
X193006856Y-107614162D02*
X192968761Y-107537972D01*
X192968761Y-107537972D02*
X192930665Y-107385591D01*
X192930665Y-107385591D02*
X192930665Y-107195115D01*
X192930665Y-107195115D02*
X192968761Y-107042734D01*
X192968761Y-107042734D02*
X193006856Y-106966543D01*
X193006856Y-106966543D02*
X193044951Y-106928448D01*
X193044951Y-106928448D02*
X193121142Y-106890353D01*
X193692570Y-106966543D02*
X193730666Y-106928448D01*
X193730666Y-106928448D02*
X193806856Y-106890353D01*
X193806856Y-106890353D02*
X193997332Y-106890353D01*
X193997332Y-106890353D02*
X194073523Y-106928448D01*
X194073523Y-106928448D02*
X194111618Y-106966543D01*
X194111618Y-106966543D02*
X194149713Y-107042734D01*
X194149713Y-107042734D02*
X194149713Y-107118924D01*
X194149713Y-107118924D02*
X194111618Y-107233210D01*
X194111618Y-107233210D02*
X193654475Y-107690353D01*
X193654475Y-107690353D02*
X194149713Y-107690353D01*
X194454475Y-106966543D02*
X194492571Y-106928448D01*
X194492571Y-106928448D02*
X194568761Y-106890353D01*
X194568761Y-106890353D02*
X194759237Y-106890353D01*
X194759237Y-106890353D02*
X194835428Y-106928448D01*
X194835428Y-106928448D02*
X194873523Y-106966543D01*
X194873523Y-106966543D02*
X194911618Y-107042734D01*
X194911618Y-107042734D02*
X194911618Y-107118924D01*
X194911618Y-107118924D02*
X194873523Y-107233210D01*
X194873523Y-107233210D02*
X194416380Y-107690353D01*
X194416380Y-107690353D02*
X194911618Y-107690353D01*
X204379666Y-92420351D02*
X204112999Y-92039398D01*
X203922523Y-92420351D02*
X203922523Y-91620351D01*
X203922523Y-91620351D02*
X204227285Y-91620351D01*
X204227285Y-91620351D02*
X204303475Y-91658446D01*
X204303475Y-91658446D02*
X204341570Y-91696541D01*
X204341570Y-91696541D02*
X204379666Y-91772732D01*
X204379666Y-91772732D02*
X204379666Y-91887017D01*
X204379666Y-91887017D02*
X204341570Y-91963208D01*
X204341570Y-91963208D02*
X204303475Y-92001303D01*
X204303475Y-92001303D02*
X204227285Y-92039398D01*
X204227285Y-92039398D02*
X203922523Y-92039398D01*
X204684427Y-92191779D02*
X205065380Y-92191779D01*
X204608237Y-92420351D02*
X204874904Y-91620351D01*
X204874904Y-91620351D02*
X205141570Y-92420351D01*
X205332046Y-91620351D02*
X205522522Y-92420351D01*
X205522522Y-92420351D02*
X205674903Y-91848922D01*
X205674903Y-91848922D02*
X205827284Y-92420351D01*
X205827284Y-92420351D02*
X206017761Y-91620351D01*
X204195523Y-101780351D02*
X204271713Y-101780351D01*
X204271713Y-101780351D02*
X204347904Y-101818446D01*
X204347904Y-101818446D02*
X204385999Y-101856541D01*
X204385999Y-101856541D02*
X204424094Y-101932732D01*
X204424094Y-101932732D02*
X204462189Y-102085113D01*
X204462189Y-102085113D02*
X204462189Y-102275589D01*
X204462189Y-102275589D02*
X204424094Y-102427970D01*
X204424094Y-102427970D02*
X204385999Y-102504160D01*
X204385999Y-102504160D02*
X204347904Y-102542256D01*
X204347904Y-102542256D02*
X204271713Y-102580351D01*
X204271713Y-102580351D02*
X204195523Y-102580351D01*
X204195523Y-102580351D02*
X204119332Y-102542256D01*
X204119332Y-102542256D02*
X204081237Y-102504160D01*
X204081237Y-102504160D02*
X204043142Y-102427970D01*
X204043142Y-102427970D02*
X204005046Y-102275589D01*
X204005046Y-102275589D02*
X204005046Y-102085113D01*
X204005046Y-102085113D02*
X204043142Y-101932732D01*
X204043142Y-101932732D02*
X204081237Y-101856541D01*
X204081237Y-101856541D02*
X204119332Y-101818446D01*
X204119332Y-101818446D02*
X204195523Y-101780351D01*
X204728856Y-101780351D02*
X205224094Y-101780351D01*
X205224094Y-101780351D02*
X204957428Y-102085113D01*
X204957428Y-102085113D02*
X205071713Y-102085113D01*
X205071713Y-102085113D02*
X205147904Y-102123208D01*
X205147904Y-102123208D02*
X205185999Y-102161303D01*
X205185999Y-102161303D02*
X205224094Y-102237494D01*
X205224094Y-102237494D02*
X205224094Y-102427970D01*
X205224094Y-102427970D02*
X205185999Y-102504160D01*
X205185999Y-102504160D02*
X205147904Y-102542256D01*
X205147904Y-102542256D02*
X205071713Y-102580351D01*
X205071713Y-102580351D02*
X204843142Y-102580351D01*
X204843142Y-102580351D02*
X204766951Y-102542256D01*
X204766951Y-102542256D02*
X204728856Y-102504160D01*
X205985999Y-102580351D02*
X205528856Y-102580351D01*
X205757428Y-102580351D02*
X205757428Y-101780351D01*
X205757428Y-101780351D02*
X205681237Y-101894636D01*
X205681237Y-101894636D02*
X205605047Y-101970827D01*
X205605047Y-101970827D02*
X205528856Y-102008922D01*
X204462189Y-110200351D02*
X204005046Y-110200351D01*
X204233618Y-110200351D02*
X204233618Y-109400351D01*
X204233618Y-109400351D02*
X204157427Y-109514636D01*
X204157427Y-109514636D02*
X204081237Y-109590827D01*
X204081237Y-109590827D02*
X204005046Y-109628922D01*
X205224094Y-110200351D02*
X204766951Y-110200351D01*
X204995523Y-110200351D02*
X204995523Y-109400351D01*
X204995523Y-109400351D02*
X204919332Y-109514636D01*
X204919332Y-109514636D02*
X204843142Y-109590827D01*
X204843142Y-109590827D02*
X204766951Y-109628922D01*
X205947904Y-109400351D02*
X205566952Y-109400351D01*
X205566952Y-109400351D02*
X205528856Y-109781303D01*
X205528856Y-109781303D02*
X205566952Y-109743208D01*
X205566952Y-109743208D02*
X205643142Y-109705113D01*
X205643142Y-109705113D02*
X205833618Y-109705113D01*
X205833618Y-109705113D02*
X205909809Y-109743208D01*
X205909809Y-109743208D02*
X205947904Y-109781303D01*
X205947904Y-109781303D02*
X205985999Y-109857494D01*
X205985999Y-109857494D02*
X205985999Y-110047970D01*
X205985999Y-110047970D02*
X205947904Y-110124160D01*
X205947904Y-110124160D02*
X205909809Y-110162256D01*
X205909809Y-110162256D02*
X205833618Y-110200351D01*
X205833618Y-110200351D02*
X205643142Y-110200351D01*
X205643142Y-110200351D02*
X205566952Y-110162256D01*
X205566952Y-110162256D02*
X205528856Y-110124160D01*
%TO.C,T1*%
X196158338Y-123528052D02*
X196158336Y-126378054D01*
X197508336Y-126378054D02*
X201408336Y-126378054D01*
X199458336Y-126378054D02*
X196158336Y-126378054D01*
X199458336Y-126378054D02*
X202758336Y-126378053D01*
X202758336Y-123528054D02*
X196158338Y-123528052D01*
X202758336Y-126378053D02*
X202758336Y-123528054D01*
D13*
%TO.C,D3*%
X82247420Y-119663211D02*
X82643527Y-119607542D01*
X82643527Y-119607542D02*
X82566982Y-119062894D01*
X82643527Y-119607542D02*
X82720072Y-120152189D01*
X82643527Y-119607542D02*
X83182019Y-119127930D01*
X83182019Y-119127930D02*
X83293357Y-119920145D01*
X83237688Y-119524038D02*
X83732822Y-119454451D01*
X83293357Y-119920145D02*
X82643527Y-119607542D01*
%TO.C,D8*%
X121708336Y-127528058D02*
X122108337Y-127528055D01*
X122108337Y-127528055D02*
X122108336Y-128078058D01*
X122108337Y-127528055D02*
X122108337Y-126978055D01*
X122108337Y-127528055D02*
X122708337Y-127128055D01*
X122708337Y-127128055D02*
X122708337Y-127928055D01*
X122708337Y-127528055D02*
X123208338Y-127528052D01*
X122708337Y-127928055D02*
X122108337Y-127528055D01*
%TO.C,D14*%
X157708335Y-144528058D02*
X158108336Y-144528055D01*
X158108336Y-144528055D02*
X158108335Y-145078058D01*
X158108336Y-144528055D02*
X158108336Y-143978055D01*
X158108336Y-144528055D02*
X158708336Y-144128055D01*
X158708336Y-144128055D02*
X158708336Y-144928055D01*
X158708336Y-144528055D02*
X159208337Y-144528052D01*
X158708336Y-144928055D02*
X158108336Y-144528055D01*
%TO.C,D12*%
X139708334Y-108028057D02*
X140108335Y-108028054D01*
X140108335Y-108028054D02*
X140108334Y-108578057D01*
X140108335Y-108028054D02*
X140108335Y-107478054D01*
X140108335Y-108028054D02*
X140708335Y-107628054D01*
X140708335Y-107628054D02*
X140708335Y-108428054D01*
X140708335Y-108028054D02*
X141208336Y-108028051D01*
X140708335Y-108428054D02*
X140108335Y-108028054D01*
%TO.C,D2*%
X84613363Y-136497770D02*
X85009470Y-136442101D01*
X85009470Y-136442101D02*
X84932925Y-135897453D01*
X85009470Y-136442101D02*
X85086015Y-136986748D01*
X85009470Y-136442101D02*
X85547962Y-135962489D01*
X85547962Y-135962489D02*
X85659300Y-136754704D01*
X85603631Y-136358597D02*
X86098765Y-136289010D01*
X85659300Y-136754704D02*
X85009470Y-136442101D01*
%TO.C,D9*%
X121708336Y-110528057D02*
X122108337Y-110528054D01*
X122108337Y-110528054D02*
X122108336Y-111078057D01*
X122108337Y-110528054D02*
X122108337Y-109978054D01*
X122108337Y-110528054D02*
X122708337Y-110128054D01*
X122708337Y-110128054D02*
X122708337Y-110928054D01*
X122708337Y-110528054D02*
X123208338Y-110528051D01*
X122708337Y-110928054D02*
X122108337Y-110528054D01*
%TO.C,D18*%
X175708333Y-130028056D02*
X176108334Y-130028053D01*
X176108334Y-130028053D02*
X176108333Y-130578056D01*
X176108334Y-130028053D02*
X176108334Y-129478053D01*
X176108334Y-130028053D02*
X176708334Y-129628053D01*
X176708334Y-129628053D02*
X176708334Y-130428053D01*
X176708334Y-130028053D02*
X177208335Y-130028050D01*
X176708334Y-130428053D02*
X176108334Y-130028053D01*
%TO.C,D1*%
X86979305Y-153332330D02*
X87375412Y-153276661D01*
X87375412Y-153276661D02*
X87298867Y-152732013D01*
X87375412Y-153276661D02*
X87451957Y-153821308D01*
X87375412Y-153276661D02*
X87913904Y-152797049D01*
X87913904Y-152797049D02*
X88025242Y-153589264D01*
X87969573Y-153193157D02*
X88464707Y-153123570D01*
X88025242Y-153589264D02*
X87375412Y-153276661D01*
%TO.C,D19*%
X175708335Y-113028058D02*
X176108336Y-113028055D01*
X176108336Y-113028055D02*
X176108335Y-113578058D01*
X176108336Y-113028055D02*
X176108336Y-112478055D01*
X176108336Y-113028055D02*
X176708336Y-112628055D01*
X176708336Y-112628055D02*
X176708336Y-113428055D01*
X176708336Y-113028055D02*
X177208337Y-113028052D01*
X176708336Y-113428055D02*
X176108336Y-113028055D01*
%TO.C,D11*%
X139708332Y-125028058D02*
X140108333Y-125028055D01*
X140108333Y-125028055D02*
X140108332Y-125578058D01*
X140108333Y-125028055D02*
X140108333Y-124478055D01*
X140108333Y-125028055D02*
X140708333Y-124628055D01*
X140708333Y-124628055D02*
X140708333Y-125428055D01*
X140708333Y-125028055D02*
X141208334Y-125028052D01*
X140708333Y-125428055D02*
X140108333Y-125028055D01*
%TO.C,D6*%
X102079856Y-116894451D02*
X102478881Y-116866549D01*
X102478881Y-116866549D02*
X102440514Y-116317889D01*
X102478881Y-116866549D02*
X102517248Y-117415209D01*
X102478881Y-116866549D02*
X103049517Y-116425669D01*
X103049517Y-116425669D02*
X103105323Y-117223721D01*
X103077420Y-116824695D02*
X103576202Y-116789817D01*
X103105323Y-117223721D02*
X102478881Y-116866549D01*
%TO.C,D22*%
X193793557Y-156740005D02*
X194139967Y-156940005D01*
X194139967Y-156940005D02*
X193864967Y-157416319D01*
X194139967Y-156940005D02*
X194414966Y-156463694D01*
X194139967Y-156940005D02*
X194859582Y-156893595D01*
X194459582Y-157586415D02*
X194139967Y-156940005D01*
X194659582Y-157240003D02*
X195092595Y-157490005D01*
X194859582Y-156893595D02*
X194459582Y-157586415D01*
%TO.C,D17*%
X157708336Y-93528055D02*
X158108337Y-93528052D01*
X158108337Y-93528052D02*
X158108336Y-94078055D01*
X158108337Y-93528052D02*
X158108337Y-92978052D01*
X158108337Y-93528052D02*
X158708337Y-93128052D01*
X158708337Y-93128052D02*
X158708337Y-93928052D01*
X158708337Y-93528052D02*
X159208338Y-93528049D01*
X158708337Y-93928052D02*
X158108337Y-93528052D01*
%TO.C,D20*%
X175708333Y-96028063D02*
X176108334Y-96028060D01*
X176108334Y-96028060D02*
X176108333Y-96578063D01*
X176108334Y-96028060D02*
X176108334Y-95478060D01*
X176108334Y-96028060D02*
X176708334Y-95628060D01*
X176708334Y-95628060D02*
X176708334Y-96428060D01*
X176708334Y-96028060D02*
X177208335Y-96028057D01*
X176708334Y-96428060D02*
X176108334Y-96028060D01*
D14*
%TO.C,MCU1*%
X190568332Y-88248056D02*
X190568332Y-121268056D01*
X190568332Y-121268056D02*
X208348332Y-121268056D01*
X208348332Y-88248056D02*
X190568332Y-88248056D01*
X208348332Y-121268056D02*
X208348332Y-88248056D01*
D13*
%TO.C,D10*%
X121708334Y-93528054D02*
X122108335Y-93528051D01*
X122108335Y-93528051D02*
X122108334Y-94078054D01*
X122108335Y-93528051D02*
X122108335Y-92978051D01*
X122108335Y-93528051D02*
X122708335Y-93128051D01*
X122708335Y-93128051D02*
X122708335Y-93928051D01*
X122708335Y-93528051D02*
X123208336Y-93528048D01*
X122708335Y-93928051D02*
X122108335Y-93528051D01*
%TO.C,D21*%
X176310384Y-149146531D02*
X176696754Y-149250059D01*
X176696754Y-149250059D02*
X176554406Y-149781319D01*
X176696754Y-149250059D02*
X176839101Y-148718798D01*
X176696754Y-149250059D02*
X177379837Y-149018980D01*
X177172779Y-149791721D02*
X176696754Y-149250059D01*
X177276309Y-149405351D02*
X177759272Y-149534761D01*
X177379837Y-149018980D02*
X177172779Y-149791721D01*
%TO.C,D15*%
X157708333Y-127528060D02*
X158108334Y-127528057D01*
X158108334Y-127528057D02*
X158108333Y-128078060D01*
X158108334Y-127528057D02*
X158108334Y-126978057D01*
X158108334Y-127528057D02*
X158708334Y-127128057D01*
X158708334Y-127128057D02*
X158708334Y-127928057D01*
X158708334Y-127528057D02*
X159208335Y-127528054D01*
X158708334Y-127928057D02*
X158108334Y-127528057D01*
%TO.C,D5*%
X103265715Y-133853037D02*
X103664740Y-133825135D01*
X103664740Y-133825135D02*
X103626373Y-133276475D01*
X103664740Y-133825135D02*
X103703107Y-134373795D01*
X103664740Y-133825135D02*
X104235376Y-133384255D01*
X104235376Y-133384255D02*
X104291182Y-134182307D01*
X104263279Y-133783281D02*
X104762061Y-133748403D01*
X104291182Y-134182307D02*
X103664740Y-133825135D01*
%TO.C,D4*%
X79881478Y-102828656D02*
X80277585Y-102772987D01*
X80277585Y-102772987D02*
X80201040Y-102228339D01*
X80277585Y-102772987D02*
X80354130Y-103317634D01*
X80277585Y-102772987D02*
X80816077Y-102293375D01*
X80816077Y-102293375D02*
X80927415Y-103085590D01*
X80871746Y-102689483D02*
X81366880Y-102619896D01*
X80927415Y-103085590D02*
X80277585Y-102772987D01*
%TO.C,D7*%
X100893995Y-99935864D02*
X101293020Y-99907962D01*
X101293020Y-99907962D02*
X101254653Y-99359302D01*
X101293020Y-99907962D02*
X101331387Y-100456622D01*
X101293020Y-99907962D02*
X101863656Y-99467082D01*
X101863656Y-99467082D02*
X101919462Y-100265134D01*
X101891559Y-99866108D02*
X102390341Y-99831230D01*
X101919462Y-100265134D02*
X101293020Y-99907962D01*
%TO.C,D13*%
X139708334Y-91028057D02*
X140108335Y-91028054D01*
X140108335Y-91028054D02*
X140108334Y-91578057D01*
X140108335Y-91028054D02*
X140108335Y-90478054D01*
X140108335Y-91028054D02*
X140708335Y-90628054D01*
X140708335Y-90628054D02*
X140708335Y-91428054D01*
X140708335Y-91028054D02*
X141208336Y-91028051D01*
X140708335Y-91428054D02*
X140108335Y-91028054D01*
%TO.C,D16*%
X157708336Y-110528055D02*
X158108337Y-110528052D01*
X158108337Y-110528052D02*
X158108336Y-111078055D01*
X158108337Y-110528052D02*
X158108337Y-109978052D01*
X158108337Y-110528052D02*
X158708337Y-110128052D01*
X158708337Y-110128052D02*
X158708337Y-110928052D01*
X158708337Y-110528052D02*
X159208338Y-110528049D01*
X158708337Y-110928052D02*
X158108337Y-110528052D01*
%TD*%
D15*
%TO.C,MCU1*%
X191838332Y-92058056D03*
X191838330Y-94598057D03*
X191838332Y-97138056D03*
X191838332Y-99678056D03*
X191838332Y-102218056D03*
X191838332Y-104758056D03*
X191838332Y-107298056D03*
X191838332Y-109838056D03*
X191838332Y-112378056D03*
X191838332Y-114918056D03*
X191838331Y-117458059D03*
X191838332Y-119998056D03*
X207078332Y-119998056D03*
X207078334Y-117458055D03*
X207078332Y-114918056D03*
X207078332Y-112378056D03*
X207078332Y-109838056D03*
X207078332Y-107298056D03*
X207078332Y-104758056D03*
X207078332Y-102218056D03*
X207078332Y-99678056D03*
X207078332Y-97138056D03*
X207078333Y-94598053D03*
X207078332Y-92058056D03*
X194378332Y-114918056D03*
X196918332Y-114918056D03*
X199458332Y-114918056D03*
%TD*%
M02*
