%TF.GenerationSoftware,KiCad,Pcbnew,9.0.3*%
%TF.CreationDate,2025-07-25T16:03:50+02:00*%
%TF.ProjectId,left_pcb,6c656674-5f70-4636-922e-6b696361645f,v1.0.0*%
%TF.SameCoordinates,Original*%
%TF.FileFunction,Paste,Bot*%
%TF.FilePolarity,Positive*%
%FSLAX46Y46*%
G04 Gerber Fmt 4.6, Leading zero omitted, Abs format (unit mm)*
G04 Created by KiCad (PCBNEW 9.0.3) date 2025-07-25 16:03:50*
%MOMM*%
%LPD*%
G01*
G04 APERTURE LIST*
G04 Aperture macros list*
%AMRotRect*
0 Rectangle, with rotation*
0 The origin of the aperture is its center*
0 $1 length*
0 $2 width*
0 $3 Rotation angle, in degrees counterclockwise*
0 Add horizontal line*
21,1,$1,$2,0,0,$3*%
G04 Aperture macros list end*
%ADD10RotRect,0.900000X1.200000X8.000000*%
%ADD11R,2.600000X2.600000*%
%ADD12R,0.900000X1.200000*%
%ADD13RotRect,2.600000X2.600000X330.000000*%
%ADD14RotRect,0.900000X1.200000X4.000000*%
%ADD15RotRect,0.900000X1.200000X330.000000*%
%ADD16RotRect,2.600000X2.600000X4.000000*%
%ADD17RotRect,2.600000X2.600000X8.000000*%
%ADD18RotRect,0.900000X1.200000X345.000000*%
%ADD19RotRect,2.600000X2.600000X345.000000*%
G04 APERTURE END LIST*
D10*
%TO.C,D3*%
X81356179Y-119788464D03*
X84624063Y-119329198D03*
%TD*%
D11*
%TO.C,S9*%
X119183333Y-99578058D03*
X130733333Y-101778058D03*
%TD*%
D12*
%TO.C,D8*%
X120808337Y-127528055D03*
X124108337Y-127528055D03*
%TD*%
%TO.C,D14*%
X156808336Y-144528055D03*
X160108336Y-144528055D03*
%TD*%
%TO.C,D12*%
X138808335Y-108028054D03*
X142108335Y-108028054D03*
%TD*%
D11*
%TO.C,S17*%
X155183339Y-82578055D03*
X166733339Y-84778055D03*
%TD*%
D13*
%TO.C,S22*%
X197081843Y-145994527D03*
X205984436Y-153674783D03*
%TD*%
D10*
%TO.C,D2*%
X83722122Y-136623023D03*
X86990006Y-136163757D03*
%TD*%
D11*
%TO.C,S13*%
X137183337Y-80078056D03*
X148733337Y-82278056D03*
%TD*%
D12*
%TO.C,D9*%
X120808337Y-110528054D03*
X124108337Y-110528054D03*
%TD*%
D11*
%TO.C,S20*%
X173183336Y-85078054D03*
X184733336Y-87278054D03*
%TD*%
D12*
%TO.C,D18*%
X174808334Y-130028053D03*
X178108334Y-130028053D03*
%TD*%
D10*
%TO.C,D1*%
X86088064Y-153457583D03*
X89355948Y-152998317D03*
%TD*%
D12*
%TO.C,D19*%
X174808336Y-113028055D03*
X178108336Y-113028055D03*
%TD*%
D11*
%TO.C,S10*%
X119183336Y-82578057D03*
X130733336Y-84778057D03*
%TD*%
D12*
%TO.C,D11*%
X138808333Y-125028055D03*
X142108333Y-125028055D03*
%TD*%
D14*
%TO.C,D6*%
X101182048Y-116957230D03*
X104474010Y-116727038D03*
%TD*%
D11*
%TO.C,S14*%
X155183332Y-133578053D03*
X166733332Y-135778053D03*
%TD*%
D15*
%TO.C,D22*%
X193014134Y-156290005D03*
X195872018Y-157940005D03*
%TD*%
D12*
%TO.C,D17*%
X156808337Y-93528052D03*
X160108337Y-93528052D03*
%TD*%
%TO.C,D20*%
X174808334Y-96028060D03*
X178108334Y-96028060D03*
%TD*%
D16*
%TO.C,S7*%
X97611313Y-89188673D03*
X109286642Y-90577627D03*
%TD*%
D17*
%TO.C,S2*%
X80588983Y-126005751D03*
X92332762Y-126576890D03*
%TD*%
D12*
%TO.C,D10*%
X120808335Y-93528051D03*
X124108335Y-93528051D03*
%TD*%
D18*
%TO.C,D21*%
X175441050Y-148913596D03*
X178628606Y-149767696D03*
%TD*%
D12*
%TO.C,D15*%
X156808334Y-127528057D03*
X160108334Y-127528057D03*
%TD*%
D11*
%TO.C,S12*%
X137183335Y-97078049D03*
X148733335Y-99278049D03*
%TD*%
%TO.C,S16*%
X155183332Y-99578056D03*
X166733332Y-101778056D03*
%TD*%
%TO.C,S11*%
X137183334Y-114078055D03*
X148733334Y-116278055D03*
%TD*%
D14*
%TO.C,D5*%
X102367907Y-133915816D03*
X105659869Y-133685624D03*
%TD*%
D10*
%TO.C,D4*%
X78990237Y-102953909D03*
X82258121Y-102494643D03*
%TD*%
D17*
%TO.C,S4*%
X75857102Y-92336634D03*
X87600881Y-92907773D03*
%TD*%
D19*
%TO.C,S21*%
X176705490Y-137916128D03*
X187292532Y-143030525D03*
%TD*%
D17*
%TO.C,S1*%
X82954929Y-142840303D03*
X94698708Y-143411442D03*
%TD*%
%TO.C,S3*%
X78223047Y-109171194D03*
X89966826Y-109742333D03*
%TD*%
D11*
%TO.C,S19*%
X173183338Y-102078058D03*
X184733338Y-104278058D03*
%TD*%
D16*
%TO.C,S6*%
X98797172Y-106147263D03*
X110472501Y-107536217D03*
%TD*%
D14*
%TO.C,D7*%
X99996187Y-99998643D03*
X103288149Y-99768451D03*
%TD*%
D12*
%TO.C,D13*%
X138808335Y-91028054D03*
X142108335Y-91028054D03*
%TD*%
D16*
%TO.C,S5*%
X99983033Y-123105849D03*
X111658362Y-124494803D03*
%TD*%
D11*
%TO.C,S18*%
X173183333Y-119078056D03*
X184733333Y-121278056D03*
%TD*%
%TO.C,S15*%
X155183333Y-116578053D03*
X166733333Y-118778053D03*
%TD*%
D12*
%TO.C,D16*%
X156808337Y-110528052D03*
X160108337Y-110528052D03*
%TD*%
D11*
%TO.C,S8*%
X119183333Y-116578058D03*
X130733333Y-118778058D03*
%TD*%
M02*
