0
SECTION
2
HEADER
9
$INSUNITS
70
4
0
ENDSEC
0
SECTION
2
TABLES
0
TABLE
2
LTYPE
0
LTYPE
72
65
70
64
2
CONTINUOUS
3
______
73
0
40
0
0
ENDTAB
0
TABLE
2
LAYER
0
ENDTAB
0
ENDSEC
0
SECTION
2
ENTITIES
0
LINE
8
0
10
148.3216817
20
-150.0602883
11
199.9316126
21
-166.6737088
0
LINE
8
0
10
203.4489458
20
-165.3180185
11
212.935733
21
-148.886421
0
LINE
8
0
10
213.3376568
20
-147.386421
11
213.3376568
21
-84.243667
0
LINE
8
0
10
210.7041305
20
-81.266135
11
153.0395694
21
-74.1687996
0
LINE
8
0
10
152.6730957
20
-74.1463316
11
129.8643591
21
-74.1463316
0
LINE
8
0
10
129.4516539
20
-74.1748548
11
111.815367
21
-76.6243391
0
LINE
8
0
10
111.5019095
20
-76.6850277
11
70.3155922
21
-86.9598949
0
LINE
8
0
10
68.0709506
20
-90.2882024
11
77.4623784
21
-157.1116838
0
LINE
8
0
10
80.8694141
20
-159.6622787
11
146.9661932
21
-149.9478644
0
ARC
8
0
10
200.8508696
20
-163.8180185
40
3
50
252.1564464
51
329.9999999
0
ARC
8
0
10
210.3376568
20
-147.386421
40
3
50
329.9999999
51
0
0
ARC
8
0
10
210.3376568
20
-84.243667
40
3
50
0
51
82.9833426
0
ARC
8
0
10
152.6730957
20
-77.1463316
40
3
50
82.9833426
51
90
0
ARC
8
0
10
129.8643591
20
-77.1463316
40
3
50
90
51
97.9071641
0
ARC
8
0
10
112.2280721
20
-79.5958159
40
3
50
97.9071641
51
104.0078131
0
ARC
8
0
10
71.0417548
20
-89.8706831
40
3
50
104.0078131
51
187.9999997
0
ARC
8
0
10
80.4331826
20
-156.6941645
40
3
50
187.9999997
51
278.3610511
0
ARC
8
0
10
147.4024247
20
-152.9159786
40
3
50
72.1564464
51
98.3610511
0
LINE
8
0
10
148.4215207
20
-149.9603265
11
199.8948119
21
-166.5367302
0
LINE
8
0
10
203.4124952
20
-165.1811527
11
212.7991304
21
-148.9230236
0
LINE
8
0
10
213.2010542
20
-147.4230236
11
213.2010542
21
-84.8568112
0
LINE
8
0
10
210.5937419
20
-81.8826228
11
152.9525162
21
-74.2721432
0
LINE
8
0
10
152.5598285
20
-74.2463316
11
129.9643591
21
-74.2463316
0
LINE
8
0
10
129.5516539
20
-74.2748548
11
111.9149946
21
-76.7243908
0
LINE
8
0
10
111.6022644
20
-76.7848981
11
70.429358
21
-87.045495
0
LINE
8
0
10
68.1839892
20
-90.3739838
11
77.547577
21
-156.9993741
0
LINE
8
0
10
80.9539827
20
-159.5500616
11
147.0663121
21
-149.8476972
0
ARC
8
0
10
200.814419
20
-163.6811527
40
3
50
252.1494215
51
329.9999999
0
ARC
8
0
10
210.2010542
20
-147.4230236
40
3
50
329.9999999
51
0
0
ARC
8
0
10
210.2010542
20
-84.8568112
40
3
50
0
51
82.4786339
0
ARC
8
0
10
152.5598285
20
-77.2463316
40
3
50
82.4786339
51
90
0
ARC
8
0
10
129.9643591
20
-77.2463316
40
3
50
90
51
97.9071641
0
ARC
8
0
10
112.3276998
20
-79.6958676
40
3
50
97.9071641
51
103.9934985
0
ARC
8
0
10
71.1547934
20
-89.9564645
40
3
50
103.9934985
51
187.9999997
0
ARC
8
0
10
80.5183812
20
-156.5818548
40
3
50
187.9999997
51
278.3488895
0
ARC
8
0
10
147.5019136
20
-152.815904
40
3
50
72.1494215
51
98.3488895
0
ENDSEC
0
EOF