0
SECTION
2
HEADER
9
$INSUNITS
70
4
0
ENDSEC
0
SECTION
2
TABLES
0
TABLE
2
LTYPE
0
LTYPE
72
65
70
64
2
CONTINUOUS
3
______
73
0
40
0
0
ENDTAB
0
TABLE
2
LAYER
0
ENDTAB
0
ENDSEC
0
SECTION
2
ENTITIES
0
LINE
8
0
10
296.4747119
20
-149.9693984
11
244.5824294
21
-166.6737088
0
LINE
8
0
10
241.0650962
20
-165.3180185
11
231.578309
21
-148.886421
0
LINE
8
0
10
231.1763852
20
-147.386421
11
231.1763852
21
-84.243667
0
LINE
8
0
10
233.8099115
20
-81.266135
11
291.4744726
21
-74.1687996
0
LINE
8
0
10
291.8409463
20
-74.1463316
11
314.6496829
21
-74.1463316
0
LINE
8
0
10
315.0623881
20
-74.1748548
11
332.7430373
21
-76.6305005
0
LINE
8
0
10
332.9694563
20
-76.6708478
11
391.924821
21
-89.525895
0
LINE
8
0
10
394.2565011
20
-92.8745439
11
387.1689463
21
-143.3051167
0
LINE
8
0
10
384.3338723
20
-145.8845254
11
297.2582386
21
-149.8281606
0
ARC
8
0
10
243.6631724
20
-163.8180185
40
3
50
210.0000001
51
287.8435536
0
ARC
8
0
10
234.1763852
20
-147.386421
40
3
50
180
51
210.0000001
0
ARC
8
0
10
234.1763852
20
-84.243667
40
3
50
97.0166574
51
180
0
ARC
8
0
10
291.8409463
20
-77.1463316
40
3
50
90
51
97.0166574
0
ARC
8
0
10
314.6496829
20
-77.1463316
40
3
50
82.0928359
51
90
0
ARC
8
0
10
332.3303321
20
-79.6019773
40
3
50
77.6993545
51
82.0928359
0
ARC
8
0
10
391.2856969
20
-92.4570246
40
3
50
352.0000003
51
77.6993545
0
ARC
8
0
10
384.1981421
20
-142.8875974
40
3
50
272.593141
51
352.0000003
0
ARC
8
0
10
297.3939688
20
-152.8250886
40
3
50
92.593141
51
107.8435536
0
LINE
8
0
10
296.3747465
20
-149.869439
11
244.6192301
21
-166.5367302
0
LINE
8
0
10
241.1015468
20
-165.1811527
11
231.7149116
21
-148.9230236
0
LINE
8
0
10
231.3129878
20
-147.4230236
11
231.3129878
21
-84.8568112
0
LINE
8
0
10
233.9203001
20
-81.8826228
11
291.5615258
21
-74.2721432
0
LINE
8
0
10
291.9542135
20
-74.2463316
11
314.5496829
21
-74.2463316
0
LINE
8
0
10
314.9623881
20
-74.2748548
11
332.6433152
21
-76.7305391
0
LINE
8
0
10
332.8691876
20
-76.7707673
11
391.8112579
21
-89.6114009
0
LINE
8
0
10
394.1434845
20
-92.9601688
11
387.0837888
21
-143.192514
0
LINE
8
0
10
384.2491225
20
-145.7719043
11
297.1582157
21
-149.728107
0
ARC
8
0
10
243.699623
20
-163.6811527
40
3
50
210.0000001
51
287.8505785
0
ARC
8
0
10
234.3129878
20
-147.4230236
40
3
50
180
51
210.0000001
0
ARC
8
0
10
234.3129878
20
-84.8568112
40
3
50
97.5213661
51
180
0
ARC
8
0
10
291.9542135
20
-77.2463316
40
3
50
90
51
97.5213661
0
ARC
8
0
10
314.5496829
20
-77.2463316
40
3
50
82.0928359
51
90
0
ARC
8
0
10
332.23061
20
-79.7020159
40
3
50
77.7100387
51
82.0928359
0
ARC
8
0
10
391.1726803
20
-92.5426495
40
3
50
352.0000003
51
77.7100387
0
ARC
8
0
10
384.1129846
20
-142.7749948
40
3
50
272.6009356
51
352.0000003
0
ARC
8
0
10
297.2943536
20
-152.7250165
40
3
50
92.6009356
51
107.8505785
0
ENDSEC
0
EOF