0
SECTION
2
HEADER
9
$INSUNITS
70
4
0
ENDSEC
0
SECTION
2
TABLES
0
TABLE
2
LTYPE
0
LTYPE
72
65
70
64
2
CONTINUOUS
3
______
73
0
40
0
0
ENDTAB
0
TABLE
2
LAYER
0
ENDTAB
0
ENDSEC
0
SECTION
2
ENTITIES
0
LINE
8
0
10
148.4215207
20
-149.9603265
11
199.8948119
21
-166.5367302
0
LINE
8
0
10
203.4124952
20
-165.1811527
11
212.7991304
21
-148.9230236
0
LINE
8
0
10
213.2010542
20
-147.4230236
11
213.2010542
21
-84.8568112
0
LINE
8
0
10
210.5937419
20
-81.8826228
11
152.9525162
21
-74.2721432
0
LINE
8
0
10
152.5598285
20
-74.2463316
11
129.9643591
21
-74.2463316
0
LINE
8
0
10
129.5516539
20
-74.2748548
11
111.9149946
21
-76.7243908
0
LINE
8
0
10
111.6022644
20
-76.7848981
11
70.429358
21
-87.045495
0
LINE
8
0
10
68.1839892
20
-90.3739838
11
77.547577
21
-156.9993741
0
LINE
8
0
10
80.9539827
20
-159.5500616
11
147.0663121
21
-149.8476972
0
ARC
8
0
10
200.814419
20
-163.6811527
40
3
50
252.1494215
51
329.9999999
0
ARC
8
0
10
210.2010542
20
-147.4230236
40
3
50
329.9999999
51
0
0
ARC
8
0
10
210.2010542
20
-84.8568112
40
3
50
0
51
82.4786339
0
ARC
8
0
10
152.5598285
20
-77.2463316
40
3
50
82.4786339
51
90
0
ARC
8
0
10
129.9643591
20
-77.2463316
40
3
50
90
51
97.9071641
0
ARC
8
0
10
112.3276998
20
-79.6958676
40
3
50
97.9071641
51
103.9934985
0
ARC
8
0
10
71.1547934
20
-89.9564645
40
3
50
103.9934985
51
187.9999997
0
ARC
8
0
10
80.5183812
20
-156.5818548
40
3
50
187.9999997
51
278.3488895
0
ARC
8
0
10
147.5019136
20
-152.815904
40
3
50
72.1494215
51
98.3488895
0
LINE
8
0
10
80.3081577
20
-156.8823604
11
97.6378489
21
-154.4468311
0
LINE
8
0
10
97.6378489
20
-154.4468311
11
95.3414927
21
-138.107408
0
LINE
8
0
10
95.3414927
20
-138.107408
11
78.0118015
21
-140.5429373
0
LINE
8
0
10
78.0118015
20
-140.5429373
11
80.3081577
21
-156.8823604
0
LINE
8
0
10
77.942215
20
-140.0478032
11
95.2719062
21
-137.6122739
0
LINE
8
0
10
95.2719062
20
-137.6122739
11
92.97555
21
-121.2728508
0
LINE
8
0
10
92.97555
20
-121.2728508
11
75.6458588
21
-123.7083801
0
LINE
8
0
10
75.6458588
20
-123.7083801
11
77.942215
21
-140.0478032
0
LINE
8
0
10
75.5762723
20
-123.213246
11
92.9059635
21
-120.7777167
0
LINE
8
0
10
92.9059635
20
-120.7777167
11
90.6096073
21
-104.4382936
0
LINE
8
0
10
90.6096073
20
-104.4382936
11
73.2799161
21
-106.8738229
0
LINE
8
0
10
73.2799161
20
-106.8738229
11
75.5762723
21
-123.213246
0
LINE
8
0
10
73.2103296
20
-106.3786888
11
90.5400208
21
-103.9431595
0
LINE
8
0
10
90.5400208
20
-103.9431595
11
88.2436646
21
-87.6037364
0
LINE
8
0
10
88.2436646
20
-87.6037364
11
70.9139734
21
-90.0392657
0
LINE
8
0
10
70.9139734
20
-90.0392657
11
73.2103296
21
-106.3786888
0
LINE
8
0
10
96.3105959
20
-136.8714521
11
113.7679667
21
-135.6507138
0
LINE
8
0
10
113.7679667
20
-135.6507138
11
112.6169849
21
-119.1909069
0
LINE
8
0
10
112.6169849
20
-119.1909069
11
95.1596141
21
-120.4116452
0
LINE
8
0
10
95.1596141
20
-120.4116452
11
96.3105959
21
-136.8714521
0
LINE
8
0
10
95.1247358
20
-119.9128632
11
112.5821066
21
-118.6921249
0
LINE
8
0
10
112.5821066
20
-118.6921249
11
111.4311248
21
-102.232318
0
LINE
8
0
10
111.4311248
20
-102.232318
11
93.973754
21
-103.4530563
0
LINE
8
0
10
93.973754
20
-103.4530563
11
95.1247358
21
-119.9128632
0
LINE
8
0
10
93.9388757
20
-102.9542743
11
111.3962465
21
-101.733536
0
LINE
8
0
10
111.3962465
20
-101.733536
11
110.2452647
21
-85.2737291
0
LINE
8
0
10
110.2452647
20
-85.2737291
11
92.7878939
21
-86.4944674
0
LINE
8
0
10
92.7878939
20
-86.4944674
11
93.9388757
21
-102.9542743
0
LINE
8
0
10
114.507021
20
-129.9963316
11
132.007021
21
-129.9963316
0
LINE
8
0
10
132.007021
20
-129.9963316
11
132.007021
21
-113.4963316
0
LINE
8
0
10
132.007021
20
-113.4963316
11
114.507021
21
-113.4963316
0
LINE
8
0
10
114.507021
20
-113.4963316
11
114.507021
21
-129.9963316
0
LINE
8
0
10
114.507021
20
-112.9963316
11
132.007021
21
-112.9963316
0
LINE
8
0
10
132.007021
20
-112.9963316
11
132.007021
21
-96.4963316
0
LINE
8
0
10
132.007021
20
-96.4963316
11
114.507021
21
-96.4963316
0
LINE
8
0
10
114.507021
20
-96.4963316
11
114.507021
21
-112.9963316
0
LINE
8
0
10
114.507021
20
-95.9963316
11
132.007021
21
-95.9963316
0
LINE
8
0
10
132.007021
20
-95.9963316
11
132.007021
21
-79.4963316
0
LINE
8
0
10
132.007021
20
-79.4963316
11
114.507021
21
-79.4963316
0
LINE
8
0
10
114.507021
20
-79.4963316
11
114.507021
21
-95.9963316
0
LINE
8
0
10
132.507021
20
-127.4963316
11
150.007021
21
-127.4963316
0
LINE
8
0
10
150.007021
20
-127.4963316
11
150.007021
21
-110.9963316
0
LINE
8
0
10
150.007021
20
-110.9963316
11
132.507021
21
-110.9963316
0
LINE
8
0
10
132.507021
20
-110.9963316
11
132.507021
21
-127.4963316
0
LINE
8
0
10
132.507021
20
-110.4963316
11
150.007021
21
-110.4963316
0
LINE
8
0
10
150.007021
20
-110.4963316
11
150.007021
21
-93.9963316
0
LINE
8
0
10
150.007021
20
-93.9963316
11
132.507021
21
-93.9963316
0
LINE
8
0
10
132.507021
20
-93.9963316
11
132.507021
21
-110.4963316
0
LINE
8
0
10
132.507021
20
-93.4963316
11
150.007021
21
-93.4963316
0
LINE
8
0
10
150.007021
20
-93.4963316
11
150.007021
21
-76.9963316
0
LINE
8
0
10
150.007021
20
-76.9963316
11
132.507021
21
-76.9963316
0
LINE
8
0
10
132.507021
20
-76.9963316
11
132.507021
21
-93.4963316
0
LINE
8
0
10
150.507021
20
-146.9963317
11
168.007021
21
-146.9963317
0
LINE
8
0
10
168.007021
20
-146.9963317
11
168.007021
21
-130.4963317
0
LINE
8
0
10
168.007021
20
-130.4963317
11
150.507021
21
-130.4963317
0
LINE
8
0
10
150.507021
20
-130.4963317
11
150.507021
21
-146.9963317
0
LINE
8
0
10
150.507021
20
-129.9963317
11
168.007021
21
-129.9963317
0
LINE
8
0
10
168.007021
20
-129.9963317
11
168.007021
21
-113.4963317
0
LINE
8
0
10
168.007021
20
-113.4963317
11
150.507021
21
-113.4963317
0
LINE
8
0
10
150.507021
20
-113.4963317
11
150.507021
21
-129.9963317
0
LINE
8
0
10
150.507021
20
-112.9963317
11
168.007021
21
-112.9963317
0
LINE
8
0
10
168.007021
20
-112.9963317
11
168.007021
21
-96.4963317
0
LINE
8
0
10
168.007021
20
-96.4963317
11
150.507021
21
-96.4963317
0
LINE
8
0
10
150.507021
20
-96.4963317
11
150.507021
21
-112.9963317
0
LINE
8
0
10
150.507021
20
-95.9963317
11
168.007021
21
-95.9963317
0
LINE
8
0
10
168.007021
20
-95.9963317
11
168.007021
21
-79.4963317
0
LINE
8
0
10
168.007021
20
-79.4963317
11
150.507021
21
-79.4963317
0
LINE
8
0
10
150.507021
20
-79.4963317
11
150.507021
21
-95.9963317
0
LINE
8
0
10
168.507021
20
-132.4963316
11
186.007021
21
-132.4963316
0
LINE
8
0
10
186.007021
20
-132.4963316
11
186.007021
21
-115.9963316
0
LINE
8
0
10
186.007021
20
-115.9963316
11
168.507021
21
-115.9963316
0
LINE
8
0
10
168.507021
20
-115.9963316
11
168.507021
21
-132.4963316
0
LINE
8
0
10
168.507021
20
-115.4963316
11
186.007021
21
-115.4963316
0
LINE
8
0
10
186.007021
20
-115.4963316
11
186.007021
21
-98.9963316
0
LINE
8
0
10
186.007021
20
-98.9963316
11
168.507021
21
-98.9963316
0
LINE
8
0
10
168.507021
20
-98.9963316
11
168.507021
21
-115.4963316
0
LINE
8
0
10
168.507021
20
-98.4963316
11
186.007021
21
-98.4963316
0
LINE
8
0
10
186.007021
20
-98.4963316
11
186.007021
21
-81.9963316
0
LINE
8
0
10
186.007021
20
-81.9963316
11
168.507021
21
-81.9963316
0
LINE
8
0
10
168.507021
20
-81.9963316
11
168.507021
21
-98.4963316
0
LINE
8
0
10
168.5405034
20
-149.4335159
11
185.4442054
21
-153.9628492
0
LINE
8
0
10
185.4442054
20
-153.9628492
11
189.7147196
21
-138.0250731
0
LINE
8
0
10
189.7147196
20
-138.0250731
11
172.8110176
21
-133.4957398
0
LINE
8
0
10
172.8110176
20
-133.4957398
11
168.5405034
21
-149.4335159
0
LINE
8
0
10
186.0390398
20
-154.7728602
11
201.1944844
21
-163.5228602
0
LINE
8
0
10
201.1944844
20
-163.5228602
11
209.4444844
21
-149.233441
0
LINE
8
0
10
209.4444844
20
-149.233441
11
194.2890398
21
-140.483441
0
LINE
8
0
10
194.2890398
20
-140.483441
11
186.0390398
21
-154.7728602
0
ENDSEC
0
EOF