0
SECTION
2
HEADER
9
$INSUNITS
70
4
0
ENDSEC
0
SECTION
2
TABLES
0
TABLE
2
LTYPE
0
LTYPE
72
65
70
64
2
CONTINUOUS
3
______
73
0
40
0
0
ENDTAB
0
TABLE
2
LAYER
0
ENDTAB
0
ENDSEC
0
SECTION
2
ENTITIES
0
LINE
8
0
10
149.10616
20
-152.9937424
11
201.3069682
21
-169.6727684
0
LINE
8
0
10
204.8338665
20
-168.287482
11
215.7545831
21
-148.9007041
0
LINE
8
0
10
216.1407588
20
-147.4283174
11
216.1407588
21
-82.8288312
0
LINE
8
0
10
213.551721
20
-79.8571128
11
154.9615289
21
-71.7546132
0
LINE
8
0
10
154.5505667
20
-71.7263316
11
128.0069414
21
-71.7263316
0
LINE
8
0
10
127.5105461
20
-71.7676846
11
109.8779275
21
-74.7260462
0
LINE
8
0
10
109.6381711
20
-74.7764152
11
67.6236245
21
-85.4112592
0
LINE
8
0
10
65.388972
20
-88.7370565
11
75.3864628
21
-159.8729004
0
LINE
8
0
10
78.7683726
20
-162.4270796
11
147.7819804
21
-152.879717
0
ARC
8
0
10
202.2200422
20
-166.8150952
40
3
50
252.2804558
51
330.6071141
0
ARC
8
0
10
213.1407588
20
-147.4283174
40
3
50
330.6071141
51
0
0
ARC
8
0
10
213.1407588
20
-82.8288312
40
3
50
0
51
82.1264427
0
ARC
8
0
10
154.5505667
20
-74.7263316
40
3
50
82.1264427
51
90
0
ARC
8
0
10
128.0069414
20
-74.7263316
40
3
50
90
51
99.5242536
0
ARC
8
0
10
110.3743228
20
-77.6846932
40
3
50
99.5242536
51
104.204522
0
ARC
8
0
10
68.3597762
20
-88.3195372
40
3
50
104.204522
51
187.9999997
0
ARC
8
0
10
78.357267
20
-159.4553811
40
3
50
187.9999997
51
277.876322
0
ARC
8
0
10
148.193086
20
-155.8514155
40
3
50
72.2804558
51
97.876322
0
LINE
8
0
10
148.4215207
20
-149.9603265
11
199.8948119
21
-166.5367302
0
LINE
8
0
10
203.4124952
20
-165.1811527
11
212.7991304
21
-148.9230236
0
LINE
8
0
10
213.2010542
20
-147.4230236
11
213.2010542
21
-84.8568112
0
LINE
8
0
10
210.5937419
20
-81.8826228
11
152.9525162
21
-74.2721432
0
LINE
8
0
10
152.5598285
20
-74.2463316
11
129.9643591
21
-74.2463316
0
LINE
8
0
10
129.5516539
20
-74.2748548
11
111.9149946
21
-76.7243908
0
LINE
8
0
10
111.6022644
20
-76.7848981
11
70.429358
21
-87.045495
0
LINE
8
0
10
68.1839892
20
-90.3739838
11
77.547577
21
-156.9993741
0
LINE
8
0
10
80.9539827
20
-159.5500616
11
147.0663121
21
-149.8476972
0
ARC
8
0
10
200.814419
20
-163.6811527
40
3
50
252.1494215
51
329.9999999
0
ARC
8
0
10
210.2010542
20
-147.4230236
40
3
50
329.9999999
51
0
0
ARC
8
0
10
210.2010542
20
-84.8568112
40
3
50
0
51
82.4786339
0
ARC
8
0
10
152.5598285
20
-77.2463316
40
3
50
82.4786339
51
90
0
ARC
8
0
10
129.9643591
20
-77.2463316
40
3
50
90
51
97.9071641
0
ARC
8
0
10
112.3276998
20
-79.6958676
40
3
50
97.9071641
51
103.9934985
0
ARC
8
0
10
71.1547934
20
-89.9564645
40
3
50
103.9934985
51
187.9999997
0
ARC
8
0
10
80.5183812
20
-156.5818548
40
3
50
187.9999997
51
278.3488895
0
ARC
8
0
10
147.5019136
20
-152.815904
40
3
50
72.1494215
51
98.3488895
0
LINE
8
0
10
149.4199603
20
-148.9607468
11
199.5267501
21
-165.1668357
0
LINE
8
0
10
203.0480329
20
-163.8124199
11
211.433105
21
-149.289049
0
LINE
8
0
10
211.8350288
20
-147.789049
11
211.8350288
21
-86.0900971
0
LINE
8
0
10
209.242025
20
-83.117833
11
151.9595742
21
-75.2740675
0
LINE
8
0
10
151.552578
20
-75.2463316
11
130.9643591
21
-75.2463316
0
LINE
8
0
10
130.5516539
20
-75.2748548
11
112.9112586
21
-77.7249097
0
LINE
8
0
10
112.605831
20
-77.7836068
11
71.567051
21
-87.9015335
0
LINE
8
0
10
69.3143795
20
-91.2318325
11
78.399561
21
-155.8762578
0
LINE
8
0
10
81.7996781
20
-158.4278613
11
148.0674409
21
-148.8460398
0
ARC
8
0
10
200.4499567
20
-162.3124199
40
3
50
252.0771851
51
329.9999999
0
ARC
8
0
10
208.8350288
20
-147.789049
40
3
50
329.9999999
51
0
0
ARC
8
0
10
208.8350288
20
-86.0900971
40
3
50
0
51
82.2029014
0
ARC
8
0
10
151.552578
20
-78.2463316
40
3
50
82.2029014
51
90
0
ARC
8
0
10
130.9643591
20
-78.2463316
40
3
50
90
51
97.9071641
0
ARC
8
0
10
113.3239637
20
-80.6963865
40
3
50
97.9071641
51
103.849808
0
ARC
8
0
10
72.2851837
20
-90.8143132
40
3
50
103.849808
51
187.9999997
0
ARC
8
0
10
81.3703652
20
-155.4587385
40
3
50
187.9999997
51
278.2275189
0
ARC
8
0
10
148.4967538
20
-151.8151626
40
3
50
72.0771851
51
98.2275189
0
ENDSEC
0
EOF