0
SECTION
2
HEADER
9
$INSUNITS
70
4
0
ENDSEC
0
SECTION
2
TABLES
0
TABLE
2
LTYPE
0
LTYPE
72
65
70
64
2
CONTINUOUS
3
______
73
0
40
0
0
ENDTAB
0
TABLE
2
LAYER
0
ENDTAB
0
ENDSEC
0
SECTION
2
ENTITIES
0
LINE
8
0
10
298.3685493
20
-151.8716449
11
243.2116018
21
-169.6641772
0
LINE
8
0
10
239.6767706
20
-168.2814376
11
228.7594589
21
-148.9007041
0
LINE
8
0
10
228.3732832
20
-147.4283174
11
228.3732832
21
-82.8288312
0
LINE
8
0
10
230.962321
20
-79.8571128
11
289.5525131
21
-71.7546132
0
LINE
8
0
10
289.9634753
20
-71.7263316
11
316.5071006
21
-71.7263316
0
LINE
8
0
10
317.0034959
20
-71.7676846
11
334.6810833
21
-74.7335909
0
LINE
8
0
10
334.8322053
20
-74.762951
11
394.6150081
21
-87.9779057
0
LINE
8
0
10
396.938295
20
-91.3247118
11
389.3220709
21
-145.516963
0
LINE
8
0
10
386.4759716
20
-148.0968507
11
299.1648513
21
-151.7293642
0
ARC
8
0
10
242.2905949
20
-166.8090509
40
3
50
209.3928859
51
287.8786672
0
ARC
8
0
10
231.3732832
20
-147.4283174
40
3
50
180
51
209.3928859
0
ARC
8
0
10
231.3732832
20
-82.8288312
40
3
50
97.8735573
51
180
0
ARC
8
0
10
289.9634753
20
-74.7263316
40
3
50
90
51
97.8735573
0
ARC
8
0
10
316.5071006
20
-74.7263316
40
3
50
80.4757464
51
90
0
ARC
8
0
10
334.184688
20
-77.6922379
40
3
50
77.5352406
51
80.4757464
0
ARC
8
0
10
393.9674908
20
-90.9071926
40
3
50
352.0000003
51
77.5352406
0
ARC
8
0
10
386.3512667
20
-145.0994437
40
3
50
272.3823745
51
352.0000003
0
ARC
8
0
10
299.2895562
20
-154.7267712
40
3
50
92.3823745
51
107.8786672
0
LINE
8
0
10
296.3747465
20
-149.869439
11
244.6192301
21
-166.5367302
0
LINE
8
0
10
241.1015468
20
-165.1811527
11
231.7149116
21
-148.9230236
0
LINE
8
0
10
231.3129878
20
-147.4230236
11
231.3129878
21
-84.8568112
0
LINE
8
0
10
233.9203001
20
-81.8826228
11
291.5615258
21
-74.2721432
0
LINE
8
0
10
291.9542135
20
-74.2463316
11
314.5496829
21
-74.2463316
0
LINE
8
0
10
314.9623881
20
-74.2748548
11
332.6433152
21
-76.7305391
0
LINE
8
0
10
332.8691876
20
-76.7707673
11
391.8112579
21
-89.6114009
0
LINE
8
0
10
394.1434845
20
-92.9601688
11
387.0837888
21
-143.192514
0
LINE
8
0
10
384.2491225
20
-145.7719043
11
297.1582157
21
-149.728107
0
ARC
8
0
10
243.699623
20
-163.6811527
40
3
50
210.0000001
51
287.8505785
0
ARC
8
0
10
234.3129878
20
-147.4230236
40
3
50
180
51
210.0000001
0
ARC
8
0
10
234.3129878
20
-84.8568112
40
3
50
97.5213661
51
180
0
ARC
8
0
10
291.9542135
20
-77.2463316
40
3
50
90
51
97.5213661
0
ARC
8
0
10
314.5496829
20
-77.2463316
40
3
50
82.0928359
51
90
0
ARC
8
0
10
332.23061
20
-79.7020159
40
3
50
77.7100387
51
82.0928359
0
ARC
8
0
10
391.1726803
20
-92.5426495
40
3
50
352.0000003
51
77.7100387
0
ARC
8
0
10
384.1129846
20
-142.7749948
40
3
50
272.6009356
51
352.0000003
0
ARC
8
0
10
297.2943536
20
-152.7250165
40
3
50
92.6009356
51
107.8505785
0
LINE
8
0
10
295.3750435
20
-148.8698751
11
244.9872919
21
-165.1668357
0
LINE
8
0
10
241.4660091
20
-163.8124199
11
233.080937
21
-149.289049
0
LINE
8
0
10
232.6790132
20
-147.789049
11
232.6790132
21
-86.2049237
0
LINE
8
0
10
235.2661919
20
-83.233463
11
292.5515972
21
-75.2748709
0
LINE
8
0
10
292.9644185
20
-75.2463316
11
313.5496829
21
-75.2463316
0
LINE
8
0
10
313.9623881
20
-75.2748548
11
331.6460979
21
-77.7309256
0
LINE
8
0
10
331.8664875
20
-77.7699647
11
390.6756068
21
-90.4664804
0
LINE
8
0
10
393.0133162
20
-93.8164374
11
386.2322151
21
-142.066479
0
LINE
8
0
10
383.4016192
20
-144.6456816
11
296.1580418
21
-148.727569
0
ARC
8
0
10
244.0640853
20
-162.3124199
40
3
50
210.0000001
51
287.9228149
0
ARC
8
0
10
235.6790132
20
-147.789049
40
3
50
180
51
210.0000001
0
ARC
8
0
10
235.6790132
20
-86.2049237
40
3
50
97.9094029
51
180
0
ARC
8
0
10
292.9644185
20
-78.2463316
40
3
50
90
51
97.9094029
0
ARC
8
0
10
313.5496829
20
-78.2463316
40
3
50
82.0928359
51
90
0
ARC
8
0
10
331.2333927
20
-80.7024024
40
3
50
77.817186
51
82.0928359
0
ARC
8
0
10
390.042512
20
-93.3989181
40
3
50
352.0000003
51
77.817186
0
ARC
8
0
10
383.2614109
20
-141.6489598
40
3
50
272.678757
51
352.0000003
0
ARC
8
0
10
296.2982501
20
-151.7242908
40
3
50
92.678757
51
107.9228149
0
ENDSEC
0
EOF