%TF.GenerationSoftware,KiCad,Pcbnew,9.0.3*%
%TF.CreationDate,2025-07-25T16:12:42+02:00*%
%TF.ProjectId,right_pcb,72696768-745f-4706-9362-2e6b69636164,v1.0.0*%
%TF.SameCoordinates,Original*%
%TF.FileFunction,Soldermask,Bot*%
%TF.FilePolarity,Negative*%
%FSLAX46Y46*%
G04 Gerber Fmt 4.6, Leading zero omitted, Abs format (unit mm)*
G04 Created by KiCad (PCBNEW 9.0.3) date 2025-07-25 16:12:42*
%MOMM*%
%LPD*%
G01*
G04 APERTURE LIST*
G04 Aperture macros list*
%AMRoundRect*
0 Rectangle with rounded corners*
0 $1 Rounding radius*
0 $2 $3 $4 $5 $6 $7 $8 $9 X,Y pos of 4 corners*
0 Add a 4 corners polygon primitive as box body*
4,1,4,$2,$3,$4,$5,$6,$7,$8,$9,$2,$3,0*
0 Add four circle primitives for the rounded corners*
1,1,$1+$1,$2,$3*
1,1,$1+$1,$4,$5*
1,1,$1+$1,$6,$7*
1,1,$1+$1,$8,$9*
0 Add four rect primitives between the rounded corners*
20,1,$1+$1,$2,$3,$4,$5,0*
20,1,$1+$1,$4,$5,$6,$7,0*
20,1,$1+$1,$6,$7,$8,$9,0*
20,1,$1+$1,$8,$9,$2,$3,0*%
G04 Aperture macros list end*
%ADD10C,1.100000*%
%ADD11C,1.801800*%
%ADD12C,3.100000*%
%ADD13C,3.529000*%
%ADD14RoundRect,0.050000X-0.475833X-1.775833X1.775833X-0.475833X0.475833X1.775833X-1.775833X0.475833X0*%
%ADD15RoundRect,0.050000X-1.004073X-0.756623X0.756623X-1.004073X1.004073X0.756623X-0.756623X1.004073X0*%
%ADD16RoundRect,0.050000X-0.529124X-0.531533X0.362117X-0.656789X0.529124X0.531533X-0.362117X0.656789X0*%
%ADD17C,2.005000*%
%ADD18RoundRect,0.050000X-0.889000X-0.889000X0.889000X-0.889000X0.889000X0.889000X-0.889000X0.889000X0*%
%ADD19RoundRect,0.050000X-0.450000X-0.600000X0.450000X-0.600000X0.450000X0.600000X-0.450000X0.600000X0*%
%ADD20RoundRect,0.050000X-1.468274X-1.106423X1.106423X-1.468274X1.468274X1.106423X-1.106423X1.468274X0*%
%ADD21RoundRect,0.050000X-1.300000X-1.300000X1.300000X-1.300000X1.300000X1.300000X-1.300000X1.300000X0*%
%ADD22C,1.852600*%
%ADD23RoundRect,0.050000X-0.948848X-0.824821X0.824821X-0.948848X0.948848X0.824821X-0.824821X0.948848X0*%
%ADD24RoundRect,0.050000X-0.490758X-0.567148X0.407050X-0.629929X0.490758X0.567148X-0.407050X0.629929X0*%
%ADD25C,0.800000*%
%ADD26C,4.500000*%
%ADD27RoundRect,0.050000X-0.325397X-1.214397X1.214397X-0.325397X0.325397X1.214397X-1.214397X0.325397X0*%
%ADD28RoundRect,0.050000X-0.089711X-0.744615X0.689711X-0.294615X0.089711X0.744615X-0.689711X0.294615X0*%
%ADD29RoundRect,0.050000X-1.387517X-1.206150X1.206150X-1.387517X1.387517X1.206150X-1.206150X1.387517X0*%
%ADD30RoundRect,0.050000X-0.919239X-1.592168X1.592168X-0.919239X0.919239X1.592168X-1.592168X0.919239X0*%
%ADD31RoundRect,0.050000X0.850000X-0.600000X0.850000X0.600000X-0.850000X0.600000X-0.850000X-0.600000X0*%
%ADD32O,1.800000X1.300000*%
%ADD33RoundRect,0.050000X-0.628618X-1.088798X1.088798X-0.628618X0.628618X1.088798X-1.088798X0.628618X0*%
%ADD34RoundRect,0.050000X-0.279375X-0.696024X0.589958X-0.463087X0.279375X0.696024X-0.589958X0.463087X0*%
G04 APERTURE END LIST*
D10*
%TO.C,T1*%
X248843762Y-124529027D03*
X245843774Y-124529023D03*
%TD*%
D11*
%TO.C,S24*%
X245095887Y-155035854D03*
D12*
X246884027Y-147133003D03*
D13*
X249859027Y-152285854D03*
D12*
X252314154Y-146538259D03*
D11*
X254622167Y-149535854D03*
D14*
X244047794Y-148770503D03*
X255150387Y-144900759D03*
%TD*%
D15*
%TO.C,D6*%
X362405002Y-101695009D03*
D16*
X364543981Y-101995628D03*
X367811865Y-102454892D03*
D17*
X369950844Y-102755511D03*
%TD*%
D18*
%TO.C,D14*%
X302533767Y-107529032D03*
D19*
X304693767Y-107529032D03*
X307993767Y-107529032D03*
D17*
X310153767Y-107529032D03*
%TD*%
D18*
%TO.C,D21*%
X266533768Y-112529031D03*
D19*
X268693768Y-112529031D03*
X271993768Y-112529031D03*
D17*
X274153768Y-112529031D03*
%TD*%
D18*
%TO.C,D22*%
X266533762Y-95529030D03*
D19*
X268693762Y-95529030D03*
X271993762Y-95529030D03*
D17*
X274153762Y-95529030D03*
%TD*%
D11*
%TO.C,S6*%
X361427323Y-96508470D03*
D12*
X367701876Y-91381827D03*
D13*
X366873796Y-97273922D03*
D12*
X372347036Y-94256284D03*
D11*
X372320269Y-98039374D03*
D20*
X364458750Y-90926034D03*
X375590165Y-94712072D03*
%TD*%
D11*
%TO.C,S13*%
X300843770Y-119529028D03*
D12*
X306343770Y-113579028D03*
D13*
X306343770Y-119529028D03*
D12*
X311343770Y-115779026D03*
D11*
X311843770Y-119529028D03*
D21*
X303068770Y-113579028D03*
X314618771Y-115779028D03*
%TD*%
D18*
%TO.C,D11*%
X320533767Y-110029035D03*
D19*
X322693767Y-110029035D03*
X325993767Y-110029035D03*
D17*
X328153767Y-110029035D03*
%TD*%
D11*
%TO.C,S15*%
X300843776Y-85529037D03*
D12*
X306343776Y-79579037D03*
D13*
X306343776Y-85529037D03*
D12*
X311343776Y-81779035D03*
D11*
X311843776Y-85529037D03*
D21*
X303068776Y-79579037D03*
X314618777Y-81779037D03*
%TD*%
D18*
%TO.C,D20*%
X266533768Y-129529040D03*
D19*
X268693768Y-129529040D03*
X271993768Y-129529040D03*
D17*
X274153768Y-129529040D03*
%TD*%
D22*
%TO.C,MCU1*%
X239723764Y-91559032D03*
X239723763Y-94099029D03*
X239723764Y-96639032D03*
X239723764Y-99179032D03*
X239723764Y-101719032D03*
X239723764Y-104259032D03*
X239723764Y-106799032D03*
X239723764Y-109339032D03*
X239723764Y-111879032D03*
X239723764Y-114419032D03*
X239723760Y-116959030D03*
X239723764Y-119499032D03*
X254963764Y-119499032D03*
X254963765Y-116959035D03*
X254963764Y-114419032D03*
X254963764Y-111879032D03*
X254963764Y-109339032D03*
X254963764Y-106799032D03*
X254963764Y-104259032D03*
X254963764Y-101719032D03*
X254963764Y-99179032D03*
X254963764Y-96639032D03*
X254963768Y-94099034D03*
X254963764Y-91559032D03*
X242263764Y-114419032D03*
X244803764Y-114419032D03*
X247343764Y-114419032D03*
%TD*%
D11*
%TO.C,S4*%
X356695437Y-130177566D03*
D12*
X362969990Y-125050923D03*
D13*
X362141910Y-130943018D03*
D12*
X367615150Y-127925380D03*
D11*
X367588383Y-131708470D03*
D20*
X359726864Y-124595130D03*
X370858279Y-128381168D03*
%TD*%
D23*
%TO.C,D7*%
X338987502Y-133035933D03*
D24*
X341142240Y-133186610D03*
X344434202Y-133416800D03*
D17*
X346588940Y-133567477D03*
%TD*%
D11*
%TO.C,S18*%
X282843766Y-105029039D03*
D12*
X288343766Y-99079039D03*
D13*
X288343766Y-105029039D03*
D12*
X293343766Y-101279037D03*
D11*
X293843766Y-105029039D03*
D21*
X285068766Y-99079039D03*
X296618767Y-101279039D03*
%TD*%
D11*
%TO.C,S19*%
X282843762Y-88029029D03*
D12*
X288343762Y-82079029D03*
D13*
X288343762Y-88029029D03*
D12*
X293343762Y-84279027D03*
D11*
X293843762Y-88029029D03*
D21*
X285068762Y-82079029D03*
X296618763Y-84279029D03*
%TD*%
D18*
%TO.C,D19*%
X284533770Y-93029037D03*
D19*
X286693770Y-93029037D03*
X289993770Y-93029037D03*
D17*
X292153770Y-93029037D03*
%TD*%
D25*
%TO.C,_5*%
X258774318Y-153027579D03*
X258609483Y-151775528D03*
X259776209Y-153796356D03*
X259378260Y-150773637D03*
D26*
X260203260Y-152202579D03*
D25*
X261028260Y-153631521D03*
X260630311Y-150608802D03*
X261797037Y-152629630D03*
X261632202Y-151377579D03*
%TD*%
D11*
%TO.C,S1*%
X374520256Y-132682694D03*
D12*
X380794809Y-127556051D03*
D13*
X379966729Y-133448146D03*
D12*
X385439969Y-130430508D03*
D11*
X385413202Y-134213598D03*
D20*
X377551683Y-127100258D03*
X388683098Y-130886296D03*
%TD*%
D23*
%TO.C,D8*%
X340173355Y-116077344D03*
D24*
X342328093Y-116228021D03*
X345620055Y-116458211D03*
D17*
X347774793Y-116608888D03*
%TD*%
D15*
%TO.C,D1*%
X375497939Y-137869243D03*
D16*
X377636918Y-138169862D03*
X380904802Y-138629126D03*
D17*
X383043781Y-138929745D03*
%TD*%
D11*
%TO.C,S16*%
X282843764Y-139029039D03*
D12*
X288343764Y-133079039D03*
D13*
X288343764Y-139029039D03*
D12*
X293343764Y-135279037D03*
D11*
X293843764Y-139029039D03*
D21*
X285068764Y-133079039D03*
X296618765Y-135279039D03*
%TD*%
D18*
%TO.C,D13*%
X302533773Y-124529030D03*
D19*
X304693773Y-124529030D03*
X307993773Y-124529030D03*
D17*
X310153773Y-124529030D03*
%TD*%
D11*
%TO.C,S5*%
X359061368Y-113343020D03*
D12*
X365335921Y-108216377D03*
D13*
X364507841Y-114108472D03*
D12*
X369981081Y-111090834D03*
D11*
X369954314Y-114873924D03*
D20*
X362092795Y-107760584D03*
X373224210Y-111546622D03*
%TD*%
D15*
%TO.C,D3*%
X380229829Y-104200118D03*
D16*
X382368808Y-104500737D03*
X385636692Y-104960001D03*
D17*
X387775671Y-105260620D03*
%TD*%
D27*
%TO.C,D24*%
X249059467Y-158520973D03*
D28*
X250930082Y-157440973D03*
X253787966Y-155790973D03*
D17*
X255658581Y-154710973D03*
%TD*%
D11*
%TO.C,S3*%
X379252133Y-99013579D03*
D12*
X385526686Y-93886936D03*
D13*
X384698606Y-99779031D03*
D12*
X390171846Y-96761393D03*
D11*
X390145079Y-100544483D03*
D20*
X382283560Y-93431143D03*
X393414975Y-97217181D03*
%TD*%
D11*
%TO.C,S17*%
X282843767Y-122029040D03*
D12*
X288343767Y-116079040D03*
D13*
X288343767Y-122029040D03*
D12*
X293343767Y-118279038D03*
D11*
X293843767Y-122029040D03*
D21*
X285068767Y-116079040D03*
X296618768Y-118279040D03*
%TD*%
D18*
%TO.C,D18*%
X284533774Y-110029033D03*
D19*
X286693774Y-110029033D03*
X289993774Y-110029033D03*
D17*
X292153774Y-110029033D03*
%TD*%
D11*
%TO.C,S7*%
X337650397Y-127930225D03*
D12*
X343552049Y-122378380D03*
D13*
X343136999Y-128313886D03*
D12*
X348386406Y-124921803D03*
D11*
X348623601Y-128697547D03*
D29*
X340285026Y-122149934D03*
X351653429Y-125150254D03*
%TD*%
D15*
%TO.C,D5*%
X360039069Y-118529557D03*
D16*
X362178048Y-118830176D03*
X365445932Y-119289440D03*
D17*
X367584911Y-119590059D03*
%TD*%
D18*
%TO.C,D15*%
X302533768Y-90529035D03*
D19*
X304693768Y-90529035D03*
X307993768Y-90529035D03*
D17*
X310153768Y-90529035D03*
%TD*%
D11*
%TO.C,S8*%
X338836257Y-110971633D03*
D12*
X344737909Y-105419788D03*
D13*
X344322859Y-111355294D03*
D12*
X349572266Y-107963211D03*
D11*
X349809461Y-111738955D03*
D29*
X341470886Y-105191342D03*
X352839289Y-108191662D03*
%TD*%
D11*
%TO.C,S12*%
X318843764Y-88029044D03*
D12*
X324343764Y-82079044D03*
D13*
X324343764Y-88029044D03*
D12*
X329343764Y-84279042D03*
D11*
X329843764Y-88029044D03*
D21*
X321068764Y-82079044D03*
X332618765Y-84279044D03*
%TD*%
D11*
%TO.C,S2*%
X376886200Y-115848134D03*
D12*
X383160753Y-110721491D03*
D13*
X382332673Y-116613586D03*
D12*
X387805913Y-113595948D03*
D11*
X387779146Y-117379038D03*
D20*
X379917627Y-110265698D03*
X391049042Y-114051736D03*
%TD*%
D11*
%TO.C,S20*%
X264843766Y-124529030D03*
D12*
X270343766Y-118579030D03*
D13*
X270343766Y-124529030D03*
D12*
X275343766Y-120779028D03*
D11*
X275843766Y-124529030D03*
D21*
X267068766Y-118579030D03*
X278618767Y-120779030D03*
%TD*%
D25*
%TO.C,_2*%
X259693763Y-95629024D03*
X260177037Y-94462298D03*
X260177037Y-96795750D03*
X261343763Y-93979024D03*
D26*
X261343763Y-95629024D03*
D25*
X261343763Y-97279024D03*
X262510489Y-94462298D03*
X262510489Y-96795750D03*
X262993763Y-95629024D03*
%TD*%
D11*
%TO.C,S22*%
X264843772Y-90529036D03*
D12*
X270343772Y-84579036D03*
D13*
X270343772Y-90529036D03*
D12*
X275343772Y-86779034D03*
D11*
X275843772Y-90529036D03*
D21*
X267068772Y-84579036D03*
X278618773Y-86779036D03*
%TD*%
D11*
%TO.C,S23*%
X263160586Y-145435505D03*
D12*
X266933205Y-138264741D03*
D13*
X268473178Y-144012000D03*
D12*
X272332234Y-139095681D03*
D11*
X273785770Y-142588495D03*
D30*
X263769798Y-139112374D03*
X275495643Y-138248051D03*
%TD*%
D23*
%TO.C,D9*%
X341359220Y-99118754D03*
D24*
X343513958Y-99269431D03*
X346805920Y-99499621D03*
D17*
X348960658Y-99650298D03*
%TD*%
D31*
%TO.C,JST1*%
X247343762Y-87529030D03*
D32*
X247343768Y-85529040D03*
%TD*%
D18*
%TO.C,D17*%
X284533766Y-127029034D03*
D19*
X286693766Y-127029034D03*
X289993766Y-127029034D03*
D17*
X292153766Y-127029034D03*
%TD*%
D15*
%TO.C,D2*%
X377863880Y-121034682D03*
D16*
X380002859Y-121335301D03*
X383270743Y-121794565D03*
D17*
X385409722Y-122095184D03*
%TD*%
D25*
%TO.C,_4*%
X368710592Y-137016328D03*
X369026787Y-138238953D03*
X369351541Y-135928213D03*
X370574166Y-135612018D03*
D26*
X370344534Y-137245960D03*
D25*
X370114902Y-138879902D03*
X371337527Y-138563707D03*
X371662281Y-136252967D03*
X371978476Y-137475592D03*
%TD*%
D15*
%TO.C,D4*%
X357673123Y-135364120D03*
D16*
X359812102Y-135664739D03*
X363079986Y-136124003D03*
D17*
X365218965Y-136424622D03*
%TD*%
D18*
%TO.C,D12*%
X320533765Y-93029039D03*
D19*
X322693765Y-93029039D03*
X325993765Y-93029039D03*
D17*
X328153765Y-93029039D03*
%TD*%
D25*
%TO.C,_1*%
X373442478Y-103347200D03*
X373758673Y-104569825D03*
X374083427Y-102259085D03*
X375306052Y-101942890D03*
D26*
X375076420Y-103576832D03*
D25*
X374846788Y-105210774D03*
X376069413Y-104894579D03*
X376394167Y-102583839D03*
X376710362Y-103806464D03*
%TD*%
D11*
%TO.C,S21*%
X264843768Y-107529030D03*
D12*
X270343768Y-101579030D03*
D13*
X270343768Y-107529030D03*
D12*
X275343768Y-103779028D03*
D11*
X275843768Y-107529030D03*
D21*
X267068768Y-101579030D03*
X278618769Y-103779030D03*
%TD*%
D18*
%TO.C,D10*%
X320533772Y-127029044D03*
D19*
X322693772Y-127029044D03*
X325993772Y-127029044D03*
D17*
X328153772Y-127029044D03*
%TD*%
D11*
%TO.C,S9*%
X340022115Y-94013045D03*
D12*
X345923767Y-88461200D03*
D13*
X345508717Y-94396706D03*
D12*
X350758124Y-91004623D03*
D11*
X350995319Y-94780367D03*
D29*
X342656744Y-88232754D03*
X354025147Y-91233074D03*
%TD*%
D11*
%TO.C,S11*%
X318843764Y-105029037D03*
D12*
X324343764Y-99079037D03*
D13*
X324343764Y-105029037D03*
D12*
X329343764Y-101279035D03*
D11*
X329843764Y-105029037D03*
D21*
X321068764Y-99079037D03*
X332618765Y-101279037D03*
%TD*%
D11*
%TO.C,S10*%
X318843761Y-122029033D03*
D12*
X324343761Y-116079033D03*
D13*
X324343761Y-122029033D03*
D12*
X329343761Y-118279031D03*
D11*
X329843761Y-122029033D03*
D21*
X321068761Y-116079033D03*
X332618762Y-118279033D03*
%TD*%
D25*
%TO.C,_3*%
X295693764Y-108479043D03*
X296177038Y-107312317D03*
X296177038Y-109645769D03*
X297343764Y-106829043D03*
D26*
X297343764Y-108479043D03*
D25*
X297343764Y-110129043D03*
X298510490Y-107312317D03*
X298510490Y-109645769D03*
X298993764Y-108479043D03*
%TD*%
D11*
%TO.C,S14*%
X300843764Y-102529039D03*
D12*
X306343764Y-96579039D03*
D13*
X306343764Y-102529039D03*
D12*
X311343764Y-98779037D03*
D11*
X311843764Y-102529039D03*
D21*
X303068764Y-96579039D03*
X314618765Y-98779039D03*
%TD*%
D33*
%TO.C,D23*%
X266087092Y-149827722D03*
D34*
X268173491Y-149268670D03*
X271361047Y-148414570D03*
D17*
X273447446Y-147855518D03*
%TD*%
D18*
%TO.C,D16*%
X284533763Y-144029030D03*
D19*
X286693763Y-144029030D03*
X289993763Y-144029030D03*
D17*
X292153763Y-144029030D03*
%TD*%
M02*
