%TF.GenerationSoftware,KiCad,Pcbnew,9.0.3*%
%TF.CreationDate,2025-07-25T16:12:42+02:00*%
%TF.ProjectId,right_pcb,72696768-745f-4706-9362-2e6b69636164,v1.0.0*%
%TF.SameCoordinates,Original*%
%TF.FileFunction,Copper,L1,Top*%
%TF.FilePolarity,Positive*%
%FSLAX46Y46*%
G04 Gerber Fmt 4.6, Leading zero omitted, Abs format (unit mm)*
G04 Created by KiCad (PCBNEW 9.0.3) date 2025-07-25 16:12:42*
%MOMM*%
%LPD*%
G01*
G04 APERTURE LIST*
G04 Aperture macros list*
%AMRotRect*
0 Rectangle, with rotation*
0 The origin of the aperture is its center*
0 $1 length*
0 $2 width*
0 $3 Rotation angle, in degrees counterclockwise*
0 Add horizontal line*
21,1,$1,$2,0,0,$3*%
G04 Aperture macros list end*
%TA.AperFunction,SMDPad,CuDef*%
%ADD10R,0.900000X0.900000*%
%TD*%
%TA.AperFunction,WasherPad*%
%ADD11C,1.000000*%
%TD*%
%TA.AperFunction,SMDPad,CuDef*%
%ADD12R,0.900000X1.250000*%
%TD*%
%TA.AperFunction,ComponentPad*%
%ADD13RotRect,1.778000X1.778000X352.000000*%
%TD*%
%TA.AperFunction,SMDPad,CuDef*%
%ADD14RotRect,0.900000X1.200000X352.000000*%
%TD*%
%TA.AperFunction,ComponentPad*%
%ADD15C,1.905000*%
%TD*%
%TA.AperFunction,ComponentPad*%
%ADD16R,1.778000X1.778000*%
%TD*%
%TA.AperFunction,SMDPad,CuDef*%
%ADD17R,0.900000X1.200000*%
%TD*%
%TA.AperFunction,ComponentPad*%
%ADD18C,1.752600*%
%TD*%
%TA.AperFunction,ComponentPad*%
%ADD19RotRect,1.778000X1.778000X356.000000*%
%TD*%
%TA.AperFunction,SMDPad,CuDef*%
%ADD20RotRect,0.900000X1.200000X356.000000*%
%TD*%
%TA.AperFunction,ComponentPad*%
%ADD21C,0.700000*%
%TD*%
%TA.AperFunction,ComponentPad*%
%ADD22C,4.400000*%
%TD*%
%TA.AperFunction,ComponentPad*%
%ADD23RotRect,1.778000X1.778000X30.000000*%
%TD*%
%TA.AperFunction,SMDPad,CuDef*%
%ADD24RotRect,0.900000X1.200000X30.000000*%
%TD*%
%TA.AperFunction,ComponentPad*%
%ADD25R,1.700000X1.200000*%
%TD*%
%TA.AperFunction,ComponentPad*%
%ADD26O,1.700000X1.200000*%
%TD*%
%TA.AperFunction,ComponentPad*%
%ADD27RotRect,1.778000X1.778000X15.000000*%
%TD*%
%TA.AperFunction,SMDPad,CuDef*%
%ADD28RotRect,0.900000X1.200000X15.000000*%
%TD*%
%TA.AperFunction,Conductor*%
%ADD29C,0.500000*%
%TD*%
G04 APERTURE END LIST*
D10*
%TO.P,T1,*%
%TO.N,*%
X251043768Y-125629028D03*
X251043768Y-123429022D03*
D11*
X248843762Y-124529027D03*
X245843774Y-124529023D03*
D10*
X243643768Y-125629028D03*
X243643768Y-123429022D03*
D12*
%TO.P,T1,1*%
%TO.N,pos*%
X245093768Y-122454025D03*
%TO.P,T1,2*%
%TO.N,RAW*%
X248093768Y-122454025D03*
%TO.P,T1,3*%
%TO.N,N/C*%
X249593766Y-122454024D03*
%TD*%
D13*
%TO.P,D6,1*%
%TO.N,P031*%
X362405002Y-101695009D03*
D14*
X364543981Y-101995628D03*
%TO.P,D6,2*%
%TO.N,mirror_outer_top*%
X367811865Y-102454892D03*
D15*
X369950844Y-102755511D03*
%TD*%
D16*
%TO.P,D14,1*%
%TO.N,P029*%
X302533767Y-107529032D03*
D17*
X304693767Y-107529032D03*
%TO.P,D14,2*%
%TO.N,mirror_middle_home*%
X307993767Y-107529032D03*
D15*
X310153767Y-107529032D03*
%TD*%
D16*
%TO.P,D21,1*%
%TO.N,P029*%
X266533768Y-112529031D03*
D17*
X268693768Y-112529031D03*
%TO.P,D21,2*%
%TO.N,mirror_inner_home*%
X271993768Y-112529031D03*
D15*
X274153768Y-112529031D03*
%TD*%
D16*
%TO.P,D22,1*%
%TO.N,P031*%
X266533762Y-95529030D03*
D17*
X268693762Y-95529030D03*
%TO.P,D22,2*%
%TO.N,mirror_inner_top*%
X271993762Y-95529030D03*
D15*
X274153762Y-95529030D03*
%TD*%
D16*
%TO.P,D11,1*%
%TO.N,P029*%
X320533767Y-110029035D03*
D17*
X322693767Y-110029035D03*
%TO.P,D11,2*%
%TO.N,mirror_ring_home*%
X325993767Y-110029035D03*
D15*
X328153767Y-110029035D03*
%TD*%
D16*
%TO.P,D20,1*%
%TO.N,P002*%
X266533768Y-129529040D03*
D17*
X268693768Y-129529040D03*
%TO.P,D20,2*%
%TO.N,mirror_inner_bottom*%
X271993768Y-129529040D03*
D15*
X274153768Y-129529040D03*
%TD*%
D18*
%TO.P,MCU1,1*%
%TO.N,P006*%
X239723764Y-91559032D03*
%TO.P,MCU1,2*%
%TO.N,P008*%
X239723763Y-94099029D03*
%TO.P,MCU1,3*%
%TO.N,GND*%
X239723764Y-96639032D03*
%TO.P,MCU1,4*%
X239723764Y-99179032D03*
%TO.P,MCU1,5*%
%TO.N,P017*%
X239723764Y-101719032D03*
%TO.P,MCU1,6*%
%TO.N,P020*%
X239723764Y-104259032D03*
%TO.P,MCU1,7*%
%TO.N,P022*%
X239723764Y-106799032D03*
%TO.P,MCU1,8*%
%TO.N,P024*%
X239723764Y-109339032D03*
%TO.P,MCU1,9*%
%TO.N,P100*%
X239723764Y-111879032D03*
%TO.P,MCU1,10*%
%TO.N,P011*%
X239723764Y-114419032D03*
%TO.P,MCU1,11*%
%TO.N,P104*%
X239723760Y-116959030D03*
%TO.P,MCU1,12*%
%TO.N,P106*%
X239723764Y-119499032D03*
%TO.P,MCU1,13*%
%TO.N,P009*%
X254963764Y-119499032D03*
%TO.P,MCU1,14*%
%TO.N,P010*%
X254963765Y-116959035D03*
%TO.P,MCU1,15*%
%TO.N,P111*%
X254963764Y-114419032D03*
%TO.P,MCU1,16*%
%TO.N,P113*%
X254963764Y-111879032D03*
%TO.P,MCU1,17*%
%TO.N,P115*%
X254963764Y-109339032D03*
%TO.P,MCU1,18*%
%TO.N,P002*%
X254963764Y-106799032D03*
%TO.P,MCU1,19*%
%TO.N,P029*%
X254963764Y-104259032D03*
%TO.P,MCU1,20*%
%TO.N,P031*%
X254963764Y-101719032D03*
%TO.P,MCU1,21*%
%TO.N,VCC*%
X254963764Y-99179032D03*
%TO.P,MCU1,22*%
%TO.N,RST*%
X254963764Y-96639032D03*
%TO.P,MCU1,23*%
%TO.N,GND*%
X254963768Y-94099034D03*
%TO.P,MCU1,24*%
%TO.N,RAW*%
X254963764Y-91559032D03*
%TO.P,MCU1,31*%
%TO.N,P101*%
X242263764Y-114419032D03*
%TO.P,MCU1,32*%
%TO.N,P102*%
X244803764Y-114419032D03*
%TO.P,MCU1,33*%
%TO.N,P107*%
X247343764Y-114419032D03*
%TD*%
D19*
%TO.P,D7,1*%
%TO.N,P002*%
X338987502Y-133035933D03*
D20*
X341142240Y-133186610D03*
%TO.P,D7,2*%
%TO.N,mirror_pinky_bottom*%
X344434202Y-133416800D03*
D15*
X346588940Y-133567477D03*
%TD*%
D16*
%TO.P,D19,1*%
%TO.N,P031*%
X284533770Y-93029037D03*
D17*
X286693770Y-93029037D03*
%TO.P,D19,2*%
%TO.N,mirror_index_top*%
X289993770Y-93029037D03*
D15*
X292153770Y-93029037D03*
%TD*%
D21*
%TO.P,_5,1*%
%TO.N,N/C*%
X258774318Y-153027579D03*
X258609483Y-151775528D03*
X259776209Y-153796356D03*
X259378260Y-150773637D03*
D22*
X260203260Y-152202579D03*
D21*
X261028260Y-153631521D03*
X260630311Y-150608802D03*
X261797037Y-152629630D03*
X261632202Y-151377579D03*
%TD*%
D19*
%TO.P,D8,1*%
%TO.N,P029*%
X340173355Y-116077344D03*
D20*
X342328093Y-116228021D03*
%TO.P,D8,2*%
%TO.N,mirror_pinky_home*%
X345620055Y-116458211D03*
D15*
X347774793Y-116608888D03*
%TD*%
D13*
%TO.P,D1,1*%
%TO.N,P002*%
X375497939Y-137869243D03*
D14*
X377636918Y-138169862D03*
%TO.P,D1,2*%
%TO.N,mirror_clone_outer_bottom*%
X380904802Y-138629126D03*
D15*
X383043781Y-138929745D03*
%TD*%
D16*
%TO.P,D13,1*%
%TO.N,P002*%
X302533773Y-124529030D03*
D17*
X304693773Y-124529030D03*
%TO.P,D13,2*%
%TO.N,mirror_middle_bottom*%
X307993773Y-124529030D03*
D15*
X310153773Y-124529030D03*
%TD*%
D13*
%TO.P,D3,1*%
%TO.N,P031*%
X380229829Y-104200118D03*
D14*
X382368808Y-104500737D03*
%TO.P,D3,2*%
%TO.N,mirror_clone_outer_top*%
X385636692Y-104960001D03*
D15*
X387775671Y-105260620D03*
%TD*%
D23*
%TO.P,D24,1*%
%TO.N,P115*%
X249059467Y-158520973D03*
D24*
X250930082Y-157440973D03*
%TO.P,D24,2*%
%TO.N,mirror_space_cluster*%
X253787966Y-155790973D03*
D15*
X255658581Y-154710973D03*
%TD*%
D16*
%TO.P,D18,1*%
%TO.N,P029*%
X284533774Y-110029033D03*
D17*
X286693774Y-110029033D03*
%TO.P,D18,2*%
%TO.N,mirror_index_home*%
X289993774Y-110029033D03*
D15*
X292153774Y-110029033D03*
%TD*%
D13*
%TO.P,D5,1*%
%TO.N,P029*%
X360039069Y-118529557D03*
D14*
X362178048Y-118830176D03*
%TO.P,D5,2*%
%TO.N,mirror_outer_home*%
X365445932Y-119289440D03*
D15*
X367584911Y-119590059D03*
%TD*%
D16*
%TO.P,D15,1*%
%TO.N,P031*%
X302533768Y-90529035D03*
D17*
X304693768Y-90529035D03*
%TO.P,D15,2*%
%TO.N,mirror_middle_top*%
X307993768Y-90529035D03*
D15*
X310153768Y-90529035D03*
%TD*%
D21*
%TO.P,_2,1*%
%TO.N,N/C*%
X259693763Y-95629024D03*
X260177037Y-94462298D03*
X260177037Y-96795750D03*
X261343763Y-93979024D03*
D22*
X261343763Y-95629024D03*
D21*
X261343763Y-97279024D03*
X262510489Y-94462298D03*
X262510489Y-96795750D03*
X262993763Y-95629024D03*
%TD*%
D19*
%TO.P,D9,1*%
%TO.N,P031*%
X341359220Y-99118754D03*
D20*
X343513958Y-99269431D03*
%TO.P,D9,2*%
%TO.N,mirror_pinky_top*%
X346805920Y-99499621D03*
D15*
X348960658Y-99650298D03*
%TD*%
D25*
%TO.P,JST1,1*%
%TO.N,pos*%
X247343762Y-87529030D03*
D26*
%TO.P,JST1,2*%
%TO.N,GND*%
X247343768Y-85529040D03*
%TD*%
D16*
%TO.P,D17,1*%
%TO.N,P002*%
X284533766Y-127029034D03*
D17*
X286693766Y-127029034D03*
%TO.P,D17,2*%
%TO.N,mirror_index_bottom*%
X289993766Y-127029034D03*
D15*
X292153766Y-127029034D03*
%TD*%
D13*
%TO.P,D2,1*%
%TO.N,P029*%
X377863880Y-121034682D03*
D14*
X380002859Y-121335301D03*
%TO.P,D2,2*%
%TO.N,mirror_clone_outer_home*%
X383270743Y-121794565D03*
D15*
X385409722Y-122095184D03*
%TD*%
D21*
%TO.P,_4,1*%
%TO.N,N/C*%
X368710592Y-137016328D03*
X369026787Y-138238953D03*
X369351541Y-135928213D03*
X370574166Y-135612018D03*
D22*
X370344534Y-137245960D03*
D21*
X370114902Y-138879902D03*
X371337527Y-138563707D03*
X371662281Y-136252967D03*
X371978476Y-137475592D03*
%TD*%
D13*
%TO.P,D4,1*%
%TO.N,P002*%
X357673123Y-135364120D03*
D14*
X359812102Y-135664739D03*
%TO.P,D4,2*%
%TO.N,mirror_outer_bottom*%
X363079986Y-136124003D03*
D15*
X365218965Y-136424622D03*
%TD*%
D16*
%TO.P,D12,1*%
%TO.N,P031*%
X320533765Y-93029039D03*
D17*
X322693765Y-93029039D03*
%TO.P,D12,2*%
%TO.N,mirror_ring_top*%
X325993765Y-93029039D03*
D15*
X328153765Y-93029039D03*
%TD*%
D21*
%TO.P,_1,1*%
%TO.N,N/C*%
X373442478Y-103347200D03*
X373758673Y-104569825D03*
X374083427Y-102259085D03*
X375306052Y-101942890D03*
D22*
X375076420Y-103576832D03*
D21*
X374846788Y-105210774D03*
X376069413Y-104894579D03*
X376394167Y-102583839D03*
X376710362Y-103806464D03*
%TD*%
D16*
%TO.P,D10,1*%
%TO.N,P002*%
X320533772Y-127029044D03*
D17*
X322693772Y-127029044D03*
%TO.P,D10,2*%
%TO.N,mirror_ring_bottom*%
X325993772Y-127029044D03*
D15*
X328153772Y-127029044D03*
%TD*%
D21*
%TO.P,_3,1*%
%TO.N,N/C*%
X295693764Y-108479043D03*
X296177038Y-107312317D03*
X296177038Y-109645769D03*
X297343764Y-106829043D03*
D22*
X297343764Y-108479043D03*
D21*
X297343764Y-110129043D03*
X298510490Y-107312317D03*
X298510490Y-109645769D03*
X298993764Y-108479043D03*
%TD*%
D27*
%TO.P,D23,1*%
%TO.N,P115*%
X266087092Y-149827722D03*
D28*
X268173491Y-149268670D03*
%TO.P,D23,2*%
%TO.N,mirror_layer_cluster*%
X271361047Y-148414570D03*
D15*
X273447446Y-147855518D03*
%TD*%
D16*
%TO.P,D16,1*%
%TO.N,P115*%
X284533763Y-144029030D03*
D17*
X286693763Y-144029030D03*
%TO.P,D16,2*%
%TO.N,mirror_index_mod*%
X289993763Y-144029030D03*
D15*
X292153763Y-144029030D03*
%TD*%
D29*
%TO.N,mirror_clone_outer_bottom*%
X383043779Y-138929741D02*
X380921030Y-138650275D01*
X380921030Y-138650275D02*
X380904801Y-138629125D01*
%TO.N,mirror_clone_outer_home*%
X383286975Y-121815719D02*
X383270746Y-121794564D01*
X385409723Y-122095183D02*
X383286975Y-121815719D01*
%TO.N,mirror_clone_outer_top*%
X387775670Y-105260620D02*
X385652921Y-104981154D01*
X385652921Y-104981154D02*
X385636691Y-104960004D01*
%TO.N,mirror_outer_bottom*%
X363096214Y-136145156D02*
X363079983Y-136124001D01*
X365218962Y-136424621D02*
X363096214Y-136145156D01*
%TO.N,mirror_outer_home*%
X365462158Y-119310591D02*
X365445929Y-119289438D01*
X367584909Y-119590055D02*
X365462158Y-119310591D01*
%TO.N,mirror_outer_top*%
X369950844Y-102755507D02*
X367828098Y-102476044D01*
X367828098Y-102476044D02*
X367811866Y-102454891D01*
%TO.N,mirror_pinky_bottom*%
X346588942Y-133567480D02*
X344584881Y-133567480D01*
X344584881Y-133567480D02*
X344434204Y-133416800D01*
%TO.N,mirror_pinky_home*%
X345767998Y-116344689D02*
X345620055Y-116458213D01*
X347774792Y-116608889D02*
X345767998Y-116344689D01*
%TO.N,mirror_pinky_top*%
X346953862Y-99386101D02*
X346805919Y-99499621D01*
X348960657Y-99650299D02*
X346953862Y-99386101D01*
%TO.N,mirror_ring_bottom*%
X328153772Y-127029041D02*
X325993771Y-127029042D01*
%TO.N,mirror_ring_home*%
X325993768Y-110029033D02*
X328153767Y-110029035D01*
%TO.N,mirror_ring_top*%
X325993768Y-93029036D02*
X328153764Y-93029035D01*
%TO.N,mirror_middle_bottom*%
X310153775Y-124529029D02*
X307993773Y-124529032D01*
%TO.N,mirror_middle_home*%
X310153769Y-107529032D02*
X307993766Y-107529034D01*
%TO.N,mirror_middle_top*%
X310153767Y-90529035D02*
X307993767Y-90529034D01*
%TO.N,mirror_index_mod*%
X292153764Y-144029031D02*
X290678461Y-144424339D01*
X290678461Y-144424339D02*
X289993765Y-144029030D01*
%TO.N,mirror_index_bottom*%
X292153766Y-127029037D02*
X289993769Y-127029033D01*
%TO.N,mirror_index_home*%
X289993772Y-110029031D02*
X292153772Y-110029030D01*
%TO.N,mirror_index_top*%
X289993767Y-93029035D02*
X292153766Y-93029036D01*
%TO.N,mirror_inner_bottom*%
X274153769Y-129529039D02*
X271993766Y-129529039D01*
%TO.N,mirror_inner_home*%
X271993768Y-112529033D02*
X274153766Y-112529035D01*
%TO.N,mirror_inner_top*%
X271993762Y-95529029D02*
X274153766Y-95529032D01*
%TO.N,mirror_layer_cluster*%
X273447443Y-147855521D02*
X271361043Y-148414569D01*
%TO.N,mirror_space_cluster*%
X255263275Y-155395664D02*
X255658580Y-154710977D01*
X253787967Y-155790973D02*
X255263275Y-155395664D01*
%TO.N,P002*%
X263491865Y-126487134D02*
X266533765Y-129529040D01*
X263491867Y-111181215D02*
X263491865Y-126487134D01*
X358979313Y-140070516D02*
X357335537Y-137928309D01*
X342378639Y-137455345D02*
X338987502Y-133035933D01*
X375497938Y-137869241D02*
X375465493Y-138115686D01*
X284533770Y-127122842D02*
X286942005Y-129531077D01*
X254963767Y-106799031D02*
X259388140Y-106799034D01*
X370876647Y-141636831D02*
X358979313Y-140070516D01*
X266533764Y-130722838D02*
X268742007Y-132931080D01*
X320533770Y-127029043D02*
X326540662Y-133035933D01*
X338987502Y-133035934D02*
X340991563Y-133035934D01*
X286693769Y-127029035D02*
X284533769Y-127029034D01*
X304693775Y-124529031D02*
X302533772Y-124529032D01*
X268693765Y-129529040D02*
X266533765Y-129529040D01*
X342375248Y-137481098D02*
X342378639Y-137455345D01*
X259388140Y-106799034D02*
X263631092Y-111041992D01*
X297531726Y-129531077D02*
X302533772Y-124529032D01*
X268742007Y-132931080D02*
X278631723Y-132931076D01*
X377636917Y-138169856D02*
X375514170Y-137890394D01*
X357689355Y-135385270D02*
X357673122Y-135364119D01*
X353077933Y-138890131D02*
X342375248Y-137481098D01*
X359812100Y-135664739D02*
X357689355Y-135385270D01*
X340991563Y-133035934D02*
X341142239Y-133186611D01*
X357335537Y-137928309D02*
X357673122Y-135364119D01*
X286942005Y-129531077D02*
X297531726Y-129531077D01*
X305033785Y-127029042D02*
X320533770Y-127029043D01*
X278631723Y-132931076D02*
X284533769Y-127029034D01*
X322693771Y-127029044D02*
X320533770Y-127029043D01*
X266533765Y-129529040D02*
X266533764Y-130722838D01*
X326540662Y-133035933D02*
X338987502Y-133035934D01*
X375514170Y-137890394D02*
X375497938Y-137869241D01*
X284533769Y-127029034D02*
X284533770Y-127122842D01*
X357673122Y-135364119D02*
X353077933Y-138890131D01*
X263631092Y-111041992D02*
X263491867Y-111181215D01*
X302533772Y-124529032D02*
X305033785Y-127029042D01*
X375465493Y-138115686D02*
X370876647Y-141636831D01*
%TO.N,P029*%
X279031728Y-115531077D02*
X284533772Y-110029031D01*
X360055300Y-118550707D02*
X360039066Y-118529556D01*
X340173357Y-116077345D02*
X342180145Y-116341542D01*
X377880113Y-121055836D02*
X377863883Y-121034681D01*
X340173357Y-116077345D02*
X342354267Y-118919561D01*
X380002858Y-121335299D02*
X377880113Y-121055836D01*
X302533768Y-107529033D02*
X305033771Y-110029035D01*
X262342005Y-108337270D02*
X262342007Y-104531078D01*
X266533767Y-112722839D02*
X269342005Y-115531076D01*
X284533772Y-110029031D02*
X286693771Y-110029029D01*
X357015357Y-120849731D02*
X360039066Y-118529556D01*
X266533765Y-112529035D02*
X262342005Y-108337270D01*
X342354267Y-118919561D02*
X357015357Y-120849731D01*
X322942005Y-112931077D02*
X337027088Y-112931079D01*
X286942006Y-113131078D02*
X297942006Y-113131079D01*
X262069961Y-104259032D02*
X254963770Y-104259033D01*
X360039066Y-118529556D02*
X362014872Y-121104479D01*
X266533765Y-112529035D02*
X268693767Y-112529035D01*
X320533769Y-110522837D02*
X322942005Y-112931077D01*
X320533767Y-110029036D02*
X322693767Y-110029036D01*
X320533767Y-110029036D02*
X320533769Y-110522837D01*
X269342005Y-115531076D02*
X279031728Y-115531077D01*
X362014872Y-121104479D02*
X375465213Y-122875251D01*
X337027088Y-112931079D02*
X340173356Y-116077345D01*
X302533768Y-107529033D02*
X304693767Y-107529032D01*
X342180145Y-116341542D02*
X342328091Y-116228021D01*
X284533772Y-110029031D02*
X284533771Y-110722845D01*
X375465213Y-122875251D02*
X377863883Y-121034681D01*
X362178047Y-118830175D02*
X360055300Y-118550707D01*
X302533767Y-108539315D02*
X302533768Y-107529033D01*
X262342007Y-104531078D02*
X262069961Y-104259032D01*
X266533765Y-112529035D02*
X266533767Y-112722839D01*
X284533771Y-110722845D02*
X286942006Y-113131078D01*
X305033771Y-110029035D02*
X320533767Y-110029036D01*
X297942006Y-113131079D02*
X302533767Y-108539315D01*
%TO.N,P031*%
X341669638Y-99159621D02*
X343478883Y-101517477D01*
X287235808Y-95731076D02*
X297331726Y-95731077D01*
X362421233Y-101716161D02*
X362405004Y-101695012D01*
X320533763Y-93029034D02*
X320460139Y-93588308D01*
X367607373Y-106711311D02*
X366229904Y-104916159D01*
X284533765Y-93029035D02*
X287235808Y-95731076D01*
X279431727Y-98131076D02*
X284533765Y-93029035D01*
X269135811Y-98131077D02*
X279431727Y-98131076D01*
X320460139Y-93588308D02*
X322832184Y-96679626D01*
X343513958Y-99269431D02*
X341509893Y-99269431D01*
X305033769Y-93029036D02*
X320533763Y-93029034D01*
X358945422Y-103553686D02*
X361519607Y-101578445D01*
X260343760Y-101719033D02*
X254963767Y-101719034D01*
X322832184Y-96679626D02*
X341359218Y-99118754D01*
X341509893Y-99269431D02*
X341359217Y-99118754D01*
X266533763Y-95529031D02*
X260343760Y-101719033D01*
X302533768Y-90529036D02*
X305033769Y-93029036D01*
X343478883Y-101517477D02*
X358945422Y-103553686D01*
X266533763Y-95529031D02*
X269135811Y-98131077D01*
X320533763Y-93029034D02*
X322693766Y-93029038D01*
X361519607Y-101578445D02*
X362405004Y-101695012D01*
X363255571Y-104524578D02*
X362211597Y-103164051D01*
X341359218Y-99118754D02*
X341669638Y-99159621D01*
X304693768Y-90529033D02*
X302533768Y-90529036D01*
X362211597Y-103164051D02*
X362405004Y-101695012D01*
X380229830Y-104200116D02*
X375587932Y-107761971D01*
X366229904Y-104916159D02*
X363255571Y-104524578D01*
X284533765Y-93029035D02*
X286693767Y-93029034D01*
X380246061Y-104221273D02*
X380229830Y-104200116D01*
X266533763Y-95529031D02*
X268693763Y-95529032D01*
X297331726Y-95731077D02*
X302533768Y-90529036D01*
X364543982Y-101995627D02*
X362421233Y-101716161D01*
X375587932Y-107761971D02*
X367607373Y-106711311D01*
X382368808Y-104500737D02*
X380246061Y-104221273D01*
%TO.N,P115*%
X254963764Y-109339032D02*
X260512508Y-109339032D01*
X260512508Y-109339032D02*
X262490867Y-111317393D01*
X281813514Y-148740638D02*
X284533764Y-144029029D01*
X262490867Y-141690867D02*
X266087092Y-145287092D01*
X249454773Y-157836279D02*
X249059468Y-158520971D01*
X249059468Y-158520971D02*
X249082224Y-158605899D01*
X269810005Y-151956969D02*
X281813514Y-148740638D01*
X250930082Y-157440972D02*
X249454773Y-157836279D01*
X266087092Y-145287092D02*
X266087092Y-149827721D01*
X262490867Y-111317393D02*
X262490867Y-141690867D01*
X266087093Y-149827723D02*
X268173492Y-149268672D01*
X249082224Y-158605899D02*
X252685875Y-160686470D01*
X252685875Y-160686470D02*
X261123023Y-158425744D01*
X261123023Y-158425744D02*
X266087093Y-149827723D01*
X266087093Y-149827723D02*
X266110965Y-149821328D01*
X285218458Y-144424340D02*
X284533764Y-144029029D01*
X266110965Y-149821328D02*
X269810005Y-151956969D01*
X286693761Y-144029032D02*
X285218458Y-144424340D01*
%TO.N,RAW*%
X248971064Y-120499726D02*
X248093768Y-121377022D01*
X254963764Y-91559032D02*
X248971064Y-97551732D01*
X248971064Y-97551732D02*
X248971064Y-120499726D01*
X248093768Y-121377022D02*
X248093768Y-122454025D01*
%TO.N,GND*%
X257800000Y-91262802D02*
X254963768Y-94099034D01*
X257800000Y-87800000D02*
X257800000Y-91262802D01*
X257400000Y-87400000D02*
X257800000Y-87800000D01*
X239723764Y-96639032D02*
X245360968Y-96639032D01*
X254600000Y-87400000D02*
X257400000Y-87400000D01*
X245360968Y-96639032D02*
X254600000Y-87400000D01*
%TO.N,pos*%
X243000000Y-120200000D02*
X243200000Y-120200000D01*
X236400000Y-120200000D02*
X238200000Y-122000000D01*
X238200000Y-122000000D02*
X241200000Y-122000000D01*
X243200000Y-120200000D02*
X245093768Y-122093768D01*
X247343762Y-87529030D02*
X239870970Y-87529030D01*
X245093768Y-122093768D02*
X245093768Y-122454025D01*
X239870970Y-87529030D02*
X236400000Y-91000000D01*
X241200000Y-122000000D02*
X243000000Y-120200000D01*
X236400000Y-91000000D02*
X236400000Y-120200000D01*
%TD*%
M02*
