%TF.GenerationSoftware,KiCad,Pcbnew,9.0.3*%
%TF.CreationDate,2025-07-25T16:12:42+02:00*%
%TF.ProjectId,right_pcb,72696768-745f-4706-9362-2e6b69636164,v1.0.0*%
%TF.SameCoordinates,Original*%
%TF.FileFunction,Legend,Top*%
%TF.FilePolarity,Positive*%
%FSLAX46Y46*%
G04 Gerber Fmt 4.6, Leading zero omitted, Abs format (unit mm)*
G04 Created by KiCad (PCBNEW 9.0.3) date 2025-07-25 16:12:42*
%MOMM*%
%LPD*%
G01*
G04 APERTURE LIST*
%ADD10C,1.375000*%
%ADD11C,0.150000*%
%ADD12C,0.300000*%
%ADD13C,0.100000*%
%ADD14C,0.381000*%
%ADD15C,1.752600*%
G04 APERTURE END LIST*
D10*
X302285669Y-138511749D02*
X305039313Y-141537374D01*
X302626194Y-134302413D02*
X302194276Y-136418506D01*
X302194276Y-136418506D02*
X301762358Y-138534598D01*
X301762358Y-138534598D02*
X300807129Y-140673538D01*
X302717587Y-136395657D02*
X306380764Y-136235720D01*
X306380764Y-136235720D02*
X305948846Y-138351812D01*
X305948846Y-138351812D02*
X305516928Y-140467904D01*
X305516928Y-140467904D02*
X305085010Y-142583996D01*
X305085010Y-142583996D02*
X304106932Y-144199625D01*
X304106932Y-144199625D02*
X302605544Y-145838103D01*
X315368444Y-137940543D02*
X315711167Y-145790208D01*
X317825061Y-134163125D02*
X316846983Y-135778755D01*
X316846983Y-135778755D02*
X315368444Y-137940543D01*
X315368444Y-137940543D02*
X313343744Y-139601869D01*
X313343744Y-139601869D02*
X311819508Y-140717036D01*
X323650027Y-135481727D02*
X329406447Y-135230396D01*
X329406447Y-135230396D02*
X329520689Y-137846951D01*
X329520689Y-137846951D02*
X329111619Y-140486354D01*
X329111619Y-140486354D02*
X328133542Y-142101984D01*
X328133542Y-142101984D02*
X326609305Y-143217151D01*
X326609305Y-143217151D02*
X324561758Y-144355166D01*
X330384525Y-133614767D02*
X330907835Y-133591919D01*
X330907835Y-133591919D02*
X331453995Y-134092382D01*
X331453995Y-134092382D02*
X331476843Y-134615692D01*
X331476843Y-134615692D02*
X330976380Y-135161852D01*
X330976380Y-135161852D02*
X330453069Y-135184700D01*
X330453069Y-135184700D02*
X329906910Y-134684237D01*
X329906910Y-134684237D02*
X329884062Y-134160926D01*
X329884062Y-134160926D02*
X330384525Y-133614767D01*
D11*
X241006574Y-108901327D02*
X241082764Y-108901327D01*
X241082764Y-108901327D02*
X241158955Y-108939422D01*
X241158955Y-108939422D02*
X241197050Y-108977517D01*
X241197050Y-108977517D02*
X241235145Y-109053708D01*
X241235145Y-109053708D02*
X241273240Y-109206089D01*
X241273240Y-109206089D02*
X241273240Y-109396565D01*
X241273240Y-109396565D02*
X241235145Y-109548946D01*
X241235145Y-109548946D02*
X241197050Y-109625136D01*
X241197050Y-109625136D02*
X241158955Y-109663232D01*
X241158955Y-109663232D02*
X241082764Y-109701327D01*
X241082764Y-109701327D02*
X241006574Y-109701327D01*
X241006574Y-109701327D02*
X240930383Y-109663232D01*
X240930383Y-109663232D02*
X240892288Y-109625136D01*
X240892288Y-109625136D02*
X240854193Y-109548946D01*
X240854193Y-109548946D02*
X240816097Y-109396565D01*
X240816097Y-109396565D02*
X240816097Y-109206089D01*
X240816097Y-109206089D02*
X240854193Y-109053708D01*
X240854193Y-109053708D02*
X240892288Y-108977517D01*
X240892288Y-108977517D02*
X240930383Y-108939422D01*
X240930383Y-108939422D02*
X241006574Y-108901327D01*
X241578002Y-108977517D02*
X241616098Y-108939422D01*
X241616098Y-108939422D02*
X241692288Y-108901327D01*
X241692288Y-108901327D02*
X241882764Y-108901327D01*
X241882764Y-108901327D02*
X241958955Y-108939422D01*
X241958955Y-108939422D02*
X241997050Y-108977517D01*
X241997050Y-108977517D02*
X242035145Y-109053708D01*
X242035145Y-109053708D02*
X242035145Y-109129898D01*
X242035145Y-109129898D02*
X241997050Y-109244184D01*
X241997050Y-109244184D02*
X241539907Y-109701327D01*
X241539907Y-109701327D02*
X242035145Y-109701327D01*
X242720860Y-109167993D02*
X242720860Y-109701327D01*
X242530384Y-108863232D02*
X242339907Y-109434660D01*
X242339907Y-109434660D02*
X242835146Y-109434660D01*
X252493669Y-97001327D02*
X252227002Y-96620374D01*
X252036526Y-97001327D02*
X252036526Y-96201327D01*
X252036526Y-96201327D02*
X252341288Y-96201327D01*
X252341288Y-96201327D02*
X252417478Y-96239422D01*
X252417478Y-96239422D02*
X252455573Y-96277517D01*
X252455573Y-96277517D02*
X252493669Y-96353708D01*
X252493669Y-96353708D02*
X252493669Y-96467993D01*
X252493669Y-96467993D02*
X252455573Y-96544184D01*
X252455573Y-96544184D02*
X252417478Y-96582279D01*
X252417478Y-96582279D02*
X252341288Y-96620374D01*
X252341288Y-96620374D02*
X252036526Y-96620374D01*
X252798430Y-96963232D02*
X252912716Y-97001327D01*
X252912716Y-97001327D02*
X253103192Y-97001327D01*
X253103192Y-97001327D02*
X253179383Y-96963232D01*
X253179383Y-96963232D02*
X253217478Y-96925136D01*
X253217478Y-96925136D02*
X253255573Y-96848946D01*
X253255573Y-96848946D02*
X253255573Y-96772755D01*
X253255573Y-96772755D02*
X253217478Y-96696565D01*
X253217478Y-96696565D02*
X253179383Y-96658470D01*
X253179383Y-96658470D02*
X253103192Y-96620374D01*
X253103192Y-96620374D02*
X252950811Y-96582279D01*
X252950811Y-96582279D02*
X252874621Y-96544184D01*
X252874621Y-96544184D02*
X252836526Y-96506089D01*
X252836526Y-96506089D02*
X252798430Y-96429898D01*
X252798430Y-96429898D02*
X252798430Y-96353708D01*
X252798430Y-96353708D02*
X252836526Y-96277517D01*
X252836526Y-96277517D02*
X252874621Y-96239422D01*
X252874621Y-96239422D02*
X252950811Y-96201327D01*
X252950811Y-96201327D02*
X253141288Y-96201327D01*
X253141288Y-96201327D02*
X253255573Y-96239422D01*
X253484145Y-96201327D02*
X253941288Y-96201327D01*
X253712716Y-97001327D02*
X253712716Y-96201327D01*
X252347621Y-109701327D02*
X251890478Y-109701327D01*
X252119050Y-109701327D02*
X252119050Y-108901327D01*
X252119050Y-108901327D02*
X252042859Y-109015612D01*
X252042859Y-109015612D02*
X251966669Y-109091803D01*
X251966669Y-109091803D02*
X251890478Y-109129898D01*
X253109526Y-109701327D02*
X252652383Y-109701327D01*
X252880955Y-109701327D02*
X252880955Y-108901327D01*
X252880955Y-108901327D02*
X252804764Y-109015612D01*
X252804764Y-109015612D02*
X252728574Y-109091803D01*
X252728574Y-109091803D02*
X252652383Y-109129898D01*
X253833336Y-108901327D02*
X253452384Y-108901327D01*
X253452384Y-108901327D02*
X253414288Y-109282279D01*
X253414288Y-109282279D02*
X253452384Y-109244184D01*
X253452384Y-109244184D02*
X253528574Y-109206089D01*
X253528574Y-109206089D02*
X253719050Y-109206089D01*
X253719050Y-109206089D02*
X253795241Y-109244184D01*
X253795241Y-109244184D02*
X253833336Y-109282279D01*
X253833336Y-109282279D02*
X253871431Y-109358470D01*
X253871431Y-109358470D02*
X253871431Y-109548946D01*
X253871431Y-109548946D02*
X253833336Y-109625136D01*
X253833336Y-109625136D02*
X253795241Y-109663232D01*
X253795241Y-109663232D02*
X253719050Y-109701327D01*
X253719050Y-109701327D02*
X253528574Y-109701327D01*
X253528574Y-109701327D02*
X253452384Y-109663232D01*
X253452384Y-109663232D02*
X253414288Y-109625136D01*
X241273240Y-98779423D02*
X241197050Y-98741328D01*
X241197050Y-98741328D02*
X241082764Y-98741328D01*
X241082764Y-98741328D02*
X240968478Y-98779423D01*
X240968478Y-98779423D02*
X240892288Y-98855613D01*
X240892288Y-98855613D02*
X240854193Y-98931804D01*
X240854193Y-98931804D02*
X240816097Y-99084185D01*
X240816097Y-99084185D02*
X240816097Y-99198471D01*
X240816097Y-99198471D02*
X240854193Y-99350852D01*
X240854193Y-99350852D02*
X240892288Y-99427042D01*
X240892288Y-99427042D02*
X240968478Y-99503233D01*
X240968478Y-99503233D02*
X241082764Y-99541328D01*
X241082764Y-99541328D02*
X241158955Y-99541328D01*
X241158955Y-99541328D02*
X241273240Y-99503233D01*
X241273240Y-99503233D02*
X241311336Y-99465137D01*
X241311336Y-99465137D02*
X241311336Y-99198471D01*
X241311336Y-99198471D02*
X241158955Y-99198471D01*
X241654193Y-99541328D02*
X241654193Y-98741328D01*
X241654193Y-98741328D02*
X242111336Y-99541328D01*
X242111336Y-99541328D02*
X242111336Y-98741328D01*
X242492288Y-99541328D02*
X242492288Y-98741328D01*
X242492288Y-98741328D02*
X242682764Y-98741328D01*
X242682764Y-98741328D02*
X242797050Y-98779423D01*
X242797050Y-98779423D02*
X242873240Y-98855613D01*
X242873240Y-98855613D02*
X242911335Y-98931804D01*
X242911335Y-98931804D02*
X242949431Y-99084185D01*
X242949431Y-99084185D02*
X242949431Y-99198471D01*
X242949431Y-99198471D02*
X242911335Y-99350852D01*
X242911335Y-99350852D02*
X242873240Y-99427042D01*
X242873240Y-99427042D02*
X242797050Y-99503233D01*
X242797050Y-99503233D02*
X242682764Y-99541328D01*
X242682764Y-99541328D02*
X242492288Y-99541328D01*
D12*
X242562049Y-118669360D02*
X242562049Y-119669360D01*
X242562049Y-118812217D02*
X242633478Y-118740789D01*
X242633478Y-118740789D02*
X242776335Y-118669360D01*
X242776335Y-118669360D02*
X242990621Y-118669360D01*
X242990621Y-118669360D02*
X243133478Y-118740789D01*
X243133478Y-118740789D02*
X243204907Y-118883646D01*
X243204907Y-118883646D02*
X243204907Y-119669360D01*
X243919192Y-119669360D02*
X243919192Y-118669360D01*
X243919192Y-118169360D02*
X243847764Y-118240789D01*
X243847764Y-118240789D02*
X243919192Y-118312217D01*
X243919192Y-118312217D02*
X243990621Y-118240789D01*
X243990621Y-118240789D02*
X243919192Y-118169360D01*
X243919192Y-118169360D02*
X243919192Y-118312217D01*
X245276336Y-119597932D02*
X245133478Y-119669360D01*
X245133478Y-119669360D02*
X244847764Y-119669360D01*
X244847764Y-119669360D02*
X244704907Y-119597932D01*
X244704907Y-119597932D02*
X244633478Y-119526503D01*
X244633478Y-119526503D02*
X244562050Y-119383646D01*
X244562050Y-119383646D02*
X244562050Y-118955074D01*
X244562050Y-118955074D02*
X244633478Y-118812217D01*
X244633478Y-118812217D02*
X244704907Y-118740789D01*
X244704907Y-118740789D02*
X244847764Y-118669360D01*
X244847764Y-118669360D02*
X245133478Y-118669360D01*
X245133478Y-118669360D02*
X245276336Y-118740789D01*
X246490621Y-119597932D02*
X246347764Y-119669360D01*
X246347764Y-119669360D02*
X246062050Y-119669360D01*
X246062050Y-119669360D02*
X245919192Y-119597932D01*
X245919192Y-119597932D02*
X245847764Y-119455074D01*
X245847764Y-119455074D02*
X245847764Y-118883646D01*
X245847764Y-118883646D02*
X245919192Y-118740789D01*
X245919192Y-118740789D02*
X246062050Y-118669360D01*
X246062050Y-118669360D02*
X246347764Y-118669360D01*
X246347764Y-118669360D02*
X246490621Y-118740789D01*
X246490621Y-118740789D02*
X246562050Y-118883646D01*
X246562050Y-118883646D02*
X246562050Y-119026503D01*
X246562050Y-119026503D02*
X245847764Y-119169360D01*
X247204906Y-119526503D02*
X247276335Y-119597932D01*
X247276335Y-119597932D02*
X247204906Y-119669360D01*
X247204906Y-119669360D02*
X247133478Y-119597932D01*
X247133478Y-119597932D02*
X247204906Y-119526503D01*
X247204906Y-119526503D02*
X247204906Y-119669360D01*
X247204906Y-119097932D02*
X247133478Y-118240789D01*
X247133478Y-118240789D02*
X247204906Y-118169360D01*
X247204906Y-118169360D02*
X247276335Y-118240789D01*
X247276335Y-118240789D02*
X247204906Y-119097932D01*
X247204906Y-119097932D02*
X247204906Y-118169360D01*
X247919192Y-118669360D02*
X247919192Y-119669360D01*
X247919192Y-118812217D02*
X247990621Y-118740789D01*
X247990621Y-118740789D02*
X248133478Y-118669360D01*
X248133478Y-118669360D02*
X248347764Y-118669360D01*
X248347764Y-118669360D02*
X248490621Y-118740789D01*
X248490621Y-118740789D02*
X248562050Y-118883646D01*
X248562050Y-118883646D02*
X248562050Y-119669360D01*
X249919193Y-119669360D02*
X249919193Y-118883646D01*
X249919193Y-118883646D02*
X249847764Y-118740789D01*
X249847764Y-118740789D02*
X249704907Y-118669360D01*
X249704907Y-118669360D02*
X249419193Y-118669360D01*
X249419193Y-118669360D02*
X249276335Y-118740789D01*
X249919193Y-119597932D02*
X249776335Y-119669360D01*
X249776335Y-119669360D02*
X249419193Y-119669360D01*
X249419193Y-119669360D02*
X249276335Y-119597932D01*
X249276335Y-119597932D02*
X249204907Y-119455074D01*
X249204907Y-119455074D02*
X249204907Y-119312217D01*
X249204907Y-119312217D02*
X249276335Y-119169360D01*
X249276335Y-119169360D02*
X249419193Y-119097932D01*
X249419193Y-119097932D02*
X249776335Y-119097932D01*
X249776335Y-119097932D02*
X249919193Y-119026503D01*
X250633478Y-118669360D02*
X250633478Y-119669360D01*
X250633478Y-118812217D02*
X250704907Y-118740789D01*
X250704907Y-118740789D02*
X250847764Y-118669360D01*
X250847764Y-118669360D02*
X251062050Y-118669360D01*
X251062050Y-118669360D02*
X251204907Y-118740789D01*
X251204907Y-118740789D02*
X251276336Y-118883646D01*
X251276336Y-118883646D02*
X251276336Y-119669360D01*
X252204907Y-119669360D02*
X252062050Y-119597932D01*
X252062050Y-119597932D02*
X251990621Y-119526503D01*
X251990621Y-119526503D02*
X251919193Y-119383646D01*
X251919193Y-119383646D02*
X251919193Y-118955074D01*
X251919193Y-118955074D02*
X251990621Y-118812217D01*
X251990621Y-118812217D02*
X252062050Y-118740789D01*
X252062050Y-118740789D02*
X252204907Y-118669360D01*
X252204907Y-118669360D02*
X252419193Y-118669360D01*
X252419193Y-118669360D02*
X252562050Y-118740789D01*
X252562050Y-118740789D02*
X252633479Y-118812217D01*
X252633479Y-118812217D02*
X252704907Y-118955074D01*
X252704907Y-118955074D02*
X252704907Y-119383646D01*
X252704907Y-119383646D02*
X252633479Y-119526503D01*
X252633479Y-119526503D02*
X252562050Y-119597932D01*
X252562050Y-119597932D02*
X252419193Y-119669360D01*
X252419193Y-119669360D02*
X252204907Y-119669360D01*
D11*
X241006574Y-91121327D02*
X241082764Y-91121327D01*
X241082764Y-91121327D02*
X241158955Y-91159422D01*
X241158955Y-91159422D02*
X241197050Y-91197517D01*
X241197050Y-91197517D02*
X241235145Y-91273708D01*
X241235145Y-91273708D02*
X241273240Y-91426089D01*
X241273240Y-91426089D02*
X241273240Y-91616565D01*
X241273240Y-91616565D02*
X241235145Y-91768946D01*
X241235145Y-91768946D02*
X241197050Y-91845136D01*
X241197050Y-91845136D02*
X241158955Y-91883232D01*
X241158955Y-91883232D02*
X241082764Y-91921327D01*
X241082764Y-91921327D02*
X241006574Y-91921327D01*
X241006574Y-91921327D02*
X240930383Y-91883232D01*
X240930383Y-91883232D02*
X240892288Y-91845136D01*
X240892288Y-91845136D02*
X240854193Y-91768946D01*
X240854193Y-91768946D02*
X240816097Y-91616565D01*
X240816097Y-91616565D02*
X240816097Y-91426089D01*
X240816097Y-91426089D02*
X240854193Y-91273708D01*
X240854193Y-91273708D02*
X240892288Y-91197517D01*
X240892288Y-91197517D02*
X240930383Y-91159422D01*
X240930383Y-91159422D02*
X241006574Y-91121327D01*
X241768479Y-91121327D02*
X241844669Y-91121327D01*
X241844669Y-91121327D02*
X241920860Y-91159422D01*
X241920860Y-91159422D02*
X241958955Y-91197517D01*
X241958955Y-91197517D02*
X241997050Y-91273708D01*
X241997050Y-91273708D02*
X242035145Y-91426089D01*
X242035145Y-91426089D02*
X242035145Y-91616565D01*
X242035145Y-91616565D02*
X241997050Y-91768946D01*
X241997050Y-91768946D02*
X241958955Y-91845136D01*
X241958955Y-91845136D02*
X241920860Y-91883232D01*
X241920860Y-91883232D02*
X241844669Y-91921327D01*
X241844669Y-91921327D02*
X241768479Y-91921327D01*
X241768479Y-91921327D02*
X241692288Y-91883232D01*
X241692288Y-91883232D02*
X241654193Y-91845136D01*
X241654193Y-91845136D02*
X241616098Y-91768946D01*
X241616098Y-91768946D02*
X241578002Y-91616565D01*
X241578002Y-91616565D02*
X241578002Y-91426089D01*
X241578002Y-91426089D02*
X241616098Y-91273708D01*
X241616098Y-91273708D02*
X241654193Y-91197517D01*
X241654193Y-91197517D02*
X241692288Y-91159422D01*
X241692288Y-91159422D02*
X241768479Y-91121327D01*
X242720860Y-91121327D02*
X242568479Y-91121327D01*
X242568479Y-91121327D02*
X242492288Y-91159422D01*
X242492288Y-91159422D02*
X242454193Y-91197517D01*
X242454193Y-91197517D02*
X242378003Y-91311803D01*
X242378003Y-91311803D02*
X242339907Y-91464184D01*
X242339907Y-91464184D02*
X242339907Y-91768946D01*
X242339907Y-91768946D02*
X242378003Y-91845136D01*
X242378003Y-91845136D02*
X242416098Y-91883232D01*
X242416098Y-91883232D02*
X242492288Y-91921327D01*
X242492288Y-91921327D02*
X242644669Y-91921327D01*
X242644669Y-91921327D02*
X242720860Y-91883232D01*
X242720860Y-91883232D02*
X242758955Y-91845136D01*
X242758955Y-91845136D02*
X242797050Y-91768946D01*
X242797050Y-91768946D02*
X242797050Y-91578470D01*
X242797050Y-91578470D02*
X242758955Y-91502279D01*
X242758955Y-91502279D02*
X242720860Y-91464184D01*
X242720860Y-91464184D02*
X242644669Y-91426089D01*
X242644669Y-91426089D02*
X242492288Y-91426089D01*
X242492288Y-91426089D02*
X242416098Y-91464184D01*
X242416098Y-91464184D02*
X242378003Y-91502279D01*
X242378003Y-91502279D02*
X242339907Y-91578470D01*
X252265098Y-91921327D02*
X251998431Y-91540374D01*
X251807955Y-91921327D02*
X251807955Y-91121327D01*
X251807955Y-91121327D02*
X252112717Y-91121327D01*
X252112717Y-91121327D02*
X252188907Y-91159422D01*
X252188907Y-91159422D02*
X252227002Y-91197517D01*
X252227002Y-91197517D02*
X252265098Y-91273708D01*
X252265098Y-91273708D02*
X252265098Y-91387993D01*
X252265098Y-91387993D02*
X252227002Y-91464184D01*
X252227002Y-91464184D02*
X252188907Y-91502279D01*
X252188907Y-91502279D02*
X252112717Y-91540374D01*
X252112717Y-91540374D02*
X251807955Y-91540374D01*
X252569859Y-91692755D02*
X252950812Y-91692755D01*
X252493669Y-91921327D02*
X252760336Y-91121327D01*
X252760336Y-91121327D02*
X253027002Y-91921327D01*
X253217478Y-91121327D02*
X253407954Y-91921327D01*
X253407954Y-91921327D02*
X253560335Y-91349898D01*
X253560335Y-91349898D02*
X253712716Y-91921327D01*
X253712716Y-91921327D02*
X253903193Y-91121327D01*
X241273240Y-112241327D02*
X240816097Y-112241327D01*
X241044669Y-112241327D02*
X241044669Y-111441327D01*
X241044669Y-111441327D02*
X240968478Y-111555612D01*
X240968478Y-111555612D02*
X240892288Y-111631803D01*
X240892288Y-111631803D02*
X240816097Y-111669898D01*
X241768479Y-111441327D02*
X241844669Y-111441327D01*
X241844669Y-111441327D02*
X241920860Y-111479422D01*
X241920860Y-111479422D02*
X241958955Y-111517517D01*
X241958955Y-111517517D02*
X241997050Y-111593708D01*
X241997050Y-111593708D02*
X242035145Y-111746089D01*
X242035145Y-111746089D02*
X242035145Y-111936565D01*
X242035145Y-111936565D02*
X241997050Y-112088946D01*
X241997050Y-112088946D02*
X241958955Y-112165136D01*
X241958955Y-112165136D02*
X241920860Y-112203232D01*
X241920860Y-112203232D02*
X241844669Y-112241327D01*
X241844669Y-112241327D02*
X241768479Y-112241327D01*
X241768479Y-112241327D02*
X241692288Y-112203232D01*
X241692288Y-112203232D02*
X241654193Y-112165136D01*
X241654193Y-112165136D02*
X241616098Y-112088946D01*
X241616098Y-112088946D02*
X241578002Y-111936565D01*
X241578002Y-111936565D02*
X241578002Y-111746089D01*
X241578002Y-111746089D02*
X241616098Y-111593708D01*
X241616098Y-111593708D02*
X241654193Y-111517517D01*
X241654193Y-111517517D02*
X241692288Y-111479422D01*
X241692288Y-111479422D02*
X241768479Y-111441327D01*
X242530384Y-111441327D02*
X242606574Y-111441327D01*
X242606574Y-111441327D02*
X242682765Y-111479422D01*
X242682765Y-111479422D02*
X242720860Y-111517517D01*
X242720860Y-111517517D02*
X242758955Y-111593708D01*
X242758955Y-111593708D02*
X242797050Y-111746089D01*
X242797050Y-111746089D02*
X242797050Y-111936565D01*
X242797050Y-111936565D02*
X242758955Y-112088946D01*
X242758955Y-112088946D02*
X242720860Y-112165136D01*
X242720860Y-112165136D02*
X242682765Y-112203232D01*
X242682765Y-112203232D02*
X242606574Y-112241327D01*
X242606574Y-112241327D02*
X242530384Y-112241327D01*
X242530384Y-112241327D02*
X242454193Y-112203232D01*
X242454193Y-112203232D02*
X242416098Y-112165136D01*
X242416098Y-112165136D02*
X242378003Y-112088946D01*
X242378003Y-112088946D02*
X242339907Y-111936565D01*
X242339907Y-111936565D02*
X242339907Y-111746089D01*
X242339907Y-111746089D02*
X242378003Y-111593708D01*
X242378003Y-111593708D02*
X242416098Y-111517517D01*
X242416098Y-111517517D02*
X242454193Y-111479422D01*
X242454193Y-111479422D02*
X242530384Y-111441327D01*
X241006574Y-103891327D02*
X241082764Y-103891327D01*
X241082764Y-103891327D02*
X241158955Y-103929422D01*
X241158955Y-103929422D02*
X241197050Y-103967517D01*
X241197050Y-103967517D02*
X241235145Y-104043708D01*
X241235145Y-104043708D02*
X241273240Y-104196089D01*
X241273240Y-104196089D02*
X241273240Y-104386565D01*
X241273240Y-104386565D02*
X241235145Y-104538946D01*
X241235145Y-104538946D02*
X241197050Y-104615136D01*
X241197050Y-104615136D02*
X241158955Y-104653232D01*
X241158955Y-104653232D02*
X241082764Y-104691327D01*
X241082764Y-104691327D02*
X241006574Y-104691327D01*
X241006574Y-104691327D02*
X240930383Y-104653232D01*
X240930383Y-104653232D02*
X240892288Y-104615136D01*
X240892288Y-104615136D02*
X240854193Y-104538946D01*
X240854193Y-104538946D02*
X240816097Y-104386565D01*
X240816097Y-104386565D02*
X240816097Y-104196089D01*
X240816097Y-104196089D02*
X240854193Y-104043708D01*
X240854193Y-104043708D02*
X240892288Y-103967517D01*
X240892288Y-103967517D02*
X240930383Y-103929422D01*
X240930383Y-103929422D02*
X241006574Y-103891327D01*
X241578002Y-103967517D02*
X241616098Y-103929422D01*
X241616098Y-103929422D02*
X241692288Y-103891327D01*
X241692288Y-103891327D02*
X241882764Y-103891327D01*
X241882764Y-103891327D02*
X241958955Y-103929422D01*
X241958955Y-103929422D02*
X241997050Y-103967517D01*
X241997050Y-103967517D02*
X242035145Y-104043708D01*
X242035145Y-104043708D02*
X242035145Y-104119898D01*
X242035145Y-104119898D02*
X241997050Y-104234184D01*
X241997050Y-104234184D02*
X241539907Y-104691327D01*
X241539907Y-104691327D02*
X242035145Y-104691327D01*
X242530384Y-103891327D02*
X242606574Y-103891327D01*
X242606574Y-103891327D02*
X242682765Y-103929422D01*
X242682765Y-103929422D02*
X242720860Y-103967517D01*
X242720860Y-103967517D02*
X242758955Y-104043708D01*
X242758955Y-104043708D02*
X242797050Y-104196089D01*
X242797050Y-104196089D02*
X242797050Y-104386565D01*
X242797050Y-104386565D02*
X242758955Y-104538946D01*
X242758955Y-104538946D02*
X242720860Y-104615136D01*
X242720860Y-104615136D02*
X242682765Y-104653232D01*
X242682765Y-104653232D02*
X242606574Y-104691327D01*
X242606574Y-104691327D02*
X242530384Y-104691327D01*
X242530384Y-104691327D02*
X242454193Y-104653232D01*
X242454193Y-104653232D02*
X242416098Y-104615136D01*
X242416098Y-104615136D02*
X242378003Y-104538946D01*
X242378003Y-104538946D02*
X242339907Y-104386565D01*
X242339907Y-104386565D02*
X242339907Y-104196089D01*
X242339907Y-104196089D02*
X242378003Y-104043708D01*
X242378003Y-104043708D02*
X242416098Y-103967517D01*
X242416098Y-103967517D02*
X242454193Y-103929422D01*
X242454193Y-103929422D02*
X242530384Y-103891327D01*
X241006574Y-106391329D02*
X241082764Y-106391329D01*
X241082764Y-106391329D02*
X241158955Y-106429424D01*
X241158955Y-106429424D02*
X241197050Y-106467519D01*
X241197050Y-106467519D02*
X241235145Y-106543710D01*
X241235145Y-106543710D02*
X241273240Y-106696091D01*
X241273240Y-106696091D02*
X241273240Y-106886567D01*
X241273240Y-106886567D02*
X241235145Y-107038948D01*
X241235145Y-107038948D02*
X241197050Y-107115138D01*
X241197050Y-107115138D02*
X241158955Y-107153234D01*
X241158955Y-107153234D02*
X241082764Y-107191329D01*
X241082764Y-107191329D02*
X241006574Y-107191329D01*
X241006574Y-107191329D02*
X240930383Y-107153234D01*
X240930383Y-107153234D02*
X240892288Y-107115138D01*
X240892288Y-107115138D02*
X240854193Y-107038948D01*
X240854193Y-107038948D02*
X240816097Y-106886567D01*
X240816097Y-106886567D02*
X240816097Y-106696091D01*
X240816097Y-106696091D02*
X240854193Y-106543710D01*
X240854193Y-106543710D02*
X240892288Y-106467519D01*
X240892288Y-106467519D02*
X240930383Y-106429424D01*
X240930383Y-106429424D02*
X241006574Y-106391329D01*
X241578002Y-106467519D02*
X241616098Y-106429424D01*
X241616098Y-106429424D02*
X241692288Y-106391329D01*
X241692288Y-106391329D02*
X241882764Y-106391329D01*
X241882764Y-106391329D02*
X241958955Y-106429424D01*
X241958955Y-106429424D02*
X241997050Y-106467519D01*
X241997050Y-106467519D02*
X242035145Y-106543710D01*
X242035145Y-106543710D02*
X242035145Y-106619900D01*
X242035145Y-106619900D02*
X241997050Y-106734186D01*
X241997050Y-106734186D02*
X241539907Y-107191329D01*
X241539907Y-107191329D02*
X242035145Y-107191329D01*
X242339907Y-106467519D02*
X242378003Y-106429424D01*
X242378003Y-106429424D02*
X242454193Y-106391329D01*
X242454193Y-106391329D02*
X242644669Y-106391329D01*
X242644669Y-106391329D02*
X242720860Y-106429424D01*
X242720860Y-106429424D02*
X242758955Y-106467519D01*
X242758955Y-106467519D02*
X242797050Y-106543710D01*
X242797050Y-106543710D02*
X242797050Y-106619900D01*
X242797050Y-106619900D02*
X242758955Y-106734186D01*
X242758955Y-106734186D02*
X242301812Y-107191329D01*
X242301812Y-107191329D02*
X242797050Y-107191329D01*
X252347621Y-114781327D02*
X251890478Y-114781327D01*
X252119050Y-114781327D02*
X252119050Y-113981327D01*
X252119050Y-113981327D02*
X252042859Y-114095612D01*
X252042859Y-114095612D02*
X251966669Y-114171803D01*
X251966669Y-114171803D02*
X251890478Y-114209898D01*
X253109526Y-114781327D02*
X252652383Y-114781327D01*
X252880955Y-114781327D02*
X252880955Y-113981327D01*
X252880955Y-113981327D02*
X252804764Y-114095612D01*
X252804764Y-114095612D02*
X252728574Y-114171803D01*
X252728574Y-114171803D02*
X252652383Y-114209898D01*
X253871431Y-114781327D02*
X253414288Y-114781327D01*
X253642860Y-114781327D02*
X253642860Y-113981327D01*
X253642860Y-113981327D02*
X253566669Y-114095612D01*
X253566669Y-114095612D02*
X253490479Y-114171803D01*
X253490479Y-114171803D02*
X253414288Y-114209898D01*
X252080955Y-103821327D02*
X252157145Y-103821327D01*
X252157145Y-103821327D02*
X252233336Y-103859422D01*
X252233336Y-103859422D02*
X252271431Y-103897517D01*
X252271431Y-103897517D02*
X252309526Y-103973708D01*
X252309526Y-103973708D02*
X252347621Y-104126089D01*
X252347621Y-104126089D02*
X252347621Y-104316565D01*
X252347621Y-104316565D02*
X252309526Y-104468946D01*
X252309526Y-104468946D02*
X252271431Y-104545136D01*
X252271431Y-104545136D02*
X252233336Y-104583232D01*
X252233336Y-104583232D02*
X252157145Y-104621327D01*
X252157145Y-104621327D02*
X252080955Y-104621327D01*
X252080955Y-104621327D02*
X252004764Y-104583232D01*
X252004764Y-104583232D02*
X251966669Y-104545136D01*
X251966669Y-104545136D02*
X251928574Y-104468946D01*
X251928574Y-104468946D02*
X251890478Y-104316565D01*
X251890478Y-104316565D02*
X251890478Y-104126089D01*
X251890478Y-104126089D02*
X251928574Y-103973708D01*
X251928574Y-103973708D02*
X251966669Y-103897517D01*
X251966669Y-103897517D02*
X252004764Y-103859422D01*
X252004764Y-103859422D02*
X252080955Y-103821327D01*
X252652383Y-103897517D02*
X252690479Y-103859422D01*
X252690479Y-103859422D02*
X252766669Y-103821327D01*
X252766669Y-103821327D02*
X252957145Y-103821327D01*
X252957145Y-103821327D02*
X253033336Y-103859422D01*
X253033336Y-103859422D02*
X253071431Y-103897517D01*
X253071431Y-103897517D02*
X253109526Y-103973708D01*
X253109526Y-103973708D02*
X253109526Y-104049898D01*
X253109526Y-104049898D02*
X253071431Y-104164184D01*
X253071431Y-104164184D02*
X252614288Y-104621327D01*
X252614288Y-104621327D02*
X253109526Y-104621327D01*
X253490479Y-104621327D02*
X253642860Y-104621327D01*
X253642860Y-104621327D02*
X253719050Y-104583232D01*
X253719050Y-104583232D02*
X253757146Y-104545136D01*
X253757146Y-104545136D02*
X253833336Y-104430851D01*
X253833336Y-104430851D02*
X253871431Y-104278470D01*
X253871431Y-104278470D02*
X253871431Y-103973708D01*
X253871431Y-103973708D02*
X253833336Y-103897517D01*
X253833336Y-103897517D02*
X253795241Y-103859422D01*
X253795241Y-103859422D02*
X253719050Y-103821327D01*
X253719050Y-103821327D02*
X253566669Y-103821327D01*
X253566669Y-103821327D02*
X253490479Y-103859422D01*
X253490479Y-103859422D02*
X253452384Y-103897517D01*
X253452384Y-103897517D02*
X253414288Y-103973708D01*
X253414288Y-103973708D02*
X253414288Y-104164184D01*
X253414288Y-104164184D02*
X253452384Y-104240374D01*
X253452384Y-104240374D02*
X253490479Y-104278470D01*
X253490479Y-104278470D02*
X253566669Y-104316565D01*
X253566669Y-104316565D02*
X253719050Y-104316565D01*
X253719050Y-104316565D02*
X253795241Y-104278470D01*
X253795241Y-104278470D02*
X253833336Y-104240374D01*
X253833336Y-104240374D02*
X253871431Y-104164184D01*
X241273240Y-117321327D02*
X240816097Y-117321327D01*
X241044669Y-117321327D02*
X241044669Y-116521327D01*
X241044669Y-116521327D02*
X240968478Y-116635612D01*
X240968478Y-116635612D02*
X240892288Y-116711803D01*
X240892288Y-116711803D02*
X240816097Y-116749898D01*
X241768479Y-116521327D02*
X241844669Y-116521327D01*
X241844669Y-116521327D02*
X241920860Y-116559422D01*
X241920860Y-116559422D02*
X241958955Y-116597517D01*
X241958955Y-116597517D02*
X241997050Y-116673708D01*
X241997050Y-116673708D02*
X242035145Y-116826089D01*
X242035145Y-116826089D02*
X242035145Y-117016565D01*
X242035145Y-117016565D02*
X241997050Y-117168946D01*
X241997050Y-117168946D02*
X241958955Y-117245136D01*
X241958955Y-117245136D02*
X241920860Y-117283232D01*
X241920860Y-117283232D02*
X241844669Y-117321327D01*
X241844669Y-117321327D02*
X241768479Y-117321327D01*
X241768479Y-117321327D02*
X241692288Y-117283232D01*
X241692288Y-117283232D02*
X241654193Y-117245136D01*
X241654193Y-117245136D02*
X241616098Y-117168946D01*
X241616098Y-117168946D02*
X241578002Y-117016565D01*
X241578002Y-117016565D02*
X241578002Y-116826089D01*
X241578002Y-116826089D02*
X241616098Y-116673708D01*
X241616098Y-116673708D02*
X241654193Y-116597517D01*
X241654193Y-116597517D02*
X241692288Y-116559422D01*
X241692288Y-116559422D02*
X241768479Y-116521327D01*
X242720860Y-116787993D02*
X242720860Y-117321327D01*
X242530384Y-116483232D02*
X242339907Y-117054660D01*
X242339907Y-117054660D02*
X242835146Y-117054660D01*
X252080955Y-101281327D02*
X252157145Y-101281327D01*
X252157145Y-101281327D02*
X252233336Y-101319422D01*
X252233336Y-101319422D02*
X252271431Y-101357517D01*
X252271431Y-101357517D02*
X252309526Y-101433708D01*
X252309526Y-101433708D02*
X252347621Y-101586089D01*
X252347621Y-101586089D02*
X252347621Y-101776565D01*
X252347621Y-101776565D02*
X252309526Y-101928946D01*
X252309526Y-101928946D02*
X252271431Y-102005136D01*
X252271431Y-102005136D02*
X252233336Y-102043232D01*
X252233336Y-102043232D02*
X252157145Y-102081327D01*
X252157145Y-102081327D02*
X252080955Y-102081327D01*
X252080955Y-102081327D02*
X252004764Y-102043232D01*
X252004764Y-102043232D02*
X251966669Y-102005136D01*
X251966669Y-102005136D02*
X251928574Y-101928946D01*
X251928574Y-101928946D02*
X251890478Y-101776565D01*
X251890478Y-101776565D02*
X251890478Y-101586089D01*
X251890478Y-101586089D02*
X251928574Y-101433708D01*
X251928574Y-101433708D02*
X251966669Y-101357517D01*
X251966669Y-101357517D02*
X252004764Y-101319422D01*
X252004764Y-101319422D02*
X252080955Y-101281327D01*
X252614288Y-101281327D02*
X253109526Y-101281327D01*
X253109526Y-101281327D02*
X252842860Y-101586089D01*
X252842860Y-101586089D02*
X252957145Y-101586089D01*
X252957145Y-101586089D02*
X253033336Y-101624184D01*
X253033336Y-101624184D02*
X253071431Y-101662279D01*
X253071431Y-101662279D02*
X253109526Y-101738470D01*
X253109526Y-101738470D02*
X253109526Y-101928946D01*
X253109526Y-101928946D02*
X253071431Y-102005136D01*
X253071431Y-102005136D02*
X253033336Y-102043232D01*
X253033336Y-102043232D02*
X252957145Y-102081327D01*
X252957145Y-102081327D02*
X252728574Y-102081327D01*
X252728574Y-102081327D02*
X252652383Y-102043232D01*
X252652383Y-102043232D02*
X252614288Y-102005136D01*
X253871431Y-102081327D02*
X253414288Y-102081327D01*
X253642860Y-102081327D02*
X253642860Y-101281327D01*
X253642860Y-101281327D02*
X253566669Y-101395612D01*
X253566669Y-101395612D02*
X253490479Y-101471803D01*
X253490479Y-101471803D02*
X253414288Y-101509898D01*
X241006574Y-93591327D02*
X241082764Y-93591327D01*
X241082764Y-93591327D02*
X241158955Y-93629422D01*
X241158955Y-93629422D02*
X241197050Y-93667517D01*
X241197050Y-93667517D02*
X241235145Y-93743708D01*
X241235145Y-93743708D02*
X241273240Y-93896089D01*
X241273240Y-93896089D02*
X241273240Y-94086565D01*
X241273240Y-94086565D02*
X241235145Y-94238946D01*
X241235145Y-94238946D02*
X241197050Y-94315136D01*
X241197050Y-94315136D02*
X241158955Y-94353232D01*
X241158955Y-94353232D02*
X241082764Y-94391327D01*
X241082764Y-94391327D02*
X241006574Y-94391327D01*
X241006574Y-94391327D02*
X240930383Y-94353232D01*
X240930383Y-94353232D02*
X240892288Y-94315136D01*
X240892288Y-94315136D02*
X240854193Y-94238946D01*
X240854193Y-94238946D02*
X240816097Y-94086565D01*
X240816097Y-94086565D02*
X240816097Y-93896089D01*
X240816097Y-93896089D02*
X240854193Y-93743708D01*
X240854193Y-93743708D02*
X240892288Y-93667517D01*
X240892288Y-93667517D02*
X240930383Y-93629422D01*
X240930383Y-93629422D02*
X241006574Y-93591327D01*
X241768479Y-93591327D02*
X241844669Y-93591327D01*
X241844669Y-93591327D02*
X241920860Y-93629422D01*
X241920860Y-93629422D02*
X241958955Y-93667517D01*
X241958955Y-93667517D02*
X241997050Y-93743708D01*
X241997050Y-93743708D02*
X242035145Y-93896089D01*
X242035145Y-93896089D02*
X242035145Y-94086565D01*
X242035145Y-94086565D02*
X241997050Y-94238946D01*
X241997050Y-94238946D02*
X241958955Y-94315136D01*
X241958955Y-94315136D02*
X241920860Y-94353232D01*
X241920860Y-94353232D02*
X241844669Y-94391327D01*
X241844669Y-94391327D02*
X241768479Y-94391327D01*
X241768479Y-94391327D02*
X241692288Y-94353232D01*
X241692288Y-94353232D02*
X241654193Y-94315136D01*
X241654193Y-94315136D02*
X241616098Y-94238946D01*
X241616098Y-94238946D02*
X241578002Y-94086565D01*
X241578002Y-94086565D02*
X241578002Y-93896089D01*
X241578002Y-93896089D02*
X241616098Y-93743708D01*
X241616098Y-93743708D02*
X241654193Y-93667517D01*
X241654193Y-93667517D02*
X241692288Y-93629422D01*
X241692288Y-93629422D02*
X241768479Y-93591327D01*
X242492288Y-93934184D02*
X242416098Y-93896089D01*
X242416098Y-93896089D02*
X242378003Y-93857993D01*
X242378003Y-93857993D02*
X242339907Y-93781803D01*
X242339907Y-93781803D02*
X242339907Y-93743708D01*
X242339907Y-93743708D02*
X242378003Y-93667517D01*
X242378003Y-93667517D02*
X242416098Y-93629422D01*
X242416098Y-93629422D02*
X242492288Y-93591327D01*
X242492288Y-93591327D02*
X242644669Y-93591327D01*
X242644669Y-93591327D02*
X242720860Y-93629422D01*
X242720860Y-93629422D02*
X242758955Y-93667517D01*
X242758955Y-93667517D02*
X242797050Y-93743708D01*
X242797050Y-93743708D02*
X242797050Y-93781803D01*
X242797050Y-93781803D02*
X242758955Y-93857993D01*
X242758955Y-93857993D02*
X242720860Y-93896089D01*
X242720860Y-93896089D02*
X242644669Y-93934184D01*
X242644669Y-93934184D02*
X242492288Y-93934184D01*
X242492288Y-93934184D02*
X242416098Y-93972279D01*
X242416098Y-93972279D02*
X242378003Y-94010374D01*
X242378003Y-94010374D02*
X242339907Y-94086565D01*
X242339907Y-94086565D02*
X242339907Y-94238946D01*
X242339907Y-94238946D02*
X242378003Y-94315136D01*
X242378003Y-94315136D02*
X242416098Y-94353232D01*
X242416098Y-94353232D02*
X242492288Y-94391327D01*
X242492288Y-94391327D02*
X242644669Y-94391327D01*
X242644669Y-94391327D02*
X242720860Y-94353232D01*
X242720860Y-94353232D02*
X242758955Y-94315136D01*
X242758955Y-94315136D02*
X242797050Y-94238946D01*
X242797050Y-94238946D02*
X242797050Y-94086565D01*
X242797050Y-94086565D02*
X242758955Y-94010374D01*
X242758955Y-94010374D02*
X242720860Y-93972279D01*
X242720860Y-93972279D02*
X242644669Y-93934184D01*
X252188906Y-93699420D02*
X252112716Y-93661325D01*
X252112716Y-93661325D02*
X251998430Y-93661325D01*
X251998430Y-93661325D02*
X251884144Y-93699420D01*
X251884144Y-93699420D02*
X251807954Y-93775610D01*
X251807954Y-93775610D02*
X251769859Y-93851801D01*
X251769859Y-93851801D02*
X251731763Y-94004182D01*
X251731763Y-94004182D02*
X251731763Y-94118468D01*
X251731763Y-94118468D02*
X251769859Y-94270849D01*
X251769859Y-94270849D02*
X251807954Y-94347039D01*
X251807954Y-94347039D02*
X251884144Y-94423230D01*
X251884144Y-94423230D02*
X251998430Y-94461325D01*
X251998430Y-94461325D02*
X252074621Y-94461325D01*
X252074621Y-94461325D02*
X252188906Y-94423230D01*
X252188906Y-94423230D02*
X252227002Y-94385134D01*
X252227002Y-94385134D02*
X252227002Y-94118468D01*
X252227002Y-94118468D02*
X252074621Y-94118468D01*
X252569859Y-94461325D02*
X252569859Y-93661325D01*
X252569859Y-93661325D02*
X253027002Y-94461325D01*
X253027002Y-94461325D02*
X253027002Y-93661325D01*
X253407954Y-94461325D02*
X253407954Y-93661325D01*
X253407954Y-93661325D02*
X253598430Y-93661325D01*
X253598430Y-93661325D02*
X253712716Y-93699420D01*
X253712716Y-93699420D02*
X253788906Y-93775610D01*
X253788906Y-93775610D02*
X253827001Y-93851801D01*
X253827001Y-93851801D02*
X253865097Y-94004182D01*
X253865097Y-94004182D02*
X253865097Y-94118468D01*
X253865097Y-94118468D02*
X253827001Y-94270849D01*
X253827001Y-94270849D02*
X253788906Y-94347039D01*
X253788906Y-94347039D02*
X253712716Y-94423230D01*
X253712716Y-94423230D02*
X253598430Y-94461325D01*
X253598430Y-94461325D02*
X253407954Y-94461325D01*
X252080960Y-116521326D02*
X252157150Y-116521326D01*
X252157150Y-116521326D02*
X252233341Y-116559421D01*
X252233341Y-116559421D02*
X252271436Y-116597516D01*
X252271436Y-116597516D02*
X252309531Y-116673707D01*
X252309531Y-116673707D02*
X252347626Y-116826088D01*
X252347626Y-116826088D02*
X252347626Y-117016564D01*
X252347626Y-117016564D02*
X252309531Y-117168945D01*
X252309531Y-117168945D02*
X252271436Y-117245135D01*
X252271436Y-117245135D02*
X252233341Y-117283231D01*
X252233341Y-117283231D02*
X252157150Y-117321326D01*
X252157150Y-117321326D02*
X252080960Y-117321326D01*
X252080960Y-117321326D02*
X252004769Y-117283231D01*
X252004769Y-117283231D02*
X251966674Y-117245135D01*
X251966674Y-117245135D02*
X251928579Y-117168945D01*
X251928579Y-117168945D02*
X251890483Y-117016564D01*
X251890483Y-117016564D02*
X251890483Y-116826088D01*
X251890483Y-116826088D02*
X251928579Y-116673707D01*
X251928579Y-116673707D02*
X251966674Y-116597516D01*
X251966674Y-116597516D02*
X252004769Y-116559421D01*
X252004769Y-116559421D02*
X252080960Y-116521326D01*
X253109531Y-117321326D02*
X252652388Y-117321326D01*
X252880960Y-117321326D02*
X252880960Y-116521326D01*
X252880960Y-116521326D02*
X252804769Y-116635611D01*
X252804769Y-116635611D02*
X252728579Y-116711802D01*
X252728579Y-116711802D02*
X252652388Y-116749897D01*
X253604770Y-116521326D02*
X253680960Y-116521326D01*
X253680960Y-116521326D02*
X253757151Y-116559421D01*
X253757151Y-116559421D02*
X253795246Y-116597516D01*
X253795246Y-116597516D02*
X253833341Y-116673707D01*
X253833341Y-116673707D02*
X253871436Y-116826088D01*
X253871436Y-116826088D02*
X253871436Y-117016564D01*
X253871436Y-117016564D02*
X253833341Y-117168945D01*
X253833341Y-117168945D02*
X253795246Y-117245135D01*
X253795246Y-117245135D02*
X253757151Y-117283231D01*
X253757151Y-117283231D02*
X253680960Y-117321326D01*
X253680960Y-117321326D02*
X253604770Y-117321326D01*
X253604770Y-117321326D02*
X253528579Y-117283231D01*
X253528579Y-117283231D02*
X253490484Y-117245135D01*
X253490484Y-117245135D02*
X253452389Y-117168945D01*
X253452389Y-117168945D02*
X253414293Y-117016564D01*
X253414293Y-117016564D02*
X253414293Y-116826088D01*
X253414293Y-116826088D02*
X253452389Y-116673707D01*
X253452389Y-116673707D02*
X253490484Y-116597516D01*
X253490484Y-116597516D02*
X253528579Y-116559421D01*
X253528579Y-116559421D02*
X253604770Y-116521326D01*
X241006574Y-101291327D02*
X241082764Y-101291327D01*
X241082764Y-101291327D02*
X241158955Y-101329422D01*
X241158955Y-101329422D02*
X241197050Y-101367517D01*
X241197050Y-101367517D02*
X241235145Y-101443708D01*
X241235145Y-101443708D02*
X241273240Y-101596089D01*
X241273240Y-101596089D02*
X241273240Y-101786565D01*
X241273240Y-101786565D02*
X241235145Y-101938946D01*
X241235145Y-101938946D02*
X241197050Y-102015136D01*
X241197050Y-102015136D02*
X241158955Y-102053232D01*
X241158955Y-102053232D02*
X241082764Y-102091327D01*
X241082764Y-102091327D02*
X241006574Y-102091327D01*
X241006574Y-102091327D02*
X240930383Y-102053232D01*
X240930383Y-102053232D02*
X240892288Y-102015136D01*
X240892288Y-102015136D02*
X240854193Y-101938946D01*
X240854193Y-101938946D02*
X240816097Y-101786565D01*
X240816097Y-101786565D02*
X240816097Y-101596089D01*
X240816097Y-101596089D02*
X240854193Y-101443708D01*
X240854193Y-101443708D02*
X240892288Y-101367517D01*
X240892288Y-101367517D02*
X240930383Y-101329422D01*
X240930383Y-101329422D02*
X241006574Y-101291327D01*
X242035145Y-102091327D02*
X241578002Y-102091327D01*
X241806574Y-102091327D02*
X241806574Y-101291327D01*
X241806574Y-101291327D02*
X241730383Y-101405612D01*
X241730383Y-101405612D02*
X241654193Y-101481803D01*
X241654193Y-101481803D02*
X241578002Y-101519898D01*
X242301812Y-101291327D02*
X242835146Y-101291327D01*
X242835146Y-101291327D02*
X242492288Y-102091327D01*
X251814288Y-98741327D02*
X252080955Y-99541327D01*
X252080955Y-99541327D02*
X252347621Y-98741327D01*
X253071431Y-99465136D02*
X253033335Y-99503232D01*
X253033335Y-99503232D02*
X252919050Y-99541327D01*
X252919050Y-99541327D02*
X252842859Y-99541327D01*
X252842859Y-99541327D02*
X252728573Y-99503232D01*
X252728573Y-99503232D02*
X252652383Y-99427041D01*
X252652383Y-99427041D02*
X252614288Y-99350851D01*
X252614288Y-99350851D02*
X252576192Y-99198470D01*
X252576192Y-99198470D02*
X252576192Y-99084184D01*
X252576192Y-99084184D02*
X252614288Y-98931803D01*
X252614288Y-98931803D02*
X252652383Y-98855612D01*
X252652383Y-98855612D02*
X252728573Y-98779422D01*
X252728573Y-98779422D02*
X252842859Y-98741327D01*
X252842859Y-98741327D02*
X252919050Y-98741327D01*
X252919050Y-98741327D02*
X253033335Y-98779422D01*
X253033335Y-98779422D02*
X253071431Y-98817517D01*
X253871431Y-99465136D02*
X253833335Y-99503232D01*
X253833335Y-99503232D02*
X253719050Y-99541327D01*
X253719050Y-99541327D02*
X253642859Y-99541327D01*
X253642859Y-99541327D02*
X253528573Y-99503232D01*
X253528573Y-99503232D02*
X253452383Y-99427041D01*
X253452383Y-99427041D02*
X253414288Y-99350851D01*
X253414288Y-99350851D02*
X253376192Y-99198470D01*
X253376192Y-99198470D02*
X253376192Y-99084184D01*
X253376192Y-99084184D02*
X253414288Y-98931803D01*
X253414288Y-98931803D02*
X253452383Y-98855612D01*
X253452383Y-98855612D02*
X253528573Y-98779422D01*
X253528573Y-98779422D02*
X253642859Y-98741327D01*
X253642859Y-98741327D02*
X253719050Y-98741327D01*
X253719050Y-98741327D02*
X253833335Y-98779422D01*
X253833335Y-98779422D02*
X253871431Y-98817517D01*
X252347621Y-112241327D02*
X251890478Y-112241327D01*
X252119050Y-112241327D02*
X252119050Y-111441327D01*
X252119050Y-111441327D02*
X252042859Y-111555612D01*
X252042859Y-111555612D02*
X251966669Y-111631803D01*
X251966669Y-111631803D02*
X251890478Y-111669898D01*
X253109526Y-112241327D02*
X252652383Y-112241327D01*
X252880955Y-112241327D02*
X252880955Y-111441327D01*
X252880955Y-111441327D02*
X252804764Y-111555612D01*
X252804764Y-111555612D02*
X252728574Y-111631803D01*
X252728574Y-111631803D02*
X252652383Y-111669898D01*
X253376193Y-111441327D02*
X253871431Y-111441327D01*
X253871431Y-111441327D02*
X253604765Y-111746089D01*
X253604765Y-111746089D02*
X253719050Y-111746089D01*
X253719050Y-111746089D02*
X253795241Y-111784184D01*
X253795241Y-111784184D02*
X253833336Y-111822279D01*
X253833336Y-111822279D02*
X253871431Y-111898470D01*
X253871431Y-111898470D02*
X253871431Y-112088946D01*
X253871431Y-112088946D02*
X253833336Y-112165136D01*
X253833336Y-112165136D02*
X253795241Y-112203232D01*
X253795241Y-112203232D02*
X253719050Y-112241327D01*
X253719050Y-112241327D02*
X253490479Y-112241327D01*
X253490479Y-112241327D02*
X253414288Y-112203232D01*
X253414288Y-112203232D02*
X253376193Y-112165136D01*
X252080955Y-106361327D02*
X252157145Y-106361327D01*
X252157145Y-106361327D02*
X252233336Y-106399422D01*
X252233336Y-106399422D02*
X252271431Y-106437517D01*
X252271431Y-106437517D02*
X252309526Y-106513708D01*
X252309526Y-106513708D02*
X252347621Y-106666089D01*
X252347621Y-106666089D02*
X252347621Y-106856565D01*
X252347621Y-106856565D02*
X252309526Y-107008946D01*
X252309526Y-107008946D02*
X252271431Y-107085136D01*
X252271431Y-107085136D02*
X252233336Y-107123232D01*
X252233336Y-107123232D02*
X252157145Y-107161327D01*
X252157145Y-107161327D02*
X252080955Y-107161327D01*
X252080955Y-107161327D02*
X252004764Y-107123232D01*
X252004764Y-107123232D02*
X251966669Y-107085136D01*
X251966669Y-107085136D02*
X251928574Y-107008946D01*
X251928574Y-107008946D02*
X251890478Y-106856565D01*
X251890478Y-106856565D02*
X251890478Y-106666089D01*
X251890478Y-106666089D02*
X251928574Y-106513708D01*
X251928574Y-106513708D02*
X251966669Y-106437517D01*
X251966669Y-106437517D02*
X252004764Y-106399422D01*
X252004764Y-106399422D02*
X252080955Y-106361327D01*
X252842860Y-106361327D02*
X252919050Y-106361327D01*
X252919050Y-106361327D02*
X252995241Y-106399422D01*
X252995241Y-106399422D02*
X253033336Y-106437517D01*
X253033336Y-106437517D02*
X253071431Y-106513708D01*
X253071431Y-106513708D02*
X253109526Y-106666089D01*
X253109526Y-106666089D02*
X253109526Y-106856565D01*
X253109526Y-106856565D02*
X253071431Y-107008946D01*
X253071431Y-107008946D02*
X253033336Y-107085136D01*
X253033336Y-107085136D02*
X252995241Y-107123232D01*
X252995241Y-107123232D02*
X252919050Y-107161327D01*
X252919050Y-107161327D02*
X252842860Y-107161327D01*
X252842860Y-107161327D02*
X252766669Y-107123232D01*
X252766669Y-107123232D02*
X252728574Y-107085136D01*
X252728574Y-107085136D02*
X252690479Y-107008946D01*
X252690479Y-107008946D02*
X252652383Y-106856565D01*
X252652383Y-106856565D02*
X252652383Y-106666089D01*
X252652383Y-106666089D02*
X252690479Y-106513708D01*
X252690479Y-106513708D02*
X252728574Y-106437517D01*
X252728574Y-106437517D02*
X252766669Y-106399422D01*
X252766669Y-106399422D02*
X252842860Y-106361327D01*
X253414288Y-106437517D02*
X253452384Y-106399422D01*
X253452384Y-106399422D02*
X253528574Y-106361327D01*
X253528574Y-106361327D02*
X253719050Y-106361327D01*
X253719050Y-106361327D02*
X253795241Y-106399422D01*
X253795241Y-106399422D02*
X253833336Y-106437517D01*
X253833336Y-106437517D02*
X253871431Y-106513708D01*
X253871431Y-106513708D02*
X253871431Y-106589898D01*
X253871431Y-106589898D02*
X253833336Y-106704184D01*
X253833336Y-106704184D02*
X253376193Y-107161327D01*
X253376193Y-107161327D02*
X253871431Y-107161327D01*
X241273238Y-96239422D02*
X241197048Y-96201327D01*
X241197048Y-96201327D02*
X241082762Y-96201327D01*
X241082762Y-96201327D02*
X240968476Y-96239422D01*
X240968476Y-96239422D02*
X240892286Y-96315612D01*
X240892286Y-96315612D02*
X240854191Y-96391803D01*
X240854191Y-96391803D02*
X240816095Y-96544184D01*
X240816095Y-96544184D02*
X240816095Y-96658470D01*
X240816095Y-96658470D02*
X240854191Y-96810851D01*
X240854191Y-96810851D02*
X240892286Y-96887041D01*
X240892286Y-96887041D02*
X240968476Y-96963232D01*
X240968476Y-96963232D02*
X241082762Y-97001327D01*
X241082762Y-97001327D02*
X241158953Y-97001327D01*
X241158953Y-97001327D02*
X241273238Y-96963232D01*
X241273238Y-96963232D02*
X241311334Y-96925136D01*
X241311334Y-96925136D02*
X241311334Y-96658470D01*
X241311334Y-96658470D02*
X241158953Y-96658470D01*
X241654191Y-97001327D02*
X241654191Y-96201327D01*
X241654191Y-96201327D02*
X242111334Y-97001327D01*
X242111334Y-97001327D02*
X242111334Y-96201327D01*
X242492286Y-97001327D02*
X242492286Y-96201327D01*
X242492286Y-96201327D02*
X242682762Y-96201327D01*
X242682762Y-96201327D02*
X242797048Y-96239422D01*
X242797048Y-96239422D02*
X242873238Y-96315612D01*
X242873238Y-96315612D02*
X242911333Y-96391803D01*
X242911333Y-96391803D02*
X242949429Y-96544184D01*
X242949429Y-96544184D02*
X242949429Y-96658470D01*
X242949429Y-96658470D02*
X242911333Y-96810851D01*
X242911333Y-96810851D02*
X242873238Y-96887041D01*
X242873238Y-96887041D02*
X242797048Y-96963232D01*
X242797048Y-96963232D02*
X242682762Y-97001327D01*
X242682762Y-97001327D02*
X242492286Y-97001327D01*
%TO.C,T1*%
X244043768Y-123029025D02*
X244043768Y-125879023D01*
X245393768Y-125879025D02*
X249293768Y-125879025D01*
X247343768Y-125879025D02*
X244043768Y-125879023D01*
X247343768Y-125879025D02*
X250643768Y-125879025D01*
X250643765Y-123029021D02*
X244043768Y-123029025D01*
X250643768Y-125879025D02*
X250643765Y-123029021D01*
D13*
%TO.C,D6*%
X365435222Y-102120880D02*
X365831329Y-102176549D01*
X365831329Y-102176549D02*
X365754786Y-102721197D01*
X365831329Y-102176549D02*
X365907874Y-101631902D01*
X365831329Y-102176549D02*
X366481159Y-101863946D01*
X366369819Y-102656161D02*
X365831329Y-102176549D01*
X366425490Y-102260053D02*
X366920624Y-102329640D01*
X366481159Y-101863946D02*
X366369819Y-102656161D01*
%TO.C,D14*%
X305593766Y-107529029D02*
X305993767Y-107529032D01*
X305993767Y-107529032D02*
X305993766Y-106979029D01*
X305993767Y-107529032D02*
X305993768Y-108079033D01*
X305993767Y-107529032D02*
X306593767Y-107129032D01*
X306593767Y-107129032D02*
X306593767Y-107929032D01*
X306593767Y-107529032D02*
X307093768Y-107529035D01*
X306593767Y-107929032D02*
X305993767Y-107529032D01*
%TO.C,D21*%
X269593767Y-112529028D02*
X269993768Y-112529031D01*
X269993768Y-112529031D02*
X269993767Y-111979028D01*
X269993768Y-112529031D02*
X269993769Y-113079032D01*
X269993768Y-112529031D02*
X270593768Y-112129031D01*
X270593768Y-112129031D02*
X270593768Y-112929031D01*
X270593768Y-112529031D02*
X271093769Y-112529034D01*
X270593768Y-112929031D02*
X269993768Y-112529031D01*
%TO.C,D22*%
X269593761Y-95529027D02*
X269993762Y-95529030D01*
X269993762Y-95529030D02*
X269993761Y-94979027D01*
X269993762Y-95529030D02*
X269993763Y-96079031D01*
X269993762Y-95529030D02*
X270593762Y-95129030D01*
X270593762Y-95129030D02*
X270593762Y-95929030D01*
X270593762Y-95529030D02*
X271093763Y-95529033D01*
X270593762Y-95929030D02*
X269993762Y-95529030D01*
%TO.C,D11*%
X323593766Y-110029032D02*
X323993767Y-110029035D01*
X323993767Y-110029035D02*
X323993766Y-109479032D01*
X323993767Y-110029035D02*
X323993768Y-110579036D01*
X323993767Y-110029035D02*
X324593767Y-109629035D01*
X324593767Y-109629035D02*
X324593767Y-110429035D01*
X324593767Y-110029035D02*
X325093768Y-110029038D01*
X324593767Y-110429035D02*
X323993767Y-110029035D01*
%TO.C,D20*%
X269593767Y-129529037D02*
X269993768Y-129529040D01*
X269993768Y-129529040D02*
X269993767Y-128979037D01*
X269993768Y-129529040D02*
X269993769Y-130079041D01*
X269993768Y-129529040D02*
X270593768Y-129129040D01*
X270593768Y-129129040D02*
X270593768Y-129929040D01*
X270593768Y-129529040D02*
X271093769Y-129529043D01*
X270593768Y-129929040D02*
X269993768Y-129529040D01*
D14*
%TO.C,MCU1*%
X238453764Y-87749032D02*
X238453764Y-120769032D01*
X238453764Y-120769032D02*
X256233764Y-120769032D01*
X256233764Y-87749032D02*
X238453764Y-87749032D01*
X256233764Y-120769032D02*
X256233764Y-87749032D01*
D13*
%TO.C,D7*%
X342040048Y-133249388D02*
X342439073Y-133277290D01*
X342439073Y-133277290D02*
X342400706Y-133825950D01*
X342439073Y-133277290D02*
X342477440Y-132728630D01*
X342439073Y-133277290D02*
X343065515Y-132920118D01*
X343009709Y-133718170D02*
X342439073Y-133277290D01*
X343037610Y-133319144D02*
X343536394Y-133354022D01*
X343065515Y-132920118D02*
X343009709Y-133718170D01*
%TO.C,D19*%
X287593769Y-93029034D02*
X287993770Y-93029037D01*
X287993770Y-93029037D02*
X287993769Y-92479034D01*
X287993770Y-93029037D02*
X287993771Y-93579038D01*
X287993770Y-93029037D02*
X288593770Y-92629037D01*
X288593770Y-92629037D02*
X288593770Y-93429037D01*
X288593770Y-93029037D02*
X289093771Y-93029040D01*
X288593770Y-93429037D02*
X287993770Y-93029037D01*
%TO.C,D8*%
X343225901Y-116290799D02*
X343624926Y-116318701D01*
X343624926Y-116318701D02*
X343586559Y-116867361D01*
X343624926Y-116318701D02*
X343663293Y-115770041D01*
X343624926Y-116318701D02*
X344251368Y-115961529D01*
X344195562Y-116759581D02*
X343624926Y-116318701D01*
X344223463Y-116360555D02*
X344722247Y-116395433D01*
X344251368Y-115961529D02*
X344195562Y-116759581D01*
%TO.C,D1*%
X378528159Y-138295114D02*
X378924266Y-138350783D01*
X378924266Y-138350783D02*
X378847723Y-138895431D01*
X378924266Y-138350783D02*
X379000811Y-137806136D01*
X378924266Y-138350783D02*
X379574096Y-138038180D01*
X379462756Y-138830395D02*
X378924266Y-138350783D01*
X379518427Y-138434287D02*
X380013561Y-138503874D01*
X379574096Y-138038180D02*
X379462756Y-138830395D01*
%TO.C,D13*%
X305593772Y-124529027D02*
X305993773Y-124529030D01*
X305993773Y-124529030D02*
X305993772Y-123979027D01*
X305993773Y-124529030D02*
X305993774Y-125079031D01*
X305993773Y-124529030D02*
X306593773Y-124129030D01*
X306593773Y-124129030D02*
X306593773Y-124929030D01*
X306593773Y-124529030D02*
X307093774Y-124529033D01*
X306593773Y-124929030D02*
X305993773Y-124529030D01*
%TO.C,D3*%
X383260049Y-104625989D02*
X383656156Y-104681658D01*
X383656156Y-104681658D02*
X383579613Y-105226306D01*
X383656156Y-104681658D02*
X383732701Y-104137011D01*
X383656156Y-104681658D02*
X384305986Y-104369055D01*
X384194646Y-105161270D02*
X383656156Y-104681658D01*
X384250317Y-104765162D02*
X384745451Y-104834749D01*
X384305986Y-104369055D02*
X384194646Y-105161270D01*
%TO.C,D24*%
X251709505Y-156990973D02*
X252055915Y-156790973D01*
X252055915Y-156790973D02*
X251780915Y-156314659D01*
X252055915Y-156790973D02*
X252330918Y-157267284D01*
X252055915Y-156790973D02*
X252375530Y-156144563D01*
X252375530Y-156144563D02*
X252775530Y-156837383D01*
X252575530Y-156490976D02*
X253008543Y-156240973D01*
X252775530Y-156837383D02*
X252055915Y-156790973D01*
%TO.C,D18*%
X287593773Y-110029030D02*
X287993774Y-110029033D01*
X287993774Y-110029033D02*
X287993773Y-109479030D01*
X287993774Y-110029033D02*
X287993775Y-110579034D01*
X287993774Y-110029033D02*
X288593774Y-109629033D01*
X288593774Y-109629033D02*
X288593774Y-110429033D01*
X288593774Y-110029033D02*
X289093775Y-110029036D01*
X288593774Y-110429033D02*
X287993774Y-110029033D01*
%TO.C,D5*%
X363069289Y-118955428D02*
X363465396Y-119011097D01*
X363465396Y-119011097D02*
X363388853Y-119555745D01*
X363465396Y-119011097D02*
X363541941Y-118466450D01*
X363465396Y-119011097D02*
X364115226Y-118698494D01*
X364003886Y-119490709D02*
X363465396Y-119011097D01*
X364059557Y-119094601D02*
X364554691Y-119164188D01*
X364115226Y-118698494D02*
X364003886Y-119490709D01*
%TO.C,D15*%
X305593767Y-90529032D02*
X305993768Y-90529035D01*
X305993768Y-90529035D02*
X305993767Y-89979032D01*
X305993768Y-90529035D02*
X305993769Y-91079036D01*
X305993768Y-90529035D02*
X306593768Y-90129035D01*
X306593768Y-90129035D02*
X306593768Y-90929035D01*
X306593768Y-90529035D02*
X307093769Y-90529038D01*
X306593768Y-90929035D02*
X305993768Y-90529035D01*
%TO.C,D9*%
X344411766Y-99332209D02*
X344810791Y-99360111D01*
X344810791Y-99360111D02*
X344772424Y-99908771D01*
X344810791Y-99360111D02*
X344849158Y-98811451D01*
X344810791Y-99360111D02*
X345437233Y-99002939D01*
X345381427Y-99800991D02*
X344810791Y-99360111D01*
X345409328Y-99401965D02*
X345908112Y-99436843D01*
X345437233Y-99002939D02*
X345381427Y-99800991D01*
%TO.C,D17*%
X287593765Y-127029031D02*
X287993766Y-127029034D01*
X287993766Y-127029034D02*
X287993765Y-126479031D01*
X287993766Y-127029034D02*
X287993767Y-127579035D01*
X287993766Y-127029034D02*
X288593766Y-126629034D01*
X288593766Y-126629034D02*
X288593766Y-127429034D01*
X288593766Y-127029034D02*
X289093767Y-127029037D01*
X288593766Y-127429034D02*
X287993766Y-127029034D01*
%TO.C,D2*%
X380894100Y-121460553D02*
X381290207Y-121516222D01*
X381290207Y-121516222D02*
X381213664Y-122060870D01*
X381290207Y-121516222D02*
X381366752Y-120971575D01*
X381290207Y-121516222D02*
X381940037Y-121203619D01*
X381828697Y-121995834D02*
X381290207Y-121516222D01*
X381884368Y-121599726D02*
X382379502Y-121669313D01*
X381940037Y-121203619D02*
X381828697Y-121995834D01*
%TO.C,D4*%
X360703343Y-135789991D02*
X361099450Y-135845660D01*
X361099450Y-135845660D02*
X361022907Y-136390308D01*
X361099450Y-135845660D02*
X361175995Y-135301013D01*
X361099450Y-135845660D02*
X361749280Y-135533057D01*
X361637940Y-136325272D02*
X361099450Y-135845660D01*
X361693611Y-135929164D02*
X362188745Y-135998751D01*
X361749280Y-135533057D02*
X361637940Y-136325272D01*
%TO.C,D12*%
X323593764Y-93029036D02*
X323993765Y-93029039D01*
X323993765Y-93029039D02*
X323993764Y-92479036D01*
X323993765Y-93029039D02*
X323993766Y-93579040D01*
X323993765Y-93029039D02*
X324593765Y-92629039D01*
X324593765Y-92629039D02*
X324593765Y-93429039D01*
X324593765Y-93029039D02*
X325093766Y-93029042D01*
X324593765Y-93429039D02*
X323993765Y-93029039D01*
%TO.C,D10*%
X323593771Y-127029041D02*
X323993772Y-127029044D01*
X323993772Y-127029044D02*
X323993771Y-126479041D01*
X323993772Y-127029044D02*
X323993773Y-127579045D01*
X323993772Y-127029044D02*
X324593772Y-126629044D01*
X324593772Y-126629044D02*
X324593772Y-127429044D01*
X324593772Y-127029044D02*
X325093773Y-127029047D01*
X324593772Y-127429044D02*
X323993772Y-127029044D01*
%TO.C,D23*%
X269042825Y-149035736D02*
X269429195Y-148932207D01*
X269429195Y-148932207D02*
X269286847Y-148400945D01*
X269429195Y-148932207D02*
X269571544Y-149463467D01*
X269429195Y-148932207D02*
X269905220Y-148390545D01*
X269905220Y-148390545D02*
X270112278Y-149163285D01*
X270008750Y-148776915D02*
X270491713Y-148647504D01*
X270112278Y-149163285D02*
X269429195Y-148932207D01*
%TO.C,D16*%
X287593762Y-144029027D02*
X287993763Y-144029030D01*
X287993763Y-144029030D02*
X287993762Y-143479027D01*
X287993763Y-144029030D02*
X287993764Y-144579031D01*
X287993763Y-144029030D02*
X288593763Y-143629030D01*
X288593763Y-143629030D02*
X288593763Y-144429030D01*
X288593763Y-144029030D02*
X289093764Y-144029033D01*
X288593763Y-144429030D02*
X287993763Y-144029030D01*
%TD*%
D15*
%TO.C,MCU1*%
X239723764Y-91559032D03*
X239723763Y-94099029D03*
X239723764Y-96639032D03*
X239723764Y-99179032D03*
X239723764Y-101719032D03*
X239723764Y-104259032D03*
X239723764Y-106799032D03*
X239723764Y-109339032D03*
X239723764Y-111879032D03*
X239723764Y-114419032D03*
X239723760Y-116959030D03*
X239723764Y-119499032D03*
X254963764Y-119499032D03*
X254963765Y-116959035D03*
X254963764Y-114419032D03*
X254963764Y-111879032D03*
X254963764Y-109339032D03*
X254963764Y-106799032D03*
X254963764Y-104259032D03*
X254963764Y-101719032D03*
X254963764Y-99179032D03*
X254963764Y-96639032D03*
X254963768Y-94099034D03*
X254963764Y-91559032D03*
X242263764Y-114419032D03*
X244803764Y-114419032D03*
X247343764Y-114419032D03*
%TD*%
M02*
